<?xml version="1.0" encoding="utf-8"?>
<!-- Generator: Adobe Illustrator 19.2.0, SVG Export Plug-In . SVG Version: 6.00 Build 0)  -->
<svg version="1.1" xmlns="http://www.w3.org/2000/svg" xmlns:xlink="http://www.w3.org/1999/xlink" x="0px" y="0px"
	 viewBox="0 0 400 400" enable-background="new 0 0 400 400" xml:space="preserve">
<g id="Layer_1">
</g>
<g id="Layer_2">
	<g>
		<defs>
			<rect id="SVGID_1_" width="400.6" height="400.6"/>
		</defs>
		<clipPath id="SVGID_2_">
			<use xlink:href="#SVGID_1_"  overflow="visible"/>
		</clipPath>
		<g clip-path="url(#SVGID_2_)">
			<g>
				<line fill="none" stroke="#4D4D4D" stroke-miterlimit="10" x1="-24" y1="-24" x2="432" y2="432"/>
				<line fill="none" stroke="#4D4D4D" stroke-miterlimit="10" x1="0" y1="-56" x2="456" y2="400"/>
				<line fill="none" stroke="#4D4D4D" stroke-miterlimit="10" x1="-56" y1="3" x2="400" y2="459"/>
				<line fill="none" stroke="#4D4D4D" stroke-miterlimit="10" x1="60" y1="-108" x2="516" y2="348"/>
				<line fill="none" stroke="#4D4D4D" stroke-miterlimit="10" x1="84" y1="-140" x2="540" y2="316"/>
				<line fill="none" stroke="#4D4D4D" stroke-miterlimit="10" x1="113" y1="-168" x2="569" y2="288"/>
				<line fill="none" stroke="#4D4D4D" stroke-miterlimit="10" x1="137" y1="-203" x2="593" y2="253"/>
				<line fill="none" stroke="#4D4D4D" stroke-miterlimit="10" x1="28" y1="-84" x2="484" y2="372"/>
				<line fill="none" stroke="#4D4D4D" stroke-miterlimit="10" x1="-172" y1="171" x2="284" y2="627"/>
				<line fill="none" stroke="#4D4D4D" stroke-miterlimit="10" x1="-148" y1="139" x2="308" y2="595"/>
				<line fill="none" stroke="#4D4D4D" stroke-miterlimit="10" x1="-204" y1="195" x2="252" y2="651"/>
				<line fill="none" stroke="#4D4D4D" stroke-miterlimit="10" x1="-88" y1="87" x2="368" y2="543"/>
				<line fill="none" stroke="#4D4D4D" stroke-miterlimit="10" x1="-64" y1="55" x2="392" y2="511"/>
				<line fill="none" stroke="#4D4D4D" stroke-miterlimit="10" x1="-120" y1="111" x2="336" y2="567"/>
				<line fill="none" stroke="#4D4D4D" stroke-miterlimit="10" x1="-47.8" y1="448.8" x2="408.2" y2="-7.2"/>
				<line fill="none" stroke="#4D4D4D" stroke-miterlimit="10" x1="-79.8" y1="424.8" x2="376.2" y2="-31.2"/>
				<line fill="none" stroke="#4D4D4D" stroke-miterlimit="10" x1="-20.8" y1="480.8" x2="435.2" y2="24.8"/>
				<line fill="none" stroke="#4D4D4D" stroke-miterlimit="10" x1="-131.8" y1="364.8" x2="324.2" y2="-91.2"/>
				<line fill="none" stroke="#4D4D4D" stroke-miterlimit="10" x1="-163.8" y1="340.8" x2="292.2" y2="-115.2"/>
				<line fill="none" stroke="#4D4D4D" stroke-miterlimit="10" x1="-191.8" y1="311.8" x2="264.2" y2="-144.2"/>
				<line fill="none" stroke="#4D4D4D" stroke-miterlimit="10" x1="-226.8" y1="287.8" x2="229.2" y2="-168.2"/>
				<line fill="none" stroke="#4D4D4D" stroke-miterlimit="10" x1="-107.8" y1="396.8" x2="348.2" y2="-59.2"/>
				<line fill="none" stroke="#4D4D4D" stroke-miterlimit="10" x1="147.2" y1="596.8" x2="603.2" y2="140.8"/>
				<line fill="none" stroke="#4D4D4D" stroke-miterlimit="10" x1="115.2" y1="572.8" x2="571.2" y2="116.8"/>
				<line fill="none" stroke="#4D4D4D" stroke-miterlimit="10" x1="171.2" y1="628.8" x2="627.2" y2="172.8"/>
				<line fill="none" stroke="#4D4D4D" stroke-miterlimit="10" x1="63.2" y1="512.8" x2="519.2" y2="56.8"/>
				<line fill="none" stroke="#4D4D4D" stroke-miterlimit="10" x1="31.2" y1="488.8" x2="487.2" y2="32.8"/>
				<line fill="none" stroke="#4D4D4D" stroke-miterlimit="10" x1="87.2" y1="544.8" x2="543.2" y2="88.8"/>
			</g>
			<g>
				<g>
					<g>
						<path fill="#7FB293" d="M-28,45c8,0.5,15.7-2,23.4-3.8c3.2-0.7,5.5-0.8,9.9-0.7c1.8,0,3.6,0.2,5.4,0.2c2,0.1,2.3,0.1,1,0
							c-1.2-0.2-1-0.1,0.6,0.3c-2.3-1.5,1.3,0.8,1.7,1.1c1.5,1,1.7,1.1,0.6,0.4c0.5,0.5,1,0.9,1.5,1.5c0.7,0.8,0.6,0.6-0.3-0.5
							c0.5,0.7,0.9,1.5,1.3,2.3c1.6,2.5-0.3-1.6,0.7,1.5c1,3,1.8,6.1,2.5,9.2c0.3,1.6,0.6,3.3,0.9,4.9c0.1,0.8,0.6,4.8,0.2,1.2
							c0.9,8.7-0.5,15.1-1,22.9c-0.7,9,2.9,17.9,9.6,23.9c12.2,11.1,27.9,10.4,43.3,10.3c7.8-0.1,15.4-6.9,15-15
							c-0.4-8.1-6.6-15.1-15-15c-3.5,0-6.9,0.2-10.4,0.2c-1.5,0-3,0-4.5-0.1c-0.3,0-4.8-0.6-1.9-0.1c-1-0.2-1.9-0.4-2.8-0.6
							c-1.5-0.5-1.8-0.6-0.9-0.2c2.1,0.8-4.4-1.9-1.5-0.7c-0.4-0.4-0.8-0.7-1.2-1.1c0.6,1.1,0.5,0.9-0.3-0.6c0.2,1,0.5,3.3,0.6,0.5
							c-0.1,2.9,0.3-1.9,0.4-2.5c0.4-2.8,0.8-5.6,1-8.4C52,72,52,68.1,51.6,64.2c-0.7-7-1.7-14.1-3.5-20.8c-4-14.8-14.4-29-30.4-32
							C9,9.8-0.8,10-9.4,11.6c-3.2,0.6-6.4,1.5-9.6,2.3c-1.6,0.4-3.3,0.9-4.9,1.1c1.8-0.3-3.3,0-4.1,0c-7.8-0.5-15.3,7.3-15,15
							C-42.6,38.6-36.4,44.4-28,45L-28,45z"/>
					</g>
				</g>
				<g>
					<g>
						<path fill="#7FB293" d="M368,45c8,0.5,15.7-2,23.4-3.8c3.2-0.7,5.5-0.8,9.9-0.7c1.8,0,3.6,0.2,5.4,0.2c2,0.1,2.3,0.1,1,0
							c-1.2-0.2-1-0.1,0.6,0.3c-2.3-1.5,1.3,0.8,1.7,1.1c1.5,1,1.7,1.1,0.6,0.4c0.5,0.5,1,0.9,1.5,1.5c0.7,0.8,0.6,0.6-0.3-0.5
							c0.5,0.7,0.9,1.5,1.3,2.3c1.6,2.5-0.3-1.6,0.7,1.5c1,3,1.8,6.1,2.5,9.2c0.3,1.6,0.6,3.3,0.9,4.9c0.1,0.8,0.6,4.8,0.2,1.2
							c0.9,8.7-0.5,15.1-1,22.9c-0.7,9,2.9,17.9,9.6,23.9c12.2,11.1,27.9,10.4,43.3,10.3c7.8-0.1,15.4-6.9,15-15
							c-0.4-8.1-6.6-15.1-15-15c-3.5,0-6.9,0.2-10.4,0.2c-1.5,0-3,0-4.5-0.1c-0.3,0-4.8-0.6-1.9-0.1c-1-0.2-1.9-0.4-2.8-0.6
							c-1.5-0.5-1.8-0.6-0.9-0.2c2.1,0.8-4.4-1.9-1.5-0.7c-0.4-0.4-0.8-0.7-1.2-1.1c0.6,1.1,0.5,0.9-0.3-0.6c0.2,1,0.5,3.3,0.6,0.5
							c-0.1,2.9,0.3-1.9,0.4-2.5c0.4-2.8,0.8-5.6,1-8.4c0.3-3.9,0.3-7.8-0.1-11.7c-0.7-7-1.7-14.1-3.5-20.8c-4-14.8-14.4-29-30.4-32
							c-8.7-1.6-18.5-1.4-27.2,0.2c-3.2,0.6-6.4,1.5-9.6,2.3c-1.6,0.4-3.3,0.9-4.9,1.1c1.8-0.3-3.3,0-4.1,0c-7.8-0.5-15.3,7.3-15,15
							C353.4,38.6,359.6,44.4,368,45L368,45z"/>
					</g>
				</g>
				<g>
					<g>
						<path fill="#FB6188" d="M-6.1,307.8c4.9-11.2,7.6-21.5,14.2-31.4c-1.4,2.1,0.9-0.7-0.4,0.3c-1.5,1.1,1.7-1,1.7-1
							c-1.9,1-0.5,0.3,0.7-0.1c0.9-0.2,3.4-0.2,0.6-0.2c1.1,0,2.2-0.1,3.4-0.1c0.8,0,3.7,0.5,0.6-0.1c2.8,0.5,5.5,1.2,8.2,2
							c10.5,3.2,20.2,8.4,30.2,14.1c11.2,6.5,22.8,12.3,34.7,17.6c7.4,3.3,16.1,2.1,20.5-5.4c3.8-6.4,2-17.2-5.4-20.5
							c-13.2-6-25.9-12.7-38.5-19.8c-12.6-7.1-26.2-13.9-40.4-16.7c-13.3-2.6-28.2-0.9-37.9,9.5c-4.6,4.9-7.5,11.4-10.1,17.4
							c-1.7,3.9-3.3,7.7-4.9,11.6c-1.2,2.9-2.4,5.8-3.1,7.5c-3.3,7.4-2.2,16.1,5.4,20.5C-20.3,316.9-9.4,315.2-6.1,307.8L-6.1,307.8
							z"/>
					</g>
				</g>
				<g>
					<g>
						<path fill="#FB6188" d="M391.9,307.8c4.9-11.2,7.6-21.5,14.2-31.4c-1.4,2.1,0.9-0.7-0.4,0.3c-1.5,1.1,1.7-1,1.7-1
							c-1.9,1-0.5,0.3,0.7-0.1c0.9-0.2,3.4-0.2,0.6-0.2c1.1,0,2.2-0.1,3.4-0.1c0.8,0,3.7,0.5,0.6-0.1c2.8,0.5,5.5,1.2,8.2,2
							c10.5,3.2,20.2,8.4,30.2,14.1c11.2,6.5,22.8,12.3,34.7,17.6c7.4,3.3,16.1,2.1,20.5-5.4c3.8-6.4,2-17.2-5.4-20.5
							c-13.2-6-25.9-12.7-38.5-19.8c-12.6-7.1-26.2-13.9-40.4-16.7c-13.3-2.6-28.2-0.9-37.9,9.5c-4.6,4.9-7.5,11.4-10.1,17.4
							c-1.7,3.9-3.3,7.7-4.9,11.6c-1.2,2.9-2.4,5.8-3.1,7.5c-3.3,7.4-2.2,16.1,5.4,20.5C377.7,316.9,388.6,315.2,391.9,307.8
							L391.9,307.8z"/>
					</g>
				</g>
				<g>
					<g>
						<path fill="#3896C1" d="M245.5,22.8c-1.6,0.8-2.9,0.9-5.8,0.8c-3.8-0.1-5-0.4-8.4-0.9c-4.9-0.7,1.6,0.6-2.3-0.5
							c-1-0.3-2.1-0.5-3.2-0.7c-3.4-0.8-7.1-1.5-10.6-1.5c-9,0.1-17.4,5.5-19.8,14.4c-1.1,3.9-0.8,7.7,0,11.7
							c0.2,1.1,0.5,2.2,0.8,3.3c0.1,0.4,0.9,3.9,0.4,0.8c0.3,1.7,0.2,3.6,0.1,5.3c-0.1,1.8-0.1,1.1-0.2,2.2
							c-0.2,0.9-0.3,1.8-0.5,2.6c-0.5,1.6-0.5,1.8-0.1,0.8c0.5-1,0.4-0.9-0.3,0.3c0.3-0.5,0.7-1,1-1.4c2.4-2.5,0.5-0.5-0.6,0.1
							c-1.2,0.6-2.5,1.1-3.7,1.7c-2.5,1.2-0.6,0.4,0.5,0.3c-1.6,0.1-3.2-0.1-4.8-0.2c-3.4-0.2-6.6,0.1-10,0.2
							c-3,0.1-4.9-0.4-8.1-1.1c-4.1-0.9-8.3-1.3-12.4-1.7c-0.4,0-4.8-0.6-2.6-0.2c-1.6-0.3-3.1-0.7-4.7-1.1
							c-7.5-2.3-16.7,2.7-18.5,10.5c-1.8,8.1,2.4,16,10.5,18.5c3.9,1.2,7.9,1.7,11.9,2.1c4,0.4,5.8,0.5,8.7,1.2
							c4.4,1,8.8,1.9,13.3,2c3.7,0,7.4-0.5,11.1-0.3c14.5,0.7,31.8-6.3,36.9-21c2.4-7,3.2-15.2,2.3-22.5c-0.4-3.2-1-6.1-1.9-9.2
							c-0.4-1.7-0.3-1.5,0.1,0.7c-2.6,3.3-5.1,6.6-7.7,9.9c-2.2,0.2-2.3,0.3-0.5,0.3c-0.4-0.1-0.9-0.1-1.3-0.2
							c7.4,1,12.5,2.5,19.4,3.3c9.2,1,17.8-0.2,26.1-4.4c7.2-3.7,9.3-13.8,5.4-20.5C261.8,20.9,252.8,19.1,245.5,22.8L245.5,22.8z"
							/>
					</g>
				</g>
				<g>
					<g>
						<path fill="#3896C1" d="M327.1,252.1c-3.2-0.9,0.6,0.9-1.9-0.6c-0.5-0.3-3.4-2.6-1.6-0.9c-2.2-1.9-4.1-4.1-6-6.3
							c-0.9-1.1-1.8-2.3-2.8-3.4c-2.8-3.3,1.3,2.2-0.5-0.7c-1.8-3-4-5.9-6.3-8.5c-5.5-6.2-13.8-9.7-22-7.2
							c-7.3,2.2-11.1,8.2-14.5,14.5c-0.6,1.2-1.9,2.7-4.1,4.7c-0.6,0.5-1.2,1.1-1.8,1.6c0.7-0.5,0.6-0.5-0.2,0.1
							c-0.7,0.5-1.4,1-2.1,1.4c0.5-0.3,1.1-0.4,1.7-0.4c2.3,0.3,2.6,0.4,0.1-0.3c-1.5-0.4-2.9-0.9-4.4-1.3c-1.5-0.5-2.5-1.6-0.9-0.2
							c0.3,0.2-2-2.1-2.5-2.7c-2.3-2.4-5-4.3-7.5-6.4c-0.6-0.5-1.2-1.1-1.8-1.7c-1.2-1.3-1.5-1.6-0.9-1c0.2,0.3-1.6-2.4-2-3
							c-2.2-3.3-4.7-6.3-7.4-9.2c-2.8-3-3.6-3.9-5.2-6.6c-4.1-7-13.5-9.5-20.5-5.4c-7,4.1-9.5,13.5-5.4,20.5
							c2.3,3.9,5.2,7.4,8.2,10.8c1.1,1.2,2.2,2.4,3.3,3.6c2.8,3.1-0.8-1.6,1.5,2c2.3,3.5,4.8,7.1,7.8,10c2.6,2.5,5.6,4.5,8.1,7
							c2.8,2.8,5.4,5.8,8.9,7.8c3.6,2.1,8,3.4,12,4.5c8.5,2.4,16.8,1.6,24.1-3.5c6.5-4.5,12.6-9.8,16.7-16.7
							c0.5-0.9,0.9-1.8,1.4-2.7c0.3-0.6,0.7-1.3,1-1.9c0.7-1.1,0.8-1.2,0-0.2c-2.1,3.3-5.7,4.4-10.8,3.4c-4-2.7-4.9-3.1-2.9-1.3
							c0.3,0.3,0.6,0.7,0.9,1c-0.9-1.2-0.9-1.2,0.1,0.3c7.8,11.8,17.9,24,32.1,27.8c7.6,2,16.6-2.6,18.5-10.5
							C339.4,262.7,335.2,254.3,327.1,252.1L327.1,252.1z"/>
					</g>
				</g>
				<g>
					<g>
						<path fill="#9E2A8C" d="M126.8,206.7c0.3-1.8,0.8-3.5,1.1-5.2c-0.2,1-0.7,2.2-0.1,0.5c0.5-1.2,0.8-1.1-0.1,0
							c2.9-3.5,6.1-6.7,9.4-9.8c0.2-0.2,2.1-1.7,0.9-0.8c0.9-0.6,1.8-1.1,2.7-1.6c-1.3,0.7-0.1,0,0.6-0.2c1-0.3,1.9-0.5,2.9-0.7
							c-1.6,0.3-0.4,0,0.5,0c1,0,2.1,0,3.1,0c0.6,0,2.4,0.2,0.8,0c1.3,0.2,2.5,0.5,3.8,0.8c4.8,1.2,9.7,2.7,14.7,2.4
							c6.6-0.4,11.4-3.3,16.3-7.5c7.1-6.2,14.4-12.6,16-22.4c1.3-7.7-2-16.5-10.5-18.5c-7.2-1.6-17.1,2.2-18.5,10.5
							c-0.2,1-0.3,1.9-0.6,2.9c0.7-1.9,0.2-0.1-0.4,0.1c0.8-0.3,0.9-0.9-0.4,0.1c-0.7,0.6-1.4,1.3-2.1,1.9c-1.4,1.2-2.9,2.4-4.3,3.7
							c-1.5,1.3-0.9,0.2,0,0.1c1.3-0.3,2.5-0.6,3.8-0.9c-0.5,0-1,0-1.5,0c0.9,0.7,0.7,0.1-0.7-0.3c-1-0.3-2.1-0.6-3.1-0.8
							c-2-0.5-4.1-1-6.2-1.3c-6.2-0.9-11.8-1.1-18,0.1c-10.2,1.9-18.4,8.2-25.4,15.5c-6.6,6.9-12.4,13.8-13.8,23.6
							c-1.2,7.7,1.9,16.5,10.5,18.5C115.4,218.8,125.5,215,126.8,206.7L126.8,206.7z"/>
					</g>
				</g>
				<g>
					<g>
						<path fill="#9E2A8C" d="M260.3,352.1c1.1-0.4,2.2-0.7,3.3-0.9c-1.6,0.1-1.5,0.2,0.3,0.1c-1.6-0.3-1.5-0.3,0.5,0.2
							c1.1,0.3,2.3,0.6,3.4,1c2.2,0.7,4.4,1.3,6.5,2.1c1.1,0.4,2.2,0.8,3.3,1.2c-1.1-0.4-0.9-0.3,0.6,0.4c0.8,0.4,1.6,0.9,2.3,1.4
							c-1.3-1-1.3-1,0,0.1c0.6,0.6,1.2,1.2,1.8,1.9c-1-1.4-1-1.3,0,0.1c0.3,0.5,2.7,5.3,1.5,2.3c0.7,1.7,1.2,3.5,1.7,5.3
							c2.5,10.3,4.3,20,15,25.1c1.6,0.7,3.2,1.4,4.8,2c-1.3-0.5-1-0.4,0.8,0.4c2.7,1.2,5.4,2.5,8.3,3.3c5.9,1.7,12,1.8,17.8,0.1
							c7.8-2.2,12.6-10.6,10.5-18.5c-2.1-7.8-10.6-12.7-18.5-10.5c-1.9,0.6-2.3,0.7-1,0.2c1.3,0.2,1,0.1-0.9-0.3
							c-1.7-0.6-1.7-0.6-4.2-1.7c-1.6-0.7-3.2-1.4-4.9-2.1c1.5,0.7,1.5,0.6,0-0.2c1.4,0.8,2.5,1.9,3.1,3.3c-0.3-1-0.5-2.1-0.8-3.1
							c-1.8-8.2-3.8-16.1-8.9-23c-6.3-8.6-14.5-13.3-24.4-16.8c-10-3.6-19.6-5.6-30-2.4c-7.7,2.4-12.7,10.5-10.5,18.5
							C243.9,349.2,252.5,354.4,260.3,352.1L260.3,352.1z"/>
					</g>
				</g>
				<g>
					<g>
						<path fill="#DB8F5D" d="M263.3,133.5c-0.7,0.9-1.7,1.4-2.8,1.7c1.7-0.4,1.5-0.4-0.4-0.2c1.3-0.1,2.6-0.1,3.9-0.1
							c0.9,0,1.8,0.1,2.7,0.2c-1.7-0.2-1.7-0.2,0.1,0.1c1.3,0.3,2.6,0.5,3.9,0.9c6.6,1.6,12.3,3.5,17.6,6.2c2,1,3.9,2.1,5.8,3.4
							c-2-1.3,0.9,0.8,1.3,1.2c-2.1-2,0.8,1.5,1.3,2.3c-1.5-2.7,0.2,0.6,0.4,1.3c0.5,1.7,0.8,3.5,1.2,5.3c0.8,3.5-0.1-1.9,0.2,1.4
							c0.3,3.3,0.5,6.6,0.7,9.9c0.5,8.9,1.6,18.3,6.5,26c5,7.8,14.4,15.8,23.7,17.1c9.9,1.3,17.9-3.6,26.4-8
							c7.7-4,12.6-6.9,20.4-8.6c7.9-1.7,12.5-10.9,10.5-18.5c-2.2-8.2-10.5-12.2-18.5-10.5c-9,2-17.3,6.2-25.3,10.4
							c-3.5,1.8-6.9,3.8-10.5,5.5c1.2-0.4,1-0.3-0.7,0.2c1.4-0.4,2.8-0.2,4.2,0.4c0,0.1-3.8-2.6-2-1.2c-0.8-0.7-1.6-1.4-2.3-2.1
							c-1.2-1.3-1.4-1.5-0.5-0.6c-0.8-1.6-1-1.8-0.4-0.7c-0.3-1-0.6-2.1-0.9-3.1c-1.1-4.3,0,2-0.4-2.5c-0.2-2-0.3-4-0.4-6
							c-0.4-7.3-0.9-14.8-2.9-21.9c-2.2-7.8-6.3-15.1-12.6-20.2C306,117,297,113,288,109.9c-15.1-5.2-32.5-8.6-45.9,2.3
							c-6.3,5.1-5.3,15.9,0,21.2C248.3,139.7,257,138.6,263.3,133.5L263.3,133.5z"/>
					</g>
				</g>
				<g>
					<g>
						<path fill="#DB8F5D" d="M109.9,393c0.6,1.9,0.7,2,0.3,0.4c0.3,2,0.4,2.1,0.3,0.3c-0.3,1.6-0.3,1.8-0.1,0.7
							c0.1-0.7,0.3-1.4,0.5-2c0.5-1.8,1.1-3.6,1.8-5.4c-0.9,2.4,0.4-0.8,0.7-1.4c1.4-2.9,2.8-5.7,4.4-8.5c1.8-3,3.9-6.3,5.5-8.2
							c1.1-1.3,2.3-2.4,3.3-3.7c1.4-1.3,1.6-1.5,0.4-0.6c0.6-0.4,1.2-0.8,1.8-1.1c0.9-0.5,0.8-0.5-0.4,0.1c0.9-0.3,1.8-0.6,2.7-0.8
							c3-1.1-1.3-0.2,1.7-0.3c3.4-0.1,6.8-0.1,10.3,0.3c0.5,0.1,5.3,0.6,3.7,0.4c-1.1-0.1-0.8-0.1,0.7,0.1c1.8,0.2,3.7,0.5,5.5,0.7
							c8.4,1,16.8,0.9,24.6-2.6c8.2-3.6,17.1-11.1,20-19.9c2.9-8.7-0.1-17-2.6-25.3c-2.2-7.5-4.8-15.5-5-22.1
							c-0.2-7.8-6.8-15.4-15-15c-8,0.4-15.2,6.6-15,15c0.2,9.5,2.6,18.5,5.3,27.5c1.2,4,2.2,8,3.5,11.9c0.8,2.4,0,0.2,0.3-1.2
							c2.1-3.1,2.4-3.7,0.7-1.7c-0.7,0.7-1.5,1.5-2.2,2.1c-0.4,0.3-0.8,0.7-1.2,1c0.9-0.8,0.6-0.7-0.8,0.3c3-1.2-4.4,0.8-1.3,0.5
							c-1.6,0.2-3.3,0.1-4.9,0.1c-0.6,0-6.4-0.6-3.9-0.3c-7.5-0.9-15.1-2.4-22.7-1.9c-9.3,0.7-17.9,3.3-25.1,9.5
							c-6.4,5.5-11.5,12.8-15.7,20c-7.9,13.6-16,31.1-7.9,46.3c3.8,7.1,13.7,9.4,20.5,5.4C111.7,409.3,113.7,400.2,109.9,393
							L109.9,393z"/>
					</g>
				</g>
				<g>
					<g>
						<path fill="#DB8F5D" d="M109.9-5c0.6,1.9,0.7,2,0.3,0.4c0.3,2,0.4,2.1,0.3,0.3c-0.3,1.6-0.3,1.8-0.1,0.7
							c0.1-0.7,0.3-1.4,0.5-2c0.5-1.8,1.1-3.6,1.8-5.4c-0.9,2.4,0.4-0.8,0.7-1.4c1.4-2.9,2.8-5.7,4.4-8.5c1.8-3,3.9-6.3,5.5-8.2
							c1.1-1.3,2.3-2.4,3.3-3.7c1.4-1.3,1.6-1.5,0.4-0.6c0.6-0.4,1.2-0.8,1.8-1.1c0.9-0.5,0.8-0.5-0.4,0.1c0.9-0.3,1.8-0.6,2.7-0.8
							c3-1.1-1.3-0.2,1.7-0.3c3.4-0.1,6.8-0.1,10.3,0.3c0.5,0.1,5.3,0.6,3.7,0.4c-1.1-0.1-0.8-0.1,0.7,0.1c1.8,0.2,3.7,0.5,5.5,0.7
							c8.4,1,16.8,0.9,24.6-2.6c8.2-3.6,17.1-11.1,20-19.9c2.9-8.7-0.1-17-2.6-25.3c-2.2-7.5-4.8-15.5-5-22.1
							c-0.2-7.8-6.8-15.4-15-15c-8,0.4-15.2,6.6-15,15c0.2,9.5,2.6,18.5,5.3,27.5c1.2,4,2.2,8,3.5,11.9c0.8,2.4,0,0.2,0.3-1.2
							c2.1-3.1,2.4-3.7,0.7-1.7c-0.7,0.7-1.5,1.5-2.2,2.1c-0.4,0.3-0.8,0.7-1.2,1c0.9-0.8,0.6-0.7-0.8,0.3c3-1.2-4.4,0.8-1.3,0.5
							c-1.6,0.2-3.3,0.1-4.9,0.1c-0.6,0-6.4-0.6-3.9-0.3c-7.5-0.9-15.1-2.4-22.7-1.9c-9.3,0.7-17.9,3.3-25.1,9.5
							c-6.4,5.5-11.5,12.8-15.7,20c-7.9,13.6-16,31.1-7.9,46.3c3.8,7.1,13.7,9.4,20.5,5.4C111.7,11.3,113.7,2.2,109.9-5L109.9-5z"/>
					</g>
				</g>
			</g>
		</g>
	</g>
</g>
<g id="Layer_3">
	<g>
		<defs>
			<rect id="SVGID_3_" x="465" width="200" height="200"/>
		</defs>
		<clipPath id="SVGID_4_">
			<use xlink:href="#SVGID_3_"  overflow="visible"/>
		</clipPath>
		<g clip-path="url(#SVGID_4_)">
			<line fill="none" stroke="#000000" stroke-width="19" stroke-miterlimit="10" x1="405.5" y1="183.6" x2="654.5" y2="-65.4"/>
			<line fill="none" stroke="#000000" stroke-width="19" stroke-miterlimit="10" x1="394.5" y1="128.3" x2="643.5" y2="-120.7"/>
		</g>
	</g>
</g>
</svg>
