<?xml version="1.0" encoding="utf-8"?>
<!-- Generator: Adobe Illustrator 19.2.0, SVG Export Plug-In . SVG Version: 6.00 Build 0)  -->
<svg version="1.1" xmlns="http://www.w3.org/2000/svg" xmlns:xlink="http://www.w3.org/1999/xlink" x="0px" y="0px"
	 viewBox="0 0 200 200" enable-background="new 0 0 200 200" xml:space="preserve">
<g id="Layer_1">
</g>
<g id="Layer_2">
	<g>
		<defs>
			<rect id="SVGID_1_" x="-465" width="400.6" height="400.6"/>
		</defs>
		<clipPath id="SVGID_2_">
			<use xlink:href="#SVGID_1_"  overflow="visible"/>
		</clipPath>
		<g clip-path="url(#SVGID_2_)">
			<g>
				<line fill="none" stroke="#4D4D4D" stroke-miterlimit="10" x1="-405" y1="-108" x2="51" y2="348"/>
				<line fill="none" stroke="#4D4D4D" stroke-miterlimit="10" x1="-381" y1="-140" x2="75" y2="316"/>
				<line fill="none" stroke="#4D4D4D" stroke-miterlimit="10" x1="-352" y1="-168" x2="104" y2="288"/>
				<line fill="none" stroke="#4D4D4D" stroke-miterlimit="10" x1="-328" y1="-203" x2="128" y2="253"/>
				<line fill="none" stroke="#4D4D4D" stroke-miterlimit="10" x1="-437" y1="-84" x2="19" y2="372"/>
				<line fill="none" stroke="#4D4D4D" stroke-miterlimit="10" x1="-317.7" y1="596.8" x2="138.3" y2="140.8"/>
				<line fill="none" stroke="#4D4D4D" stroke-miterlimit="10" x1="-349.7" y1="572.8" x2="106.3" y2="116.8"/>
				<line fill="none" stroke="#4D4D4D" stroke-miterlimit="10" x1="-293.7" y1="628.8" x2="162.3" y2="172.8"/>
				<line fill="none" stroke="#4D4D4D" stroke-miterlimit="10" x1="-401.7" y1="512.8" x2="54.3" y2="56.8"/>
				<line fill="none" stroke="#4D4D4D" stroke-miterlimit="10" x1="-433.7" y1="488.8" x2="22.3" y2="32.8"/>
				<line fill="none" stroke="#4D4D4D" stroke-miterlimit="10" x1="-377.7" y1="544.8" x2="78.3" y2="88.8"/>
			</g>
			<g>
				<g>
					<g>
						<path fill="#7FB293" d="M-97,45c8,0.5,15.7-2,23.4-3.8c3.2-0.7,5.5-0.8,9.9-0.7c1.8,0,3.6,0.2,5.4,0.2c2,0.1,2.3,0.1,1,0
							c-1.2-0.2-1-0.1,0.6,0.3c-2.3-1.5,1.3,0.8,1.7,1.1c1.5,1,1.7,1.1,0.6,0.4c0.5,0.5,1,0.9,1.5,1.5c0.7,0.8,0.6,0.6-0.3-0.5
							c0.5,0.7,0.9,1.5,1.3,2.3c1.6,2.5-0.3-1.6,0.7,1.5c1,3,1.8,6.1,2.5,9.2c0.3,1.6,0.6,3.3,0.9,4.9c0.1,0.8,0.6,4.8,0.2,1.2
							c0.9,8.7-0.5,15.1-1,22.9c-0.7,9,2.9,17.9,9.6,23.9c12.2,11.1,27.9,10.4,43.3,10.3c7.8-0.1,15.4-6.9,15-15
							c-0.4-8.1-6.6-15.1-15-15c-3.5,0-6.9,0.2-10.4,0.2c-1.5,0-3,0-4.5-0.1c-0.3,0-4.8-0.6-1.9-0.1c-1-0.2-1.9-0.4-2.8-0.6
							c-1.5-0.5-1.8-0.6-0.9-0.2c2.1,0.8-4.4-1.9-1.5-0.7c-0.4-0.4-0.8-0.7-1.2-1.1c0.6,1.1,0.5,0.9-0.3-0.6c0.2,1,0.5,3.3,0.6,0.5
							c-0.1,2.9,0.3-1.9,0.4-2.5c0.4-2.8,0.8-5.6,1-8.4c0.3-3.9,0.3-7.8-0.1-11.7c-0.7-7-1.7-14.1-3.5-20.8c-4-14.8-14.4-29-30.4-32
							C-60,9.8-69.7,10-78.4,11.6c-3.2,0.6-6.4,1.5-9.6,2.3c-1.6,0.4-3.3,0.9-4.9,1.1c1.8-0.3-3.3,0-4.1,0c-7.8-0.5-15.3,7.3-15,15
							C-111.6,38.6-105.4,44.4-97,45L-97,45z"/>
					</g>
				</g>
			</g>
		</g>
	</g>
</g>
<g id="Layer_3">
	<g>
		<defs>
			<rect id="SVGID_3_" width="200" height="200"/>
		</defs>
		<clipPath id="SVGID_4_">
			<use xlink:href="#SVGID_3_"  overflow="visible"/>
		</clipPath>
		<g clip-path="url(#SVGID_4_)">
			<line fill="none" stroke="#000000" stroke-width="19" stroke-miterlimit="10" x1="-24.5" y1="215.7" x2="224.5" y2="-33.3"/>
			<line fill="none" stroke="#000000" stroke-width="19" stroke-miterlimit="10" x1="0" y1="257" x2="249" y2="8"/>
			<line fill="none" stroke="#000000" stroke-width="19" stroke-miterlimit="10" x1="35.1" y1="289.1" x2="284" y2="40.1"/>
			<line fill="none" stroke="#000000" stroke-width="19" stroke-miterlimit="10" x1="55" y1="336.2" x2="304" y2="87.2"/>
			<line fill="none" stroke="#000000" stroke-width="19" stroke-miterlimit="10" x1="-100.9" y1="91.7" x2="148.1" y2="-157.3"/>
			<line fill="none" stroke="#000000" stroke-width="19" stroke-miterlimit="10" x1="-59.5" y1="183.6" x2="189.5" y2="-65.4"/>
			<line fill="none" stroke="#000000" stroke-width="19" stroke-miterlimit="10" x1="-70.5" y1="128.3" x2="178.5" y2="-120.7"/>
		</g>
	</g>
</g>
</svg>
