<?xml version="1.0" encoding="utf-8"?>
<!-- Generator: Adobe Illustrator 19.2.0, SVG Export Plug-In . SVG Version: 6.00 Build 0)  -->
<svg version="1.1" xmlns="http://www.w3.org/2000/svg" xmlns:xlink="http://www.w3.org/1999/xlink" x="0px" y="0px"
	 viewBox="0 0 200 200" enable-background="new 0 0 200 200" xml:space="preserve">
<g id="Layer_1">
</g>
<g id="Layer_2">
</g>
<g id="Layer_3">
	<g>
		<defs>
			<rect id="SVGID_3_" x="-265" y="0" width="200" height="200"/>
		</defs>
		<clipPath id="SVGID_2_">
			<use xlink:href="#SVGID_3_"  overflow="visible"/>
		</clipPath>
		<g clip-path="url(#SVGID_2_)">
			<line fill="none" stroke="#000000" stroke-width="19" stroke-miterlimit="10" x1="-229.9" y1="289.1" x2="19.1" y2="40.1"/>
			<line fill="none" stroke="#000000" stroke-width="19" stroke-miterlimit="10" x1="-209.9" y1="336.2" x2="39" y2="87.2"/>
		</g>
	</g>
	<g>
		<defs>
			<rect id="SVGID_23_" width="200" height="200"/>
		</defs>
		<clipPath id="SVGID_4_">
			<use xlink:href="#SVGID_23_"  overflow="visible"/>
		</clipPath>
	</g>
</g>
<g id="Layer_4">
	<g>
		<path fill="#FCEE21" d="M0,44.4C0,29.6,0,14.8,0,0c18.5,0,37,0,55.5,0c0,1.5,0,2.9,0.1,4.4c0,0.3,0.4,0.7,0.7,1
			c1.2,1,1.3,1.5,0.6,2.9c-0.2,0.5-0.5,0.9-0.8,1.3c-1.5,2.5-1,3.7,1.8,4.6c0.4,0.1,0.8,0.2,1.2,0.3c2.9,0.6,5.6,0.1,8.2-1.2
			c2.7-1.5,5.3-3.2,7.9-4.9c1.6-1,2.5-2.6,3.1-4.3c0.2-0.4,0-1.1-0.2-1.5c-0.7-1.2-1.7-1.2-2.8-0.3c-0.5,0.5-1.1,1.3-1.9,0.7
			c-1.1-0.8-1.7-0.4-2.4,0.5c-0.3,0.4-0.6,0.9-1,1.3c-0.3,0.3-0.8,0.7-1.1,0.6c-1.3-0.4-2.1,0.3-3,1.2c-0.8,0.9-1.8,0.6-2-0.6
			c-0.1-0.8-0.2-1.6-0.1-2.4c0.1-1.3,0.3-2.5-1.2-3.2c0,0,0-0.1,0-0.2c14.7,0,29.3,0,44,0c0,0.8-0.2,1.7,0,2.5
			c0.4,1.3,1.1,2.5,1.8,3.7c0.2,0.4,0.7,0.7,1.1,0.7c2.3,0.3,4,1.7,6,2.7c2,1.1,4.3,1.6,5.8-0.5c0.2-0.3,0.6-0.6,0.9-0.8
			c1.3-1,2.9-0.8,3.9,0.4c0.3,0.3,0.5,0.7,0.9,1c0.5,0.5,1,0.5,1.4-0.2c0.7-1.2,0.8-2.4,0.4-3.7c-0.6-1.9-1.1-3.9-1.6-5.8
			c4.2,0,8.4,0,12.7,0c-0.2,0.3-0.4,0.6-0.6,0.9c-0.5,0.9-0.4,2,0.6,3c0.7,0.8,1.5,1.3,2.6,0.8c1.6-0.6,1.9-0.6,3.1,0.7
			c1,1.1,2.2,1.8,3.6,2.1c2.5,0.6,3.8-0.1,4.8-2.5c0.2-0.5,0.6-1,1.1-1.3c1.6-1,3.3-2,4.9-3c0.3-0.2,0.4-0.6,0.6-0.9
			c13.2,0,26.5,0,39.7,0c0,66.7,0,133.4,0,200c-66.7,0-133.4,0-200,0c0-5.3,0-10.7,0-16c1.4,1.8,2.4,3.6,0.7,5.9
			c-0.9,1.2-0.3,3.4,0.8,4.3c0.7,0.5,1.4,0.7,2.1,0.1c0.7-0.6,1.5-1.3,2.2-2c0.2-0.2,0.5-0.5,0.5-0.8c0-1.3,0-2.7-0.3-4
			c-0.2-0.8-0.3-1.4,0.2-2.1c0.7-1,0.6-1.7-0.3-2.6c-0.4-0.4-1-0.7-1.4-1.1c-0.7-0.8-1.5-1.5-1.8-2.4c-0.6-1.3-1.2-2.2-2.7-2.3
			c0-3.1,0-6.2,0-9.3c1.9-0.4,3.2-1.6,4.1-3.2c0.1-0.1,0.2-0.4,0.1-0.5c-0.7-1.3-0.2-2.7-0.2-4c0-0.9-0.3-1.6-1.2-2.1
			c-0.4-0.2-0.9-0.6-1.2-1c-0.6-0.7-1.2-1.5-1.7-2.3c0-0.1,0-0.1,0-0.2c0.1-0.2,0.2-0.5,0.2-0.7c0.5-1.7,1.3-3.3,2.9-4.3
			c0.5-0.3,1-0.5,1.5,0.1c0.5,0.7,1,0.7,1.7,0.5c1-0.3,2-0.6,3-0.7c0.6-0.1,1.4,0.1,1.7,0.5c0.2,0.3-0.1,1.1-0.3,1.7
			c-0.2,0.6-0.7,1.3-0.5,1.7c0.6,1.4,0,2.3-0.9,3.3c-0.3,0.3-0.6,0.7-0.7,1.1c-0.1,0.3-0.1,0.9,0.1,1.1c1.2,0.9,0.8,1.8,0.2,2.8
			c-0.5,0.7-0.4,1.4,0.3,2c0.7,0.5,1.4,0.9,2.2,0.3c1.4-1,2.8-2,3.4-3.7c1.1-3.2,2.4-6.3,3.2-9.5c0.8-3.3,0.3-6.6-1.6-9.5
			c-1.3-1.9-2.6-2.1-4.3-0.5c-0.6,0.6-1.3,1.2-2,1.8c-0.6,0.4-1.2,0.6-1.9,0.1c-2.4-1.7-5.7-0.8-6.9,1.8c-0.4,0.8-0.8,1.5-1.3,2.3
			c0-18.8,0-37.6,0-56.4c2.1-1.2,4.3-2.3,6.4-3.6c1.9-1.2,2.8-3.1,3.2-5.3c0.1-0.6-0.2-1.6-0.6-1.8c-0.5-0.3-1.3,0-2,0.1
			c-0.6,0.1-1.1,0.5-1.6,0.4c-1-0.2-1.7,0.1-2.3,0.9c-0.7,1.1-1.7,1.7-3,1.7c0-3.3,0-6.5,0-9.8c1,0.7,2,1.3,2.9,2
			c0.6,0.5,1.1,0.8,1.9,0.5c1.1-0.3,2.3-0.6,3.4-0.7c1-0.1,1.7-0.7,2-1.6c0.4-1.5,0.8-3.1,1.1-4.6c0.1-0.4,0.1-1-0.1-1.1
			C10,66.7,8.8,66,7.6,65.8c-0.5-0.1-1.1,0.6-1.7,1c-0.4,0.2-0.7,0.6-1.1,0.7C3.2,68.2,1.6,69,0,69.7c0-3,0-6.1,0-9.1
			c0.9-0.3,1.9-0.4,2.7-0.8c1.2-0.7,2.2-1.6,3.3-2.5c1-0.8,2-1.3,3.3-1.4c0.8-0.1,1.8-0.1,2.3-0.6c1.6-1.3,3.1-2.8,4.4-4.3
			c0.8-1,0.6-2.2-0.4-2.8c-1.1-0.7-1.5-1.7-1.4-2.9c0.1-1.5-0.9-2.5-1.7-3.5c-0.2-0.2-1-0.2-1.4,0c-0.7,0.5-1.4,1.1-1.9,1.8
			c-0.9,1.2-1.9,2.5-1.6,4.1c0.4,1.7,0.1,3.3-0.1,4.9c-0.1,0.7-0.1,1.4-1,1.5c-0.9,0.2-2.3-0.5-2.6-1.2c-0.8-2-1.6-4-0.6-6.3
			c0.4-0.9,0.5-2-0.4-2.8c-0.8-0.7-1.8-0.2-2.6,0.1C0.3,44.2,0.1,44.3,0,44.4z M75.2,164.1c-0.4-0.9-0.5-2.2-1.1-2.7
			c-0.9-0.7-2.2-1-3.4-1.4c-0.3-0.1-0.8,0.2-1.1,0.5c-0.4,0.3-0.6,0.7-0.9,1.1c-1.1,1.2-2,2.5-3.3,3.4c-1,0.8-2.2,1.3-3,2.4
			c-0.6,0.8-1.3,0.8-2.1,0.3c-0.5-0.3-1.2-0.5-1.9-0.5c-1.6,0-2.4-0.9-2.1-2.4c0.1-0.6,0-1.3,0.1-2c0.1-0.6,0.1-1.3,0.5-1.7
			c1-0.9,1.3-1.7,0.4-2.9c-0.5-0.7-0.1-1.6,0.7-1.5c1.6,0.1,3.3,0,4.8,0.6c1.6,0.6,2.1,0.7,3.3-1c0.4-0.5,0.8-1.4,0.7-2
			c-0.1-0.9-0.7-1.8-1-2.7c-0.4-0.9-1.2-1.3-2.1-1.2c-0.9,0.1-1.5-0.4-2.2-0.8c-1.7-1-3.8-1.2-5.7-1.2c-1.5,0-2.9,0.9-4.4,1.3
			c-0.9,0.3-1.3,0.8-1.5,1.8c-0.1,0.8-0.4,1.8-0.9,2.3c-0.8,0.8-0.8,1.5-0.6,2.6c0.5,2.7,0.6,5.3-1.4,7.5c-0.4,0.5-0.8,1-1.1,1.5
			c-0.5,0.8-0.5,1.5,0.3,2.1c1.3,1.2,1.8,2.7,1.6,4.4c0,0.3,0.1,0.8,0.3,1c1,1,2.2,1.4,3.7,0.9c0.7-0.2,1.4-0.4,2.2-0.3
			c2.9,0.1,5.7-0.3,8.3-1.2c1.4-0.5,2.7-0.7,4.1-0.5c1.1,0.2,2-0.1,2.8-0.7c1-0.8,2-1.7,3.1-2.3C74.3,167.9,75,166.2,75.2,164.1z
			 M162.2,125.2c1.8,0,2.7-0.4,3.1-1.2c0.3-0.7,0.6-1.5,0.9-2.2c0.4-1.1,0.1-1.9-0.6-2.7c-0.4-0.5-0.7-1.2-0.9-1.8
			c-0.5-2-2.2-3.2-3.1-4.9c0-0.1-0.2-0.1-0.3-0.2c-1.2-0.6-2.5-1.3-3.7-2c-1-0.6-1.8-0.6-2.6,0.2c-0.7,0.7-1.6,1.1-2.6,1
			c-0.8-0.1-1.2,0.4-1.6,1.1c-1.6,2.7-3.7,4.6-7,4.7c-0.4,0-0.9,0.1-1.3,0.2c-0.9,0.2-1.4,0.7-1.3,1.7c0.1,1.7-0.7,3.1-1.9,4.3
			c-0.2,0.2-0.5,0.6-0.5,0.9c0.1,1.4,0.6,2.6,2,3.3c0.6,0.3,1.2,0.7,1.7,1.2c1.9,2.1,4.1,3.7,6.6,5c1.3,0.7,2.6,1.4,3.4,2.7
			c0.6,0.9,1.4,1.3,2.5,1.5c1.3,0.1,2.6,0.3,3.8,0.6c2.4,0.7,4.2-0.2,5.7-2c1.2-1.4,1.2-2.1,0.3-3.7c-0.1-0.2-0.2-0.5-0.3-0.7
			c-0.5-1.5-0.8-1.7-2.3-1.5c-0.6,0.1-1.1,0.2-1.6,0.2c-1.3,0-2.7,0.2-4,0c-1.2-0.2-2.3-0.6-3.6-0.4c-1,0.2-1.7-0.2-1.9-1.4
			c-0.1-0.6-0.6-1.2-1-1.6c-1.1-1.1-1-2.2,0.3-3.1c0.6-0.4,1-1,1.5-1.4c0.4-0.3,0.9-0.8,1.3-0.8c1.4,0.1,2.3-0.3,2.5-1.9
			c0.1-0.8,1.1-1.1,1.6-0.5c1.1,1.3,2.3,2.6,3.1,4.1C160.9,124.8,161.3,125.4,162.2,125.2z M79.5,130.5c-1.6,0-3,0.5-4,1.7
			c-0.6,0.7-0.9,1.4-0.4,2.3c0.7,1.1,0.6,1.4-0.7,2c-1.7,0.8-2.9,2.2-3.6,3.9c-1.1,2.5-0.1,4.9,2.5,5.7c0.9,0.3,1.7,0.8,1.6,1.9
			c0,0.3,0.2,0.7,0.4,1c0.9,1.4,1.8,2.8,2.8,4.1c0.4,0.5,1,0.9,1.6,1c1.3,0.2,2.6,0.1,3.9,0.3c1.7,0.2,3.3,0.1,4.8-0.7
			c1.2-0.7,1.9-0.2,2.1,1.2c0.1,0.8,0.5,1.3,1.3,1.4c0.5,0.1,0.9,0.2,1.4,0.2c1.7,0.1,3.4,0.2,5.1,0.3c0.4,0,0.9-0.1,1.2-0.4
			c1.1-1,2.2-2,3.2-3c0.7-0.7,0.7-1.6,0-2.4c-0.6-0.8-1.1-1.7-1.9-2.3c-1.1-0.9-2.4-1.7-3.7-2.2c-1.3-0.5-3.7,0.7-4.4,2
			c-0.5,0.9-1.3,1.4-2.4,1.2c-1-0.2-2.1-0.3-3-0.6c-0.5-0.2-1.3-0.7-1.3-1.1c-0.2-1.2-0.8-1.6-1.9-1.6c-1,0-1.3-0.4-1-1.4
			c0.1-0.4,0.1-1.2-0.2-1.4c-1.3-0.8-1.9-2.2-2.6-3.4c-0.3-0.4-0.3-1-0.4-1.6c0.6,0.1,1.1,0.2,1.7,0.3c0.8,0.2,1.5,0.6,2.3,0.9
			c1.1,0.4,2.3,0.7,3.4,1.3c2.1,1.2,3.2,1.2,5.2-0.3c1.3-1,1.2-2.5,0-3.5c-0.5-0.4-1-1-1.3-1.6c-0.8-1.5-2.7-2.5-4.2-2.1
			c-2.2,0.6-3.4,0.2-4.7-1.8C81.4,130.8,80.6,130.4,79.5,130.5z M181.1,120.1c0,0,0,0.1,0,0.1c-0.4,0-0.7,0-1.1,0.1
			c-3.9,0.3-5.6,3.1-4.1,6.7c0.3,0.7,0.3,1.3-0.3,1.9c-0.3,0.4-0.5,0.9-0.6,1.4c-0.3,1.3-0.5,2.5-0.8,3.8c-0.3,1.3-0.4,2.5,0.9,3.4
			c0.3,0.2,0.5,0.5,0.7,0.7c1.5,1.9,2.9,3.9,5.5,4.6c1.1,0.3,1.2,1.1,0.4,2c-0.8,0.9-0.6,1.7,0,2.5c0.4,0.5,0.8,0.9,1.3,1.4
			c0.8,0.9,1.7,1.7,2.4,2.7c0.5,0.7,1.1,1.1,1.9,1.1c1.1,0.1,2.2,0.1,3.3,0.1c1.7,0,2.4-0.6,2.4-2.3c0.1-1.7,0.8-3.4-0.4-4.9
			c-0.1-0.1,0-0.2,0-0.3c-0.2-2.1-2.5-3.7-4.6-3.2c-1.4,0.4-2.1,0.1-3-1.1c-0.5-0.8-1.1-1.5-1.5-2.3c-0.2-0.5-0.4-1.4-0.1-1.8
			c0.7-1,0.5-1.7-0.3-2.4c-0.7-0.7-0.7-1.2,0.3-1.7c0.4-0.2,1-0.8,0.9-1.1c-0.5-1.6,0.4-3.1,0.6-4.6c0.1-0.4,0.5-0.7,0.8-1.1
			c0.3,0.4,0.6,0.7,0.8,1.1c0.5,1,0.9,2,1.4,3c0.4,0.9,0.9,1.9,1.2,2.8c0.5,2,1.6,3.1,3.7,3.4c1.9,0.3,2.9-0.7,2.7-2.7
			c-0.1-0.4,0-1,0.2-1.4c0.8-2.2,0.2-3.9-1.9-5.2c-0.6-0.4-1.2-1-1.4-1.7c-0.2-0.9,0-1.8-0.1-2.7c-0.1-0.7-0.1-1.6-0.5-2.1
			c-1.1-1.5-2.7-2.2-4.5-2.1c-0.9,0.1-1.7,0.5-1.8,1.5c-0.2,1.1-0.8,1.2-1.7,0.9C182.7,120.5,181.9,120.3,181.1,120.1z M63.2,115.6
			c-1.8-0.1-2.7,0.4-4,1.6c-1,1-1.1,2.1-0.5,3.3c0.6,1.2,1.2,2.4,2.9,2.2c1.2-0.1,1.9,0.6,2.3,1.6c0.4,1,0.2,1.9-0.7,2.7
			c-0.5,0.5-1,1.2-1.2,1.9c-0.6,1.4-1.7,2.1-3.2,1.9c-0.4-0.1-0.9,0-1.3,0.1c-1.9,0.4-3.1-0.3-3.8-2.1c-0.3-0.8-0.7-1.6-1.2-2.2
			c-1.5-1.5-1.5-2.1,0.1-3.5c0.4-0.3,0.8-0.6,1.2-1c0.5-0.6,1.1-1.2,1.5-1.9c0.4-0.8,0.4-1.8-0.4-2.3c-0.5-0.3-1.4-0.2-2-0.1
			c-1.1,0.2-2.2,0.8-3.3,0.9c-2.4,0.2-4.4,1.2-5.9,3.1c-1.4,1.8-1.2,2.6,0.8,3.7c1.8,1,3.4,2.6,2.7,5c-0.1,0.4-0.2,0.8-0.1,1.2
			c0.1,1.7,0.3,3.4,1.7,4.6c0.5,0.5,1.1,1.1,1.4,1.7c0.6,1.1,1.5,1.7,2.6,1.2c1-0.4,1.9-1.1,2.6-1.8c1-1,2-1.5,3.4-1.4
			c0.9,0.1,1.9,0.1,2.7-0.3c1-0.6,1.9-0.8,3.1-0.6c1.3,0.2,2.3-0.1,2.9-1.5c0.1-0.3,0.4-0.7,0.7-0.9c3.1-2.2,2.4-5.7,3.1-8.7
			c0-0.1,0-0.2-0.1-0.3c-0.7-1.5-0.3-2.9,0.6-4.1c0.6-0.8,0.9-1.7,0.2-2.6c-0.7-0.9-1.7-1.4-2.9-1.1c-0.5,0.1-1.1,0-1.7-0.1
			c-0.9-0.1-1.8-0.3-2.7-0.4C64,115.4,63.5,115.6,63.2,115.6z M173.1,88.3c-0.1,0-0.3,0-0.4,0c-2.9,0.1-3.4,0.7-2.7,3.5
			c0.6,2.4,0.3,3.8-1.7,5.1c-0.2,0.1-0.4,0.3-0.6,0.5c-1.5,1.5-2.9,3-2.3,5.4c0.1,0.4-0.1,0.9-0.3,1.4c-0.6,1.5-0.1,2.7,1.4,3.2
			c0.6,0.2,1.2,0.3,1.7,0.2c2-0.2,3.5,0.4,4.7,2c0.3,0.4,0.9,1,1.4,1c1.4,0.2,2.2,1.1,3.1,2.1c0.4,0.4,1,0.8,1.6,0.9
			c1.3,0,2.6-0.2,3.9-0.3c2.9-0.2,4.4-2.7,6.7-3.9c0.1-0.1,0.2-0.2,0.2-0.4c0.6-1.5,1.7-2.1,3.2-2.4c1-0.2,1.9-0.5,2.1-1.7
			c0.1-1.2-0.2-2.3-1.4-2.9c-0.3-0.2-0.8-0.5-0.9-0.8c-0.3-1.7-1.7-2.3-2.6-3.4c-1.1-1.3-2.4-1.6-4-1.6c-1.5,0-2.3,0.7-2.7,2
			c-0.5,1.3-0.9,2.5,0.4,3.6c0.9,0.7,1,1.7,0.5,2.7c-0.5,1-1.2,1.6-2.4,1.6c-0.7,0-1.5,0.1-2.1,0.4c-1.5,0.6-2.7,0.4-3.7-0.9
			c-0.2-0.3-0.6-0.6-0.9-0.8c-1.8-1.2-2.1-2.4-1.3-4.3c0.3-0.6,0.6-1.3,0.6-2c0.1-2.6,0.5-3,3.1-2.7c0.4,0,0.8,0.2,1.2,0.1
			c0.8-0.1,1.6,0,2.2-0.4c0.6-0.4,1.2-1.2,1.2-1.9c0.1-0.4-0.7-1.1-1.3-1.4c-1.2-0.8-2.5-1.4-3.6-2.3
			C176.3,88.9,174.8,88.3,173.1,88.3z M130.5,132.6c-0.6,0.5-1.1,0.9-1.6,1.3c-0.5,0.4-0.8,1.1-1.3,1.2c-1.2,0.3-1.7,1.1-2.2,2
			c-0.8,1.4-1.1,2.8-1.1,4.3c0,0.7-0.3,1.6-0.8,2c-0.9,0.7-1.9,1.2-3,1.6c-1.5,0.5-2.2,1.4-1.5,2.8c1.1,2.1,2.6,3.9,5.1,4.3
			c0.7,0.1,1.4,0.5,2.1,0.8c0.6,0.3,1.2,0.8,1.9,0.9c0.6,0.1,1.5,0.2,1.9-0.2c0.4-0.4,0.7-1.4,0.6-2c-0.2-0.9-0.9-1.7-1.4-2.6
			c-0.3-0.4-0.8-0.7-1.2-1.2c-0.6-0.8-0.6-2,0.3-2.4c1.4-0.7,2.2-1.9,3-3.2c0.5-0.9,1.3-1.2,2.4-0.9c0.9,0.2,1.7,0.5,2.6,0.5
			c1.4,0,2.2,0.7,2.7,1.9c0.5,1,1,2,1.5,3.1c0.2,0.4,0.3,1,0.1,1.5c-0.4,1.4-1.6,2.2-3.1,2.1c-0.6,0-1.3-0.1-1.7,0.2
			c-0.8,0.7-1.5,1.5-2.1,2.4c-0.2,0.3-0.2,1-0.1,1.4c0.9,2.3,5.3,4.4,7.7,3.5c0.8-0.3,1.5-0.3,2.2,0.2c1,0.7,1.9,0.2,2.8-0.4
			c0.8-0.5,0.9-1.3,0.7-2.2c-0.1-0.4-0.2-0.8-0.3-1.2c-0.5-1.1-0.2-2.1,0.2-3.3c0.5-1.7,0.6-3.6,0.5-5.4c-0.1-1.8-1.1-3.3-2-4.8
			c-0.8-1.4-1.7-2-3.2-2.1c-0.6,0-1.4-0.1-1.9-0.5c-1-0.8-2-1.2-3.2-1.3c-1.5-0.1-2.6-0.7-3.4-2c-0.3-0.5-0.7-1.1-1.2-1.4
			C132,133.3,131.3,133,130.5,132.6z M95.1,47c-0.3,0.1-0.9,0.2-1.2,0.6c-1.2,1.2-1.4,3.6-0.4,5c0.6,0.9,0.6,1.9,0.1,2.8
			c-0.4,0.8-1,1.3-2,1.3c-1.1,0-2.1,0.1-3.2,0.2c-1.1,0.1-2-0.1-2.7-0.9c-0.6-0.8-1.3-1.6-1.9-2.4c-0.8-0.9-1-1.8-0.3-2.9
			c0.7-1.1,1.2-2.4,1.1-3.8c0-1.1,1-1.8,2.2-1.6c0.5,0.1,1,0.3,1.5,0.5c1.1,0.4,2.3,0.4,3.3-0.2c1.2-0.7,1.4-2,0.3-2.9
			c-0.3-0.3-0.7-0.5-1.1-0.8c-1-0.8-2-1.6-3-2.4c-1.8-1.5-3.9-2.1-6.2-1.8c-1.3,0.2-1.8,1.1-1.4,2.5c0.1,0.2,0.2,0.5,0.2,0.7
			c0.5,2.2,0,3.8-1.6,4.5c-1.8,0.8-2.8,2.2-3.6,3.9c-0.2,0.4-0.2,1-0.2,1.5c-0.1,0.7-0.1,1.5-0.3,2.2c-0.6,1.4-0.3,2.6,1.1,3.2
			c0.7,0.3,1.6,0.5,2.4,0.6c1.6,0.1,2.6,0.8,3.5,2c0.5,0.7,1.1,1.4,1.8,1.7c1.1,0.4,1.8,1.1,2.4,2c0.7,1.2,1.6,1.7,3,1.4
			c0.3-0.1,0.6,0,0.9,0c2.4,0.3,4.6,0,6.3-1.9c0.2-0.3,0.7-0.3,1-0.5c0.6-0.4,1.3-0.8,1.7-1.4c0.6-0.8,1.2-1.4,2.2-1.5
			c0.5-0.1,1-0.2,1.5-0.4c0.9-0.3,1.6-0.9,1.6-1.9c0.1-1-0.1-2-1.1-2.6c-0.4-0.2-0.9-0.6-1-1c-0.2-2-1.7-3-2.9-4.3
			C98.1,47.4,96.8,47.2,95.1,47z M39.5,31.2c0,0.1-0.1,0.2-0.1,0.3c-2-0.1-3.9,0.2-5.3,1.8c-0.3,0.4-0.8,1.1-0.7,1.4
			c0.4,1.1,1,2.2,1.7,3.2c0.3,0.4,1.2,0.5,1.8,0.5c1.1,0.2,1.9,0.7,2.1,1.7c0.2,0.7,0.2,1.7-0.1,2.4c-0.5,1-1.4,1.9-2.1,2.8
			c-0.6,0.8-1.4,1.4-2.5,1.3c-0.8-0.1-1.7-0.1-2.5-0.1c-1.9,0.1-2.2-0.2-2.9-1.9c-0.4-0.9-0.8-1.8-1.5-2.5c-1.5-1.5-1.4-2.5,0.4-3.7
			c0.7-0.5,1.5-1,2-1.7c0.7-0.8,1-1.9,0.3-2.9c-0.7-1-1.7-0.7-2.6-0.4c-1.1,0.3-2.1,0.7-3.2,0.7c-2.3,0-4,1-5.5,2.4
			c-1.7,1.7-1.5,2.9,0.6,4c2.4,1.2,3,2.5,2.5,5.1c-0.3,1.8,0.2,3.4,1,5c0.1,0.2,0.3,0.4,0.6,0.5c1,0.4,1.4,1.1,1.8,2
			c0.3,0.9,1,1.4,1.9,1.2c1-0.3,2.1-0.7,2.8-1.3c1.3-1.2,2.6-1.8,4.4-1.5c0.7,0.1,1.6,0.1,2.3-0.3c1-0.6,2-0.6,3.1-0.4
			c1.3,0.2,2.3,0,3-1.3c0.2-0.4,0.6-0.6,0.9-1c1.5-1.5,2.6-3.2,2.4-5.5c0-0.4,0.2-0.9,0.2-1.3c0.1-0.8,0.2-1.6,0.1-2.3
			c-0.2-0.9-0.2-1.7,0.3-2.5c0.2-0.4,0.4-0.8,0.6-1.2c0.4-0.9,0.6-1.8-0.1-2.6c-0.8-0.9-1.7-1.4-3-0.9c-0.4,0.2-0.9,0.1-1.4,0
			C41.5,31.9,40.5,31.5,39.5,31.2z M120.5,33.2c0.1,0,0.1,0,0.2,0c-0.1-0.4-0.2-0.7-0.4-1.1c-0.3-0.6-0.7-1.2-1.1-1.7
			c-0.6-1-1.1-2.4-2-2.8c-1.6-0.6-2.1-1.7-2.5-3.1c-0.9-2.7-4.7-3.9-7-2.2c-0.6,0.5-1,1-0.6,1.8c0.4,1-0.1,1.6-1,1.8
			c-0.8,0.2-1.6,0.3-2.4,0.5c-2.3,0.7-4.4,2.1-3.8,5.2c0.2,1.3,0.7,2.2,1.8,2.9c0.8,0.5,1.2,1.1,0.7,2.1c-0.2,0.4-0.1,1,0.1,1.3
			c0.7,0.8,0.7,1.7,0.6,2.7c-0.2,1.8,0.8,3.2,2.6,3.7c0.7,0.2,1.6,0.3,2.2,0.7c1.4,1,2.9,1.3,4.6,1.4c0.9,0,1.5,0.5,1.8,1.5
			c0.5,1.2,1.3,2.3,2,3.4c0.2,0.3,0.6,0.5,0.9,0.6c1.1,0.3,2.2,0.6,3.3,0.8c0.3,0.1,0.7-0.1,1-0.3c0.7-0.3,1.4-0.7,2.1-0.9
			c1.1-0.4,1.6-1,1.3-2.2c-0.2-0.7-0.6-1.3-0.9-2c-0.2-0.6-0.6-1.2-0.5-1.8c0.1-1-0.2-1.6-1-2c-1.5-0.9-3.2-1.2-4.9-0.7
			c-2,0.6-4.1-0.1-5.3-1.8c-0.1-0.2-0.2-0.6-0.1-0.8c0.5-1,0.2-1.6-0.7-2.1c-0.7-0.3-0.8-0.8-0.5-1.6c0.2-0.4,0.2-1,0.1-1.4
			c-0.5-1.4-1.1-2.7-1.6-4.1c-0.3-1,0.3-1.6,1.2-1.2c1,0.5,2,1.1,2.7,1.9c1.2,1.4,2.4,2.8,3.9,3.9c1,0.7,1.9,0.4,2.8,0
			c0.9-0.3,0.8-1,0.5-1.8C120.5,33.8,120.5,33.5,120.5,33.2z M15.7,16.6c0.4,0.9,0.6,1.9,1.2,2.5c1.2,1.3,2.7,2.1,4.6,1.4
			c0.9-0.3,1.5-0.1,2,0.8c0.2,0.4,0.8,0.7,1.2,0.8c0.9,0.1,1.6,0.4,2.2,1.1c1.4,1.6,3.1,1.8,4.8,0.5c0.5-0.3,0.9-0.8,1.5-1
			c1.8-0.5,3.3-1.5,4.6-2.9c0.5-0.6,1.2-0.5,1.9-0.3c1.3,0.4,2.6,0.6,4,0.7c0.5,0,1.1-0.3,1.5-0.6c1.5-1.1,3.3-2,3.2-4.3
			c0-0.1,0.1-0.1,0.1-0.2c0.7-1.7,0.4-2.5-1.3-3c-0.5-0.2-1.1-0.1-1.6-0.3c-0.5-0.1-1.1-0.3-1.4-0.6c-0.7-0.9-1.5-1-2.5-0.6
			c-1.6,0.6-2.9,1.6-3.5,3.1c-0.9,2.3-2.7,2.7-4.7,3c-0.3,0-0.7-0.3-0.8-0.5c-0.4-1-1.2-1.1-2-0.7c-0.7,0.3-1.2,0.1-1.5-0.6
			c-0.2-0.4-0.7-1-0.9-0.9c-1.6,0.2-2.7-1.1-4-1.4c-0.3-0.1-0.8-0.6-0.8-0.9c0-0.3,0.4-0.9,0.7-1c1.1-0.3,2.3-0.7,3.4-0.7
			c1.6,0,3.1,0,4.7-0.3c1.2-0.2,1.7-0.9,2.1-1.8c0.4-0.8,0.3-1.5-0.7-1.8c-0.4-0.1-0.7-0.5-1.1-0.7C32.3,5.1,32,5,31.7,4.9
			c-0.6-0.1-1.3-0.2-1.9-0.3c-1.2-0.1-2.7-0.7-3.6-0.3c-1.3,0.6-2.4,0.5-3.6,0c-2.4-1-5.2,0.1-6.2,2.5c-0.6,1.4-0.4,2.2,1,2.9
			c0.7,0.4,0.7,1,0.5,1.6c-0.2,0.6-0.6,1.2-0.9,1.8C16.5,14.3,16.2,15.4,15.7,16.6z M151.3,175.5c0.1,0,0.1,0,0.2-0.1
			c-0.2-0.5-0.2-1.2-0.5-1.6c-0.6-0.8-1.3-1.5-2-2.1c-0.4-0.4-0.9-0.7-1.4-0.8c-1.1-0.1-2.3-0.3-3.4,0c-1.5,0.4-2.1-0.4-2.9-1.4
			c-0.6-0.8-1.3-1.5-2-2.1c-0.8-0.7-1.8-1.2-2.5-2c-1.5-1.8-3.2-1.5-5-0.4c-0.6,0.4-1.3,0.4-2,0.6c-0.5,0.2-1.2,0.2-1.5,0.5
			c-0.7,0.9-1.4,0.8-2.3,0.5c-0.8-0.3-1.7-0.5-2.5-0.4c-3,0.6-4.3,2.9-3.5,5.9c0.2,0.8,0.5,1.6,0.7,2.4c0.3,1.1,0,1.6-1.1,1.8
			c-0.8,0.1-1.2,0.6-1.2,1.3c0,0.8,0.1,1.6,0.4,2.2c1.2,2.4,2.9,3.2,5.5,2.7c1.2-0.3,2.2-0.3,3.1,0.8c0.2,0.2,0.6,0.4,0.9,0.4
			c1.7,0.1,3.4,0.2,5.1,0.2c0.2,0,0.4-0.2,0.6-0.3c0.3-0.2,0.6-0.4,1-0.5c0.7-0.1,1.4-0.3,1.3-1c-0.2-0.9-0.5-2.2-1.1-2.5
			c-1.4-0.7-3.1-0.9-4.7-1.5c-1.3-0.4-2.6-0.9-3.8-1.6c-0.7-0.4-0.7-1.4,0-1.6c1.4-0.4,2.8-0.5,4.2-0.8c0.5-0.1,1.2-0.2,1.5-0.5
			c0.6-0.8,1.2-0.8,2-0.3c0.6,0.4,1.2,0.4,1.8-0.3c0.2-0.3,0.6-0.5,0.9-0.5c1.9,0.1,3.7,1.7,4.2,3.7c0.4,1.7,1.4,3,2.9,3.9
			c0.8,0.5,1.6,0.5,2.5-0.1c0.4-0.3,1.1-0.3,1.7-0.4c0.6-0.1,1.2,0.1,1.7,0c1.6-0.3,2-1,1.7-2.6
			C151.5,176.6,151.4,176.1,151.3,175.5z M168.8,7.2c-0.3,0-0.7,0-1,0.1c-1.6,0.1-2,0.4-2.3,1.9c-0.4,1.5-0.2,2.4,1.2,2.9
			c2.7,1,4.3,3.4,6.7,4.8c0.8,0.5,1,1.3,0.7,2.2c-0.2,0.6-0.4,1.2-0.3,1.8c0,1.1-0.2,1.5-1.3,1.7c-0.7,0.1-1.4,0-2,0.3
			c-1,0.5-1.9,0.3-2.7-0.3c-0.8-0.5-1.6-0.6-2.5-0.1c-1.1,0.6-2,0.1-2-1.1c-0.1-1.5,0-2.9,0-4.4c0-0.4-0.2-1-0.5-1.3
			c-0.5-0.4-1.1-0.7-1.8-0.9c-2-0.5-3.9,1-4,3c0,0.5-0.4,0.9-0.4,1.4c-0.3,1.6-0.5,3.3-0.7,4.9c0,0.1,0.1,0.3,0.2,0.4
			c0.6,1.2,1.2,2.4,1.7,3.7c0.4,0.8,0.9,1.3,1.8,1.4c0.9,0.1,1.8,0.3,2.5,0.7c0.9,0.5,1.6,0.6,2.5,0.3c2.9-0.9,5.8-0.9,8.4,1
			c0.2,0.1,0.5,0.2,0.7,0.4c0.9,0.5,1.5,0.4,2.2-0.4c1-1,2.2-2,3.7-1.9c1.1,0.1,1.6-0.5,1.7-1.3c0.1-0.7,0-1.5-0.2-2.2
			c-0.6-2-1.4-3.9-1.8-5.9c-0.3-1.4-0.9-2.6-1.6-3.9c-0.5-1-1-2.2-1.1-3.4c-0.1-0.9-0.4-1.5-1-2.1c-0.8-0.6-1.6-1.1-2.2-1.8
			C172.1,7.8,170.6,7.1,168.8,7.2z M23.9,104.9c0.1,2.2-0.3,3.9-1.5,5.4c-0.4,0.5-0.7,1-1.1,1.6c-0.5,0.8-0.5,1.4,0.2,2.2
			c1,1.2,1.8,2.6,1.5,4.3c-0.1,0.4,0.3,0.9,0.6,1.2c0.8,0.6,1.7,0.6,2.7,0.4c2-0.5,4-0.8,6-1.2c1.4-0.3,2.7-0.7,4-1.1
			c0.9-0.3,1.8-0.9,2.6-0.8c1.9,0.3,3-0.4,4.1-1.8c0.3-0.3,0.6-0.7,1-0.9c2-1.2,2.6-3.1,2.6-5.3c0-1.6-0.2-2.1-1.7-2.6
			c-1.5-0.5-2.1-0.4-3,0.9c-0.3,0.4-0.5,0.8-0.8,1.2c-0.5,0.7-1,1.4-1.5,2c-0.9,1-1.9,1.8-2.9,2.7c-0.8,0.8-1.5,1.1-2.6,0.5
			c-0.5-0.3-1.1-0.5-1.7-0.5c-1.2,0.1-1.5-0.6-1.6-1.5c-0.1-0.7,0.1-1.4-0.1-2.1c-0.3-0.9-0.1-1.7,0.5-2.4c0.7-0.8,0.9-1.7,0.5-2.7
			c-0.4-1.1,0.1-1.8,1.3-1.7c1.5,0.1,2.9,0.3,4.4,0.4c0.5,0,1.1-0.1,1.5-0.4c1.3-1.2,1.4-2.8,0.7-4.6c-0.3-0.8-0.8-1.1-1.7-1.2
			c-0.7-0.1-1.3-0.5-2-0.7c-1.6-0.4-3.2-0.8-4.8-1.2c-0.1,0-0.3,0.1-0.4,0.1c-1.3,0.4-2.6,0.9-3.9,1.3c-0.9,0.3-1.4,0.8-1.6,1.8
			c-0.1,0.6-0.2,1.4-0.6,1.9c-1.2,1.3-1,2.7-0.8,4.1C23.9,104.5,23.9,104.9,23.9,104.9z M146.4,60.7c0,0.1-0.1,0.2-0.1,0.2
			c-0.7-0.2-1.8-0.3-2.1-0.8c-0.7-1-1.6-1.3-2.7-1.4c-0.4,0-1-0.3-1.2-0.7c-0.2-0.3,0.1-1,0.4-1.3c0.8-0.9,1.8-1.7,2.7-2.4
			c0.5-0.4,0.8-0.8,0.6-1.5c-0.2-0.7,0.1-1.1,0.8-1.3c1.6-0.6,3.1-0.4,4.7,0.1c0.9,0.3,1.7,0.6,1.6,1.9c0,0.3,0.3,0.6,0.3,0.9
			c0.2,0.6,0.5,1.3,0.4,1.9c-0.2,1.3,0.4,2.1,1.4,2.7c0.9,0.6,1.7,1.4,2.5,2c0.2,0.1,0.4,0.3,0.7,0.3c1.8,0.2,3.5-0.1,5-1.4
			c0.4-0.3,0.8-0.6,1.3-0.8c0.8-0.3,1.1-0.8,0.8-1.7c-0.4-1-0.6-2-1.1-2.9c-0.2-0.4-0.8-0.7-1.2-0.9c-0.8-0.3-1.6-0.2-2.3-0.5
			c-2.1-0.9-4.3-1.9-6.3-2.9c-1.4-0.7-2.7-1.6-4-2.6c-0.8-0.6-1.6-0.7-2.5-0.6c-1.2,0.1-2.5,0.1-3.7,0c-0.5,0-0.9-0.2-1.4-0.2
			c-2.3-0.3-5,2.1-4.9,4.5c0,0.9-0.5,1.5-1.3,1.7c-0.9,0.2-1.7,0.3-2.6,0.5c-2.2,0.5-2.9,1.5-2.1,3.7c1.1,3,3.1,5.3,6,6.5
			c3.2,1.4,6.6,2.3,9.9,3.4c1.8,0.6,3.6,0.1,5.3-0.5c0.4-0.1,0.8-0.6,1-1.1c0.3-1.2-0.1-2.3-1.5-2.3c-1,0-1.9-0.3-1.9-1.7
			c0-0.3-0.5-0.7-0.9-0.8C147.5,60.6,146.9,60.7,146.4,60.7z M159.9,150.4c-1.2,0.2-2.2,0.3-3.2,0.6c-0.4,0.1-1,0.5-1,0.8
			c-0.1,0.4,0.3,0.9,0.6,1.2c0.5,0.5,1.1,0.8,1.6,1.4c1.2,1.3,1,3-0.6,3.9c-0.5,0.3-0.9,0.5-1.4,0.7c-1.3,0.8-1.6,1.7-1.2,3.1
			c0.1,0.5,0.4,1,0.6,1.4c0.9,1.7,1.9,3.3,2.8,5c0.3,0.6,0.3,1.3,0.6,1.9c0.2,0.6,0.5,1.5,1,1.7c2,1,4,1.9,6.1,2.6
			c1.3,0.5,2.7,0.3,4-0.2c0.6-0.2,1.4-0.2,2.1-0.1c1.2,0.2,2.4,0.6,3.7,0.7c0.5,0.1,1.2-0.1,1.6-0.5c1.1-0.9,1.4-3.8,0.5-4.8
			c-1-1.2-2.1-2.3-3.3-3.3c-0.8-0.7-1.8-1.4-2.9-0.6c-1.1,0.8-0.7,1.9-0.3,2.9c0.5,1.5-0.9,3.3-2.4,3.4c-0.9,0-1.2-0.5-1.2-1.3
			c0-1.1-0.5-1.8-1.5-2.2c-0.3-0.1-0.6-0.3-0.9-0.4c-1.6-0.7-1.4-2.4-2-3.6c-0.1-0.1,0.1-0.4,0.2-0.6c1-1.4,1-2.9,0.3-4.4
			c-0.8-1.9-0.6-2.5,1.2-3.5c0.6-0.3,1.2-0.4,1.6,0.1c1,1.3,2.5,1.9,3.9,2.7c0.7,0.4,1.1,1.2,1.6,1.9c0.2,0.3,0.3,0.8,0.5,1.1
			c0.8,1.4,3,2,4.3,1.2c0.9-0.6,1.1-2.8,0.5-4c-0.8-1.7-2.2-3-3.6-4.2c-1.4-1.3-3.1-1.9-5-2c-1,0-2-0.5-3-0.8
			C163.6,151.6,161.7,150.9,159.9,150.4z M114.2,61.5C114.2,61.5,114.2,61.5,114.2,61.5c-0.6,0-1.1,0-1.7,0.1
			c-2.2,0.3-2.9,1.1-2.8,3.3c0,0.2,0,0.4,0,0.6c0.1,2.3-1.5,3.4-3.7,2.7c-0.6-0.2-1.1-0.5-1.6-0.7c-1.1-0.3-1.6,0.1-1.4,1.2
			c0.1,0.4,0.2,0.8,0.3,1.2c0.9,2.8,3.2,4.4,5.3,6.2c0.8,0.7,1.6,1.4,2.2,2.3c0.9,1.5,2,2.6,3.6,3.1c1.9,0.6,3.8,1.4,5.9,1.2
			c1.1-0.1,3-1,3.3-1.9c0.3-0.9-0.3-2.5-1.5-3.1c-0.7-0.4-1.7-0.5-2.5-0.4c-1.2,0.2-2.1-0.1-3-0.7c-1.1-0.7-2.4-1.3-3.6-1.8
			c-0.8-0.3-1.2-0.8-1.1-1.6c0.1-1.9,0.4-2.3,2.3-2.5c1.7-0.2,3.1-0.8,3.8-2.5c0.1-0.2,0.4-0.5,0.6-0.6c1.6-0.2,3.1-1,4.6,0.4
			c0.8,0.8,1.8,0.9,2.9,0.3c1-0.5,1.6-0.1,1.8,0.9c0.3,1.7-0.6,3.1-2.4,3.3c-1,0.1-1.7,0.5-1.9,1.5c-0.2,1,0.5,1.6,1.2,1.9
			c1.2,0.5,2.5,0.9,3.7,1.4c2,0.8,3.5,0.2,4.8-1.3c0.9-1.1,1.1-1.8,0.2-3c-0.7-0.9-1.6-1.7-2.3-2.6c-0.5-0.7-0.8-1.5-1.1-2.3
			c-0.4-0.8-0.6-1.8-1.1-2.5c-1.5-2.2-3.9-3.5-6.1-4.9c-0.4-0.2-1.1,0-1.7,0.1c-0.6,0.1-1.2,0.4-1.8,0.5
			C117.7,61.6,116,61.5,114.2,61.5z M66.8,18.8c-2.4,0.6-4.7,1.1-7,1.8c-0.4,0.1-0.9,0.6-1,1.1c-0.3,1.2-1.1,2-1.9,2.9
			c-1.4,1.5-2.6,3.2-3.8,4.9c-0.8,1.2-0.5,2.1,0.5,3.2c0.3,0.3,0.6,0.6,0.9,0.8c1.9,1.3,1.6,3.5-0.4,4.5c-0.3,0.2-0.7,0.3-1,0.5
			c-0.4,0.4-1.1,0.8-1.1,1.3c0,0.3,0.7,0.9,1.2,1.1c2.8,1.4,5.7,0.7,8.7,0.3c1-0.1,2.1-0.3,3.1-0.2c1.7,0.2,3.3,0.1,4.8-0.7
			c1.8-1,3.5-2.1,4.8-3.7c0.6-0.8,1-2.8,0.6-3.6c-0.4-0.8-1.9-1.4-3.1-0.9c-0.8,0.3-1.7,0.9-2.1,1.6c-0.7,1.1-1.5,1.7-2.7,2
			c-1.2,0.4-2.3,1-3.5,1.5c-0.5,0.2-1.1,0.3-1.5,0.1c-1.7-0.9-2-2.2-0.8-3.7c1-1.4,1.3-2.9,0.6-4.5c-0.1-0.3-0.2-0.7-0.1-0.8
			c0.9-1.3,1.3-3.1,3.4-3.2c1.1-0.1,1.8-0.7,2-1.9c0.2-1.1,1-1.4,2-0.8c1.4,0.9,1.8,2.4,0.9,3.9c-0.5,0.8-0.8,1.6-0.2,2.5
			c0.6,0.8,1.6,0.7,2.3,0.3c1.4-0.7,2.8-1.6,4.2-2.5c1.5-1,2-3,1.1-4.9c-0.7-1.5-2.1-1.2-3.4-1.2c-0.8,0-1.6,0.1-2.3,0.1
			c-0.6-0.1-1.3-0.3-1.9-0.5C69.1,19.7,67.9,19.2,66.8,18.8z M127.8,13.7c-1.3,0-2.1,0.7-2,1.8c0.1,0.8,0.1,1.6,0,2.3
			c-0.4,1.9,0.1,3.6,1.1,5.2c1.3,2.2,2.9,2.4,4.9,0.9c0.7-0.5,0.9-1.3,1-2.1c0-1.2,0.6-1.9,1.6-2.5c1-0.5,1.8-0.3,2.7,0.4
			c0.5,0.4,1.1,0.7,1.7,0.8c1.5,0.3,2.3,1.2,2.5,2.7c0.1,0.5,0.2,1.1,0.3,1.6c0.3,1.7-0.1,2.6-1.6,3.5c-0.8,0.5-1.6,1.1-2.4,1.8
			c-0.9,0.8-1.8,1-2.8,0.3c-0.5-0.3-0.8-0.8-1.3-1.2c-0.6-0.5-1.3-1.1-2-1.2c-0.7-0.1-1.7,0-2.2,0.4c-0.7,0.6-0.1,1.5,0.2,2.2
			c0.5,1.2,0.9,2.4,1.4,3.6c0.8,2.2,2.1,3.8,4.2,4.8c1.2,0.5,2.1,0,2.5-1.2c1-3.1,2-3.6,5.2-3.5c2,0.1,3.9-0.3,4.9-2.5
			c0.2-0.5,0.8-0.8,1.3-1.1c1.4-0.8,1.6-2,0.6-3.2c-0.5-0.6-1.2-1-1.8-1.5c-0.5-0.5-1.2-0.9-1.4-1.5c-0.5-1.8-1.3-3.5-1.8-5.2
			c-0.5-1.9-1.2-3.2-3.1-3.8c-0.6-0.2-1.1-0.5-1.6-0.8c-1.8-0.8-3.7-1.2-5.6-0.8c-2,0.4-4,0.8-5.9-0.1
			C128.1,13.7,127.9,13.7,127.8,13.7z M36.3,65.5c-1,0.3-2.2,0.5-3.2,0.9c-2.2,1-2.6,2.6-1.4,4.7c0.5,0.8,1.2,1.1,2.1,1.2
			c2.2,0.4,3,2.8,1.5,4.5c-0.4,0.4-0.8,0.9-0.9,1.4c-0.5,1.7-1.6,2.5-3.4,2.4c-0.5,0-1,0.1-1.4,0.1c-1.6,0.1-2.4-0.4-3.1-1.9
			c-0.4-0.9-0.9-1.8-1.5-2.6C24,75,24,74.1,25.2,73c0.4-0.4,1-0.7,1.4-1.1c0.5-0.5,1-1.1,1.2-1.8c0.1-0.7,0.1-1.7-0.4-2.1
			c-0.3-0.3-1.3-0.1-2,0c-1,0.2-1.9,0.9-2.9,0.9c-2.4,0.1-4.1,1.2-5.6,2.8c-1.2,1.3-1.1,3,0.8,3.7c2.1,0.7,3.4,2.4,2.6,4.8
			C20.1,80.5,20,80.7,20,81c0,1.7,0.1,3.3,1.4,4.6c0.6,0.6,1.3,1.2,1.6,1.9c0.5,1.5,2.1,1.6,3,0.9c0.6-0.4,1.2-0.9,1.6-1.5
			c0.9-1.2,2.1-1.7,3.6-1.6c0.7,0,1.4-0.2,2-0.4c0.8-0.2,1.6-0.6,2.4-0.7c1.3-0.1,2.3-0.4,2.8-1.7c0.2-0.4,0.5-0.8,0.8-1.2
			c1.2-1.8,2.2-3.8,2.1-6.1c-0.1-2.4-0.3-4.7,0.9-6.9c0-0.1,0-0.1,0-0.2c0.1-1.1-0.7-1.9-1.9-1.9c-0.6,0-1.2-0.2-1.8-0.3
			C37.9,65.8,37.2,65.7,36.3,65.5z M125,105.2c1.2,0.3,1.8-0.3,2.3-1.3c0.4-0.8,1-1.6,1.5-2.3c0.6-0.8,1-1.6,0.5-2.5
			c-0.9-1.6-1.9-3.1-2.9-4.6c-0.2-0.3-0.7-0.5-1-0.4c-1.1,0.4-2.2,0.8-3.2,1.4c-0.3,0.2-0.4,0.8-0.5,1.2c-0.2,0.8-0.1,1.6-0.4,2.4
			c-1.1,2.8-2.2,5.6-3.5,8.4c-0.5,1.2-0.6,2.2-0.2,3.4c0.3,1,0.5,2.1,0.5,3.1c-0.1,2.4,1.8,4.9,4.2,5.2c1,0.2,1.6,0.6,2.1,1.5
			c0.4,0.7,0.7,1.4,1.1,2c1,1.5,1.9,1.7,3.5,1c2.4-1.2,4.2-2.9,5-5.5c0.7-2.2,1.4-4.4,2-6.6c0.7-2.4-0.1-4.6-1.4-6.6
			c-0.3-0.5-1.2-0.9-1.7-0.8c-0.5,0.1-0.9,0.9-1.3,1.4c-0.4,0.5-0.5,1.2-0.9,1.5c-0.9,0.6-1,1.3-0.9,2.3c0.1,0.7,0.2,1.6-0.2,2.1
			c-0.5,0.9-0.9,1.7-1,2.8c-0.1,1-0.7,1.3-1.6,0.8c-1.6-0.9-3.1-2.1-4.9-2.9c-1.7-0.8-1.8-2.9-1.5-4.7c0.2-1.6,1.4-2,2.8-2.2
			C124,105.3,124.5,105.2,125,105.2z M152.5,90.3c-1.9,0.2-4,0.1-5.9-1.3c-0.7-0.6-1-1.1-0.5-1.9c0.3-0.4,0.3-1.1,0.3-1.6
			c0.1-1.4,3.1-4.1,4.5-4.2c2-0.1,4-0.3,5.9,0.2c0.2,0.1,0.5,0,0.8,0c1-0.2,1.2-0.6,0.9-1.5c-0.2-0.6-0.5-1.2-0.6-1.9
			c-0.1-1.2-0.8-1.9-1.8-2.4c-1.2-0.6-2.5-0.7-3.8-0.2c-1.3,0.5-2.6,1-3.9,1.5c-0.6,0.2-1.4,0.4-2,0.7c-1.1,0.6-2.2,1.4-3.3,2.1
			c-0.4,0.3-0.8,0.6-1.3,0.9c-0.7,0.4-1.3,0.9-2,1.2c-0.7,0.3-1.2,0.7-0.9,1.5c0.3,0.9-0.1,1.7-0.6,2.4c-0.6,0.8-1.2,1.6-1.8,2.4
			c-0.5,0.7-0.7,1.7,0.2,2.2c1.1,0.6,2.3,1,3.5,1.4c0.5,0.2,1.2,0.1,1.7,0.2c0.8,0.1,1.6,0.3,2.4,0.3c1.2,0,2.1,0.3,2.7,1.4
			c0.7,1.3,1.7,1.5,3.1,1.3c1.1-0.1,2.2,0.2,3.2,0.4c0.5,0.1,1,0.4,1.5,0.6c1.2,0.4,1.9,0.1,2.6-1c0.4-0.7,0.9-0.9,1.6-1.1
			c1.3-0.4,2.5-1.1,3.7-1.8c0.3-0.2,0.3-0.8,0.4-1.2c0.2-0.7,0.2-1.4,0.4-2c0.4-1.2,0-1.9-1.2-2.3c-1.6-0.5-3.6,0.2-4.3,1.9
			c-0.7,1.6-1.9,2.1-3.5,2.1C154.2,90.3,153.5,90.3,152.5,90.3z M96.1,24.6c1.3,0.1,2-0.3,2.5-1.1c0.8-1.4,2-2.4,3.5-2.9
			c0.3-0.1,0.5-0.3,0.8-0.4c1-0.7,1.2-1.4,0.8-2.6c-0.1-0.4-0.3-1.1-0.1-1.4c1.1-1.1,0.8-2.6,1.2-3.8c0.2-0.5-0.2-1.3-0.5-1.8
			c-0.3-0.5-0.8-0.9-1.1-1.5c-0.8-1.4-1.9-1.6-3-0.5c-1.2,1.1-1.5,2.7-0.8,4.4c0.5,1.2,0.4,2.3-0.4,3.3c-1.1,1.2-2.1,2.5-3.1,3.7
			c-1,1.2-2.3,1.9-3.9,2.2c-0.7,0.1-1.1,0-1.4-0.7c-0.3-0.6-0.7-1.2-1.2-1.7c-0.8-0.8-1-5-0.2-5.9c1.3-1.5,2.2-3.3,4-4.4
			c0.2-0.1,0.4-0.4,0.6-0.7c0.6-0.9,0.4-1.4-0.6-1.8c-0.6-0.2-1.2-0.4-1.7-0.7c-0.9-0.6-1.9-0.8-2.8-0.3c-0.9,0.5-1.9,1.2-2.4,2
			c-1,2-1.7,4.1-2.5,6.1c-0.1,0.2,0,0.4-0.1,0.5c-0.2,1.2-0.3,2.4-0.5,3.6c-0.1,0.6-0.1,1.2-0.2,1.7c-0.1,0.8-0.2,1.6-0.4,2.3
			c-0.2,0.7-0.3,1.3,0.4,1.6c1.2,0.6,1.5,1.7,1.7,2.8c0.1,0.6,0.2,1.2,0.4,1.8c0.5,1.6,1.2,1.9,2.8,1.4c2.1-0.7,3.4-2.4,4.9-3.8
			C93.7,25.2,94.6,24,96.1,24.6z M105.9,117.1c-0.1-3.8-1.2-4.8-4.6-4.6c-0.4,0-0.8,0-1.2,0.1c-2.2,0.4-3,1.2-3.4,3.5
			c-0.1,0.5-0.1,1-0.2,1.5c-0.4,2-2.2,2.9-4.1,2.3c-0.5-0.2-1.1-0.1-1.6,0.1c-0.7,0.3-1.3,0.3-1.8-0.4c-0.5-0.8-1.3-1-2.2-1.1
			c-1.1-0.2-2.2-0.5-3.2-0.8c-0.4-0.1-0.8-0.7-0.8-1c0-0.3,0.5-0.9,0.9-0.9c2-0.3,3.5-1.9,5.6-1.9c1,0,1.6-1.2,1.5-2.5
			c0-1.1-0.8-1.4-1.7-1.5c-0.9-0.2-1.9-0.3-2.8-0.6c-1.7-0.4-2.2-0.3-3.2,1.1c-0.6,0.9-1.3,1.3-2.3,1.1c-0.4-0.1-0.9-0.1-1.3-0.2
			c-1.4-0.2-2.4,0.7-2.5,2.1c-0.1,1,0.2,1.8,1,2.3c0.9,0.6,1.2,1.4,1.3,2.5c0.1,1.2,0.4,2.5,0.9,3.6c0.8,1.9,2.4,2.6,4.4,2.4
			c0.8-0.1,1.7,0.2,2.5,0.5c1.8,0.5,3.5,1.2,5.2,1.7c0.4,0.1,1.2,0.1,1.4-0.2c1.2-1.5,3.4-2.1,4-4.1c0.4-1.1,1.1-1.4,2.1-0.9
			c1.6,0.8,2.8,0.4,3.9-0.9c0.3-0.3,0.5-0.7,0.9-0.9C105.7,118.8,105.9,117.8,105.9,117.1z M185.9,64.8
			C185.9,64.8,185.9,64.9,185.9,64.8c0.8,0,1.6,0.2,2.3-0.1c3.2-1.6,3.6-4.8,0.9-7.1c-0.1-0.1-0.3-0.2-0.4-0.3
			c-2.2-1.7-3.5-1.7-5.8,0c-0.3,0.2-0.6,0.5-0.9,0.7c-1.7,1.1-3.7,0.6-4.5-1.3c-0.3-0.7-0.6-1-1.3-1.2c-0.8-0.2-0.9-0.7-1-1.5
			c0-0.7-0.3-1.4-0.6-2c-0.5-1-1.3-2-1.8-3c-0.2-0.4,0-1,0.2-1.4c0.1-0.2,0.8-0.1,1.2,0c1.8,0.8,3.5,1.7,5.3,2.6
			c0.9,0.5,2.1,0.2,2.8-0.6c0.6-0.6,0.7-1.3,0.2-2.1c-0.7-1.1-1.5-2.2-2.2-3.3c-0.5-0.8-1.2-1.2-2.1-0.9c-1.7,0.5-2.7-0.1-3.6-1.5
			c-0.8-1.2-1.6-1.5-2.7-1.1c-1.1,0.4-1.9,1.4-1.7,2.6c0.2,1.3-0.2,2.2-1,3.2c-0.7,0.8-1.3,1.8-1.7,2.8c-0.8,2-0.3,3.6,1.3,4.9
			c0.8,0.6,1.3,1.5,1.6,2.4c0.5,1.4,1.3,2.8,2,4.2c0.5,1,1.4,1.6,2.6,1.4c0.5-0.1,1,0.2,1.5,0.1c0.9,0,1.9,0,2.8-0.3
			c1.4-0.4,2-0.3,2.5,1.1c0.5,1.3,1.4,1.9,2.8,1.8C185.1,64.8,185.5,64.8,185.9,64.8z M15.8,94.3c0.4-2.7-1.6-3.5-3.3-2.8
			c-0.5,0.2-1,0.7-1.3,1.2c-0.5,0.7-1.1,1.1-1.9,1.2c-1.3,0.2-2.5,0.6-3.7,1.2c-1.9,0.9-2.6,2.6-2.1,4.6c0.2,1,0.1,1.9-0.3,2.9
			c-0.5,1.5-0.8,3.1-1.1,4.6c-0.2,1.1,0.1,2.1,1.2,2.7c0.4,0.2,0.7,0.8,1.1,1.1c0.7,0.5,1.4,1.2,2.2,1.5c1.4,0.6,1.7,1,1.2,2.4
			c-0.5,1.4-0.1,2.5,1,3.3c0.4,0.3,0.8,0.5,1.1,0.9c0.9,1.2,2.1,1.2,3.4,1c0.6-0.1,1.3-0.2,1.8-0.4c0.5-0.3,1.1-0.8,1.3-1.3
			c0.6-1.4,0.4-2.9,0-4.3c-0.6-2.1-1.7-2.9-3.8-3c-0.5,0-1,0-1.4-0.1c-2.2-0.3-3.2-1.9-2.7-4c0.1-0.4,0-1-0.2-1.4
			c-0.4-0.7-0.4-1.2,0.2-1.9c0.5-0.6,0.7-1.4,0.9-2.1c0.2-1.1,0.3-2.2,0.5-3.3c0.1-0.4,0.6-1,1-1c0.3,0,0.8,0.5,1,1
			c0.8,1.8,1.6,3.6,2.4,5.4c0.4,0.9,1.6,1.4,2.6,1.2c1.1-0.2,1.3-1,1.3-2c0-1,0.2-2,0.4-3c0.2-1.3,0-2.1-1.2-2.7
			C16.1,96.6,15.6,95.7,15.8,94.3z M88.8,162.9c-1.2,0.5-2.4,0.8-3.4,1.6c-3,2.3-6,4.8-8.9,7.3c-0.7,0.6-0.6,1.3,0.1,1.8
			c0.4,0.3,0.9,0.6,1.4,0.9c2.3,1.4,5.1,2,7.2,3.8c0.4,0.3,1.1,0.4,1.7,0.5c1.1,0.1,2.3,0.1,3.4,0.3c3.2,0.7,6.8-1.2,7.9-4.4
			c0.2-0.7,0.2-1.3-0.5-1.6c-1-0.6-1.5-1.3-1.1-2.4c0.1-0.2,0-0.4,0-0.5c-0.5-1.1-0.2-1.9,0.4-2.9c0.7-1.1,0-2.1-1.2-2.1
			c-1.5,0.1-2.8-0.5-4.1-1.1C90.7,163.6,89.8,163.3,88.8,162.9z M197.5,10.7c-0.1-0.6-0.3-1.3-0.5-2.1c-0.2-0.9-0.3-1.7-0.6-2.6
			c-0.2-0.7-0.3-1.4-0.6-2.1c-1.1-2-3-2.9-5.2-3.5c-1.4-0.4-1.9-0.1-2.3,1.3c-0.2,0.8-0.6,1.3-1.5,1.3c-0.2,0-0.5,0.1-0.6,0.2
			c-0.9,0.8-2,0.9-3.2,0.7c-1.2-0.3-1.7,0.6-1.5,1.9c0.2,1.3,0.4,2.7,0.2,4c-0.3,2.2,0.1,4,1.9,5.4c1.1,0.9,2.3,1.8,3.5,2.5
			c2,1.3,4,2.4,6,3.7c1.6,1,2.2,0.7,2.7-1.1c0.7-3,0.3-6.1,1.6-9C197.5,11.2,197.5,11.1,197.5,10.7z M32.8,198.9
			c2.5,0,4.3-1.5,5-3.8c0.4-1.3-0.6-3.2-2.2-4.2c-1.2-0.8-2.4-0.7-3.4,0.4c-0.4,0.4-0.8,0.9-1.2,1.3c-1,1-3.4,1.1-4-0.1
			c-0.8-1.6-3-2.4-2.8-4.7c0-0.2-0.3-0.5-0.4-0.7c-0.6-1.1-1.2-2.2-1.7-3.3c-0.1-0.3,0-0.8,0.2-1.1c0.1-0.2,0.6-0.2,0.9-0.1
			c1.7,0.7,3.4,1.4,5,2.2c1,0.5,1.8,0.6,2.6-0.2c0.8-0.8,1-1.7,0.5-2.7c-0.4-0.8-1-1.6-1.5-2.4c-0.6-0.9-1.4-1.3-2.5-0.9
			c-1,0.3-1.9,0-2.6-0.8c-0.4-0.5-0.8-1-1.3-1.4c-0.8-0.7-1.9-0.7-3.1,0c-1.1,0.7-1.7,1.6-1.3,2.5c0.6,1.4,0.1,2.3-1.1,3.1
			c-1.3,0.8-2,2-2.5,3.4c-0.8,2.3-0.2,3.7,1.9,4.9c0.5,0.3,1,0.6,1.2,1.1c0.8,1.6,1.4,3.3,2.2,4.9c0.4,1,1.2,1.3,2.3,1.1
			c0.6-0.1,1.2-0.2,1.8-0.1c1.2,0.2,2.2,0,3.3-0.7c1-0.7,1.7-0.4,2.2,0.7C30.9,198.5,31.7,199,32.8,198.9z M63.1,103.7
			c0.2,0,0.4,0,0.7,0c2-0.2,4.4-2.7,4.4-4.5c0-1.4-1.7-3.4-3.1-3.9c-1.6-0.5-2.5,0.4-3.4,1.5c-0.1,0.1-0.2,0.2-0.3,0.3
			c-1.4,1.5-3.6,1.2-4.6-0.5c-0.3-0.5-0.7-1-1.1-1.3c-0.7-0.4-0.9-1-1-1.7c-0.1-0.6-0.4-1.2-0.7-1.7c-0.6-1.1-1.3-2.2-1.7-3.3
			c-0.3-0.9,0.3-1.5,1.1-1.2c1.7,0.7,3.5,1.4,5.1,2.2c1,0.5,1.8,0.5,2.6-0.2c0.8-0.8,1-1.8,0.4-2.8c-0.4-0.8-1-1.5-1.4-2.2
			c-0.6-0.9-1.4-1.3-2.5-0.9c-1,0.3-1.8,0-2.5-0.8c-0.4-0.5-0.8-1-1.3-1.5c-0.9-0.8-2-0.7-3.2,0.1c-1.1,0.8-1.5,1.6-1.1,2.7
			c0.5,1.2,0,2.1-1,2.7c-1.3,0.8-2.1,2-2.6,3.4c-0.9,2.5-0.3,3.8,2,5c0.5,0.3,0.9,0.7,1.1,1.1c0.8,1.6,1.5,3.3,2.2,5
			c0.4,0.8,1,1.1,1.9,1c0.7-0.1,1.5-0.3,2.2-0.1c1.1,0.2,2,0,2.9-0.6c1.2-0.8,1.8-0.6,2.3,0.7C61.1,103.3,61.9,103.8,63.1,103.7z
			 M65.2,186.1c0.6-0.3,1.5-0.5,1.8-1.1c0.3-0.7,0.4-1.7,0-2.4c-0.5-1.1-1.4-2.1-2.2-3.2c-0.2-0.3-0.5-0.5-0.7-0.6
			c-1.2-0.5-2.5-1-3.7-1.3c-0.5-0.1-1.1,0.1-1.7,0.3c-0.8,0.2-1.6,0.6-2.4,0.6c-1.1,0-1.9,0.4-2.6,1.3c-0.5,0.7-0.9,1.5-1.5,2
			c-0.5,0.5-0.7,0.9-0.4,1.5c0.1,0.3,0.1,0.9-0.1,1c-0.3,0.2-0.8,0.2-1.1,0c-1.3-0.7-2.6-1.3-3.7-2.2c-1.3-1.1-2.6-1.3-4.1-1.2
			c-1.7,0.1-2.4,1.6-1.5,3c0.2,0.3,0.4,0.6,0.5,0.9c0.5,1.8-0.3,3.8,0.8,5.6c0.1,0.1,0,0.3,0,0.4c-0.1,1.7,0.5,2.5,2.3,2.7
			c3.2,0.3,5.5-2,4.8-5.9c-0.1-0.5,0-1.3,0.3-1.7c0.3-0.4,1.1-0.5,1.7-0.4c0.7,0.1,1.4,0.5,1.8,1c2.1,2.1,4.7,2.1,7.4,1.8
			c0.6,0,1.4-0.5,1.5-0.9C63,186,63.8,185.7,65.2,186.1z M104.8,106.8c1.4,0.2,2.4-0.5,3.1-1.9c0.6-1.2,1-2.5,1.6-3.8
			c0.5-1,1-2.2,1.8-2.7c3-1.9,3.2-5,3.7-7.9c0.3-1.5-0.5-2.2-2.1-2.5c-0.6-0.1-1.4-0.5-1.7-1c-0.7-1.2-1.6-2-2.9-2.6
			c-1.3-0.6-1.7-0.5-2.2,0.9c-0.1,0.3-0.2,0.6-0.3,0.9c-0.3,1.8-0.8,3.8,0.5,5.3c1.1,1.4,1.8,2.9,2.4,4.4c0.2,0.5,0.3,1.6,0.1,1.7
			c-0.8,0.4-2,0.9-2.5,0.6c-1.6-1.1-3.4-2.1-3.8-4.4c-0.1-0.8-0.4-1.6-0.8-2.3c-0.6-1.1-1.5-1.2-2.4-0.4c-1.7,1.3-2.6,5.1-1.8,7.1
			c0.6,1.4,1.2,2.9,1.7,4.3C100,105.7,101.4,106.8,104.8,106.8z M89.6,192.1c-0.2,2.5,1,3.8,2.5,4.8c1.8,1.2,2.8,1.3,4.5,0
			c1.2-0.8,2.2-1.8,3.4-2.5c0.9-0.6,2.1-0.9,3.1-1.3c0.7-0.2,1.7-0.2,2.2-0.6c1.6-1.3,3.1-2.7,4.5-4.3c0.9-1.1,0.6-2.2-0.5-3.1
			c-0.8-0.6-1.3-1.3-1.1-2.4c0.2-1.6-0.8-2.7-1.7-3.8c-0.2-0.2-0.8-0.3-1.1-0.2c-1.7,0.6-4.3,4.3-3.9,6c0.4,1.7,0.1,3.4-0.1,5
			c-0.1,0.7-0.1,1.6-1,1.6c-0.9,0.1-2,0-2.5-1c-0.9-2-1.7-4-0.7-6.2c0.1-0.2,0.2-0.5,0.2-0.7c-0.1-0.8-0.1-1.8-0.6-2.2
			c-0.5-0.4-1.6-0.3-2.2,0c-2.3,1.1-4,2.8-4.2,5.6C90.3,188.8,89.8,190.7,89.6,192.1z M64.6,52.4c0-2.2-0.5-2.8-2.6-2.7
			c-1.2,0.1-2.2-0.2-3.3-0.8c-1.1-0.7-2.2-0.9-3.5-0.5c-1,0.4-2.1,0.7-3,1.1c-0.5,0.3-1.1,0.8-1.2,1.3c-0.5,2.2-2,3.8-3.3,5.4
			c-1.6,2.1-1.8,4-0.2,6c0.3,0.3,0.6,0.7,0.8,1.1c0.8,1.4,0.3,2.9-1,3.8c-0.6,0.4-1,1.1-1.5,1.6c0.7,0.4,1.3,0.9,2,1.3
			c0.3,0.2,0.7,0.2,1.1,0.2c1.3-0.2,2.6-0.5,3.9-0.6c1.1-0.2,2.3-0.2,3.5-0.4c0.8-0.1,1.8-0.1,2.4-0.6c1.3-1.1,2.4-2.4,3.4-3.7
			c0.7-0.8,0.7-2,0.2-3c-0.4-1-1.7-1.4-2.2-0.4c-1,2.1-2.7,3.2-4.7,4c-0.3,0.1-0.5,0.5-0.8,0.6c-0.4,0.1-0.9,0.2-1.3,0
			c-1-0.4-1.7-2.2-1.1-3.1c1-1.5,0.9-3.1,0.6-4.8c-0.3-1.7,1-3.9,2.5-4.5c1-0.4,1.5-0.9,1.8-1.9c0.2-1.1,1.2-1.3,2-0.5
			c0.9,0.9,1.1,2,0.9,3.3c-0.1,0.5-0.3,1-0.4,1.5c-0.1,1,0.3,1.3,1.2,1.1C62.7,56.6,64.6,54.2,64.6,52.4z M41.1,150.2
			c0-2.3-0.5-2.7-2.7-2.7c-1,0-2-0.3-2.9-0.7c-1.4-0.7-2.8-1-4.3-0.3c-0.8,0.3-1.6,0.5-2.4,0.9c-0.5,0.3-1.1,0.7-1.2,1.2
			c-0.5,2.3-2.2,3.9-3.5,5.7c-1.2,1.8-2,3.9-0.1,5.7c0.3,0.3,0.5,0.6,0.8,1c1,1.5,0.6,3-0.9,4c-0.6,0.4-1,1-1.4,1.4
			c0.6,0.5,1.1,1,1.8,1.4c0.3,0.2,0.7,0.3,1.1,0.2c1.5-0.2,2.9-0.5,4.4-0.7c0.9-0.1,1.8-0.2,2.7-0.3c1-0.1,2.2,0,2.9-0.5
			c1.3-1,2.4-2.4,3.4-3.7c0.7-0.9,0.7-2,0.2-3.1c-0.4-1-1.7-1.2-2.1-0.3c-1,2.1-2.7,3.2-4.7,4c-0.3,0.1-0.5,0.5-0.8,0.6
			c-0.4,0.1-0.9,0.2-1.2,0c-1.2-0.6-1.8-2.2-1.1-3.3c0.9-1.4,0.9-2.8,0.6-4.3c-0.4-1.9,0.8-4.1,2.6-4.9c0.9-0.4,1.4-0.8,1.6-1.8
			c0.1-0.4,0.5-1,0.8-1c0.5,0,1.1,0.2,1.4,0.6c0.8,0.9,0.9,2.1,0.6,3.2c-0.1,0.5-0.3,1-0.3,1.5c0,0.7,0.3,1.1,1.1,0.9
			C39.2,154.5,41.1,152.1,41.1,150.2z M199.8,183.6c0-2.2,0-4,0-5.8c0-0.2-0.4-0.6-0.6-0.6c-0.9-0.1-1.4-0.7-1.8-1.4
			c-1-1.5-2.1-3-3.2-4.4c-0.4-0.6-1.1-0.9-1.8-1.3c-1.1-0.6-1.9-0.4-2.5,0.7c-0.4,0.8-0.7,1.6-1.1,2.4c-0.4,0.9-0.9,1.7-1.9,2
			c-0.8,0.2-0.9,0.8-0.8,1.6c0.1,0.7,0,1.5,0,2.3c0,0.6-0.1,1.2-0.2,1.8c-0.1,1.2-0.2,2.5-0.2,3.7c0,0.4,0,0.7,0.1,1.1
			c0.2,1,0.3,2,0.5,2.9c0.2,1.2,0.4,2.4,0.8,3.6c0.7,2,2.8,2.8,4.8,2.1c0.4-0.2,0.9-0.2,1.4-0.3c1.3-0.1,1.7-0.7,1-1.8
			c-0.3-0.6-0.9-1.2-1.3-1.8c-0.8-1.4-2.1-2.8-2.1-4.2c-0.1-2-0.4-4.4,2-5.7c0.4-0.2,0.7-0.7,1-1.1c0.4-0.6,0.8-0.7,1.4-0.4
			c1.5,0.6,2.7,1.5,3.5,2.9C199,182.2,199.3,182.8,199.8,183.6z M103.2,130.4c0,0.1,0,0.5,0.1,0.9c0.6,2.4,1.1,4.9,1.8,7.3
			c0.1,0.5,0.8,0.9,1.3,1c0.5,0.1,1.2,0,1.7-0.1c1.9-0.3,3.8-0.7,5.7-1.1c0.3-0.1,0.6-0.1,0.8-0.3c1-0.8,2-1.5,2.8-2.3
			c1.1-1.1,1-2.6,0.5-3.9c-0.5-1.3-1.4-2.1-2.9-2c-0.5,0-1.1-0.1-1.4-0.4c-1.2-1-2.3-2.1-3.4-3.2c-0.6-0.6-1.1-0.8-1.9-0.4
			c-0.8,0.4-1.6,0.8-2.5,1C103.8,127.3,103.2,127.9,103.2,130.4z M177.2,82.9c0.2,0,0.4,0,0.7,0c1.7,0,2.7-0.9,3.3-2.3
			c0.6-1.3,0.6-2.6-0.6-3.6c-0.3-0.3-0.6-0.8-0.7-1.2c-0.1-1.6-0.1-3.1-0.2-4.7c0-0.6-0.1-1.2-0.8-1.5c-1-0.4-2.1-0.8-3.1-1.4
			c-1.3-0.8-2.1-0.9-3.2,0.2c-1,1-1.8,2.2-2.6,3.4c-0.9,1.3-1.7,2.8-2.5,4.1c-0.5,0.8-0.5,1.5,0.2,2.2c0.5,0.4,1,0.8,1.6,1.2
			c1,0.6,2.3,1,3.1,1.9C173.7,82.5,175.3,82.9,177.2,82.9z M171,196c0.8-0.1,1.7-0.1,2.5-0.3c0.6-0.1,1.1-0.3,1.6-0.6
			c1.1-0.7,2.2-1.5,3.3-2.3c0.8-0.6,1.7-1,2.5-1.7c0.9-0.7,0.9-1.4,0.3-2.3c-0.7-1.1-1.4-2.3-2.2-3.5c-0.8-1.3-1.6-2.7-2.7-3.8
			c-1.3-1.3-2.2-1.2-3.7-0.3c-0.8,0.5-1.7,0.9-2.6,1.2c-0.8,0.3-1.1,0.7-1,1.5c0,0.6,0.3,1.2,0.1,1.7c-0.6,1.8,0.2,3.9-1.7,5.2
			c-0.1,0.1-0.1,0.3-0.2,0.4C166.6,193.6,168.6,196.1,171,196z M199.7,72.6c0-0.9,0-1.7,0-2.6c-1.4,0.4-2.7,0.9-4,1.3
			c-1.1,0.3-1.8,1-2.3,2c-0.5,0.9-1.1,1.9-1.8,2.6c-2,1.9-2.3,4.7-0.8,7c0.3,0.5,0.4,1.3,0.4,2c-0.1,1-0.5,2-0.7,3
			c-0.2,1.1,0.2,2,1.2,2.4c2.5,1,5,1.2,7.5,0.1c0.2-0.1,0.6-0.4,0.6-0.7c0-2.3,0-4.5,0-7c-0.4,0.3-0.7,0.5-0.9,0.7
			c-0.3,0.2-0.6,0.5-0.9,0.5c-0.9,0.1-1-0.7-1.2-1.3c-0.3-1.6-0.2-3.3-1.3-4.7c-0.1-0.2-0.2-0.5-0.1-0.7
			C195.3,74.9,197.5,72.7,199.7,72.6z M62.2,199.8c0.5-1.8,1.5-3.1,3-4.1c1-0.6,1.9-1.2,3-0.2c0.2,0.2,0.6,0.1,0.8,0.3
			c0.5,0.2,1.2,0.4,1.5,0.8c1,1.1,2.1,1.2,3.4,0.7c0.9-0.3,1.9-0.4,2.9-0.6c0.3-0.1,0.6-0.1,0.8-0.3c1.3-1.2,2.1-2.7,2.2-4.6
			c0-0.5,0.1-1.1,0.3-1.6c0.3-0.8,0-1.3-0.8-1.6c-0.9-0.3-1.8-0.7-2.7-1c-0.7-0.3-1.3-0.1-1.9,0.5c-0.5,0.5-1,1-1.6,1.3
			c-2.1,1-4.2,2-6.3,2.9c-1.5,0.6-3.1,0.9-4.6,1.4c-0.7,0.2-1.5,0.6-1.7,1.2c-0.8,1.6-1.9,2.7-3.3,3.7c-0.4,0.3-0.8,0.8-1.4,1.3
			C57.9,199.8,60,199.8,62.2,199.8z M30.6,138.6c0.2-0.2,0.6-0.4,1.1-0.7c0.4-0.3,0.8-0.8,1.3-0.9c1.2-0.4,2.3-0.8,2.4-2.3
			c0-0.2,0.2-0.3,0.3-0.5c0.9-0.8,0.8-1.8,0.2-2.7c-0.5-0.7-1-1.4-1.6-1.9c-1.1-0.9-2.2-2-3.4-2.6c-1.2-0.6-2.7-0.9-4-1.3
			c-0.1,0-0.2,0-0.3,0.1c-1.2,0.4-2.4,0.8-3.5,1.3c-1.3,0.5-1.7,1.8-0.7,2.7c1.3,1.2,1.4,2.6,1,4.1c-0.1,0.4,0,1.1,0.2,1.2
			c2.3,1.2,4.6,2.4,6.9,3.5C30.2,138.6,30.3,138.6,30.6,138.6z M93.4,79.7c-0.4-1.4-0.8-2.6-1-3.9c-0.2-1.2-0.9-1.5-1.8-1.7
			c-2.1-0.3-4.2,1-5,3.1c-0.4,0.9-0.7,1.8-0.9,2.7c-0.5,1.8,0.2,3,1.9,3.6c0.3,0.1,0.6,0.2,0.9,0.2c1,0.2,1.4,0.8,1.2,1.8
			c-0.1,0.6-0.3,1.2-0.5,1.7c-0.5,1.3-1.1,2.5-1.7,3.7c-0.3,0.8-0.4,1.7,0.4,2.1c0.5,0.3,1.4,0.2,1.9,0c1.2-0.5,2.3-1.3,3.4-1.9
			c1.4-0.8,2.1-2.1,2-3.7c-0.1-1.5-1.2-2.3-2.4-3c-1.1-0.7-1.2-0.9-0.3-1.8c0.3-0.4,0.8-0.7,1.1-1.1C92.9,80.9,93.1,80.2,93.4,79.7z
			 M8.9,18.9c-0.8,0.2-1.6,0.3-2.2,0.7c-2,1-3.1,2.8-4,4.7c-0.2,0.5,0.1,1.5,0.4,2c0.3,0.5,1,0.9,1.5,1.3c0.9,0.7,1.2,1.3,0.5,2.3
			c-0.7,1-1.6,1.9-2.4,2.9c-0.5,0.5-1.1,1-1.4,1.6c-0.3,0.6-0.4,1.4-0.1,1.9c0.2,0.4,1.1,0.6,1.6,0.6c1.4-0.1,2.7-0.4,4-0.8
			c3.2-0.8,4.1-3.9,1.9-6.3c-1.1-1.2-1.1-1.4,0.4-2.1c0.2-0.1,0.5-0.2,0.7-0.3c1.3-0.6,1.9-1.7,1.9-3.1c0-0.9-0.1-1.8,0.1-2.6
			c0.2-0.8-0.1-1.4-0.8-1.8C10.4,19.4,9.6,19.2,8.9,18.9z M84.8,93.5c0-1.6-0.5-2.9-1.7-3.5c-0.9-0.6-1.3-1.3-1.3-2.4
			c0-1.1-0.4-2-1.4-2.4c-1-0.4-2.3-0.1-3,0.8c-1.3,1.6-2.8,3.1-2.4,5.5c0,0.3-0.1,0.6-0.1,0.9c-0.2,1.7,0.1,2.5,1.7,3.3
			c1.2,0.6,1.8,1.5,2.2,2.8c0.1,0.5,0.6,1.2,1,1.3c0.5,0.1,1.1-0.4,1.6-0.7c0.7-0.6,1.2-1.3,1.9-1.9C84.3,96.2,84.8,95,84.8,93.5z
			 M190.8,38.9c0.2,0.5,0.3,1.4,0.7,1.5c0.5,0.2,1.3,0,1.8-0.2c0.9-0.4,1.8-0.9,2.7-1.3c2.5-1.2,3.4-4.6,1.7-6.7
			c-0.6-0.8-0.7-1.6-0.4-2.5c0.4-1,0.3-1.9-0.5-2.7c-0.9-0.8-2-1-3-0.4c-1.8,1-3.7,1.9-4.2,4.3c-0.1,0.3-0.2,0.6-0.4,0.8
			c-0.9,1.6-0.7,2.9,0.6,4.2C190.9,36.6,191.1,37.6,190.8,38.9z M160.2,199.7c-0.2-1.1-0.2-2.2-0.5-3.2c-0.2-0.9-0.4-1.8-0.9-2.5
			c-0.8-1.3-0.8-1.8,0.5-2.6c1-0.6,1.3-1.4,1.2-2.5c-0.2-2.4-1.7-3.6-3.7-4.4c-1.3-0.5-2.4-0.1-3.3,0.9c-1,1-1.9,2.1-1.5,3.7
			c0.1,0.4,0.4,0.8,0.7,1.1c0.5,0.4,1,0.8,1.5,1.1c0.8,0.5,1.1,1.3,1.2,2.2c0.3,2.2-2.2,2.4-2.7,4.1c-0.1,0.2-0.4,0.4-0.6,0.5
			c-0.2,0.1-0.5,0.1-0.8,0.2c-0.7,0.3-1.3,0.7-2,1.1c0.1,0.1,0.1,0.2,0.2,0.3C153.1,199.7,156.7,199.7,160.2,199.7z M7.9,135.1
			c3-0.2,3.3-1.2,2.6-3.2c-0.2-0.8-0.2-1.7-0.1-2.5c0.4-2.4-1-5.3-3.1-6.5c-1.6-0.9-3.3-0.1-3.7,1.7c-0.1,0.5-0.3,1.1-0.5,1.6
			c-0.5,1-0.3,2,0.2,3c0.4,0.7,0.7,1.6,0.8,2.4C4.3,133.4,6,135.1,7.9,135.1z M106.4,162.3c-0.8,0.2-1.4,0.2-1.8,0.4
			c-1.8,1.2-4.4,1.6-5.2,4.1c0,0.1-0.1,0.1-0.1,0.2c-0.9,1.2-0.6,2.1,0.8,2.7c1,0.4,2.1,0.6,3.2,1c1.1,0.4,2,0.4,3-0.2
			c0.5-0.3,1-0.5,1.5-0.7c2.2-0.9,3.1-2.7,3.4-4.9c0.1-0.4-0.3-1-0.7-1.2C109.1,163.1,107.7,162.7,106.4,162.3z M11.8,171.8
			c-1.8,0-6.6,2.4-7.6,3.7c-0.1,0.1-0.1,0.2-0.2,0.3c-0.4,0.6-0.3,1.1,0.3,1.5c2,1.2,3.9,2.3,5.9,3.5c0.3,0.2,0.8,0.2,1,0.1
			c1.6-0.7,2.9-1.7,3.8-3.2c0.5-0.9,0.6-1.8-0.2-2.6c-0.4-0.5-0.7-1.1-1-1.7C13.5,172.2,12.7,171.9,11.8,171.8z M12.5,7.8
			c0.1,0,0.2,0,0.3,0c-0.3-1.3-0.6-2.6-1.1-3.9c-0.3-0.8-1-1.2-2-1.1c-0.6,0-1.3,0-2-0.1C6.5,2.4,5.5,2.6,5,3.8C4,6.4,3.5,9,4,11.7
			c0.2,1.3,0.8,1.5,2,0.9c1.6-0.8,3.2-1.5,4.8-2.2C11.9,9.9,12.8,9.3,12.5,7.8z M199.7,167.8c0-6.9,0-13.8,0-20.9
			c-0.9,0.9-2.3,1.4-2.1,2.8c0.3,3.3-0.6,6.5-1.1,9.8c-0.2,1.5-0.9,2.9-1.5,4.3c-0.3,0.7-0.4,1.3,0.1,2c0.2,0.3,0.5,0.6,0.7,1
			C197.2,169.2,197.1,169.2,199.7,167.8z M70.4,72.4c0.1,0,0.1,0,0.2,0c0-0.2,0.1-0.5,0-0.7c-0.2-0.6-0.2-1.5-0.7-1.8
			c-0.7-0.5-1.4,0.1-2.1,0.5c-2.2,1.4-2.7,3.8-3.5,6c-0.1,0.4,0,1,0.2,1.3c1,1.2,1.3,2.6,1.5,4.1c0.1,0.9,0.7,1,1.3,0.5
			c0.7-0.5,1.4-1,2-1.5c2-1.5,2.4-2.7,1.6-5.1C70.8,74.6,70.6,73.5,70.4,72.4z M199.7,44.3c-1.4,1.5-2.9,2.5-3.2,4.4
			c-0.3,1.8-0.6,3.6-0.9,5.4c-0.5,3,1.2,5.6,4.1,6.3C199.7,55.1,199.7,49.9,199.7,44.3z M140.1,199.8c1.5,0,2.9-0.1,4.4,0
			c1,0.1,1.3-0.4,1.5-1.2c0.3-1.3,0.7-2.5,1.1-3.8c0.3-1,0.2-1.8-0.6-2.5c-0.8-0.6-1.7-0.9-2.5-0.2c-0.9,0.7-1.9,1.4-2.6,2.2
			c-0.4,0.4-0.6,1.2-0.5,1.7C141.4,197.4,141.2,198.6,140.1,199.8z M108.4,199.7c0.4-1.6,1.5-2.5,3.2-2.4c0.6,0,1.2,0.2,1.8,0.2
			c1.1,0.1,1.5-0.5,1.1-1.5c-1-2.3-3.8-3.6-6.2-2.8c-0.9,0.3-1.3,0.8-1.2,1.7c0.2,1.6,0.4,3.2-0.6,4.8
			C107.1,199.7,107.7,199.7,108.4,199.7z M127,199.8c0-0.5,0.1-0.9,0-1.2c-0.4-2-4.6-5.1-6.6-4.7c-0.9,0.1-1.9,0.3-2,1.4
			c-0.1,1.1,0.8,1.4,1.6,1.7c1.2,0.4,2.2,1,2.6,2.3c0.1,0.2,0.4,0.4,0.6,0.5C124.4,199.8,125.7,199.8,127,199.8z M79.8,65.5
			c0-0.2,0-0.4,0-0.6c-0.1-0.8-0.1-1.8-1.1-2c-1-0.3-1.7,0.3-2.2,1.1c-0.5,0.8-1.1,1.7-1.5,2.6c-0.5,1.2,0.1,2.9,1.2,3.6
			c0.6,0.4,1.2,0.3,1.7-0.2C79.3,68.8,79.8,67.3,79.8,65.5z M78.4,74.2c-0.3-0.6-0.5-1.3-0.8-1.9c-0.1-0.2-0.7-0.2-0.8-0.1
			c-1.1,1.7-2.2,3.4-3.2,5.1c-0.4,0.7,0.1,1,0.9,1C76.4,78.2,78.3,76.2,78.4,74.2z"/>
		<path fill="#22B573" d="M0,146.5c0.4-0.8,0.9-1.5,1.3-2.3c1.3-2.6,4.6-3.5,6.9-1.8c0.7,0.5,1.4,0.3,1.9-0.1c0.7-0.5,1.3-1.2,2-1.8
			c1.7-1.6,3-1.5,4.3,0.5c1.9,2.9,2.4,6.2,1.6,9.5c-0.8,3.2-2,6.4-3.2,9.5c-0.6,1.7-2,2.7-3.4,3.7c-0.8,0.6-1.6,0.2-2.2-0.3
			c-0.7-0.6-0.7-1.3-0.3-2c0.7-1,1-1.9-0.2-2.8c-0.2-0.2-0.2-0.8-0.1-1.1c0.1-0.4,0.4-0.8,0.7-1.1c0.9-0.9,1.4-1.9,0.9-3.3
			c-0.2-0.4,0.4-1.1,0.5-1.7c0.2-0.6,0.5-1.3,0.3-1.7c-0.3-0.4-1.1-0.5-1.7-0.5c-1,0.1-2,0.4-3,0.7c-0.7,0.2-1.3,0.2-1.7-0.5
			c-0.4-0.6-0.9-0.4-1.5-0.1c-1.6,1-2.3,2.6-2.9,4.3c-0.1,0.2-0.2,0.5-0.2,0.7C0,151.8,0,149.2,0,146.5z"/>
		<path fill="#22B573" d="M62.4,0c0,0.1,0,0.2,0,0.2c1.5,0.6,1.3,1.9,1.2,3.2c0,0.8,0,1.6,0.1,2.4c0.2,1.2,1.1,1.5,2,0.6
			c0.8-0.9,1.6-1.5,3-1.2c0.3,0.1,0.8-0.3,1.1-0.6c0.4-0.4,0.7-0.8,1-1.3c0.7-0.9,1.3-1.3,2.4-0.5c0.8,0.6,1.3-0.2,1.9-0.7
			c1-1,2-0.9,2.8,0.3c0.3,0.4,0.4,1.1,0.2,1.5c-0.6,1.7-1.5,3.3-3.1,4.3c-2.6,1.7-5.2,3.4-7.9,4.9c-2.5,1.4-5.3,1.8-8.2,1.2
			c-0.4-0.1-0.8-0.1-1.2-0.3c-2.8-0.9-3.2-2.1-1.8-4.6c0.3-0.4,0.6-0.9,0.8-1.3c0.8-1.4,0.6-1.9-0.6-2.9c-0.3-0.3-0.6-0.6-0.7-1
			c-0.1-1.5,0-2.9-0.1-4.4C57.8,0,60.1,0,62.4,0z"/>
		<path fill="#22B573" d="M0,44.4c0.2-0.1,0.3-0.2,0.5-0.2c0.9-0.3,1.8-0.8,2.6-0.1c0.9,0.7,0.8,1.9,0.4,2.8C2.5,49,3.2,51,4,53.1
			c0.3,0.7,1.7,1.3,2.6,1.2c0.9-0.2,0.9-0.9,1-1.5c0.2-1.6,0.6-3.2,0.1-4.9c-0.4-1.6,0.6-2.9,1.6-4.1c0.5-0.7,1.2-1.3,1.9-1.8
			c0.3-0.2,1.2-0.3,1.4,0c0.8,1,1.8,2,1.7,3.5c-0.1,1.2,0.3,2.2,1.4,2.9c1,0.6,1.2,1.9,0.4,2.8c-1.3,1.6-2.8,3-4.4,4.3
			c-0.6,0.5-1.5,0.5-2.3,0.6C8,56,6.9,56.5,5.9,57.3c-1.1,0.9-2.1,1.8-3.3,2.5c-0.8,0.5-1.8,0.6-2.7,0.8C0,55.2,0,49.8,0,44.4z"/>
		<path fill="#22B573" d="M127,0c0.5,1.9,1,3.9,1.6,5.8c0.4,1.3,0.3,2.5-0.4,3.7c-0.4,0.7-0.9,0.7-1.4,0.2c-0.3-0.3-0.6-0.7-0.9-1
			c-1-1.3-2.6-1.5-3.9-0.4c-0.3,0.2-0.6,0.5-0.9,0.8c-1.5,2.1-3.8,1.6-5.8,0.5c-1.9-1-3.7-2.5-6-2.7c-0.4,0-0.9-0.4-1.1-0.7
			c-0.7-1.2-1.4-2.4-1.8-3.7c-0.3-0.7,0-1.7,0-2.5c0.7,0,1.5,0,2.2,0c0.4,0.2,0.8,0.5,1.2,0.7c0.6,0.4,1.3,0.6,1.6,1.1
			c1.4,2.1,3.3,2.9,5.7,2.2c1.3-0.4,2.5-0.5,3.8,0.2c0.3,0.2,0.7,0.2,1.1,0.2c1.1,0,1.8-0.7,2.3-1.6c0.4-0.8-0.2-1.4-0.7-1.9
			c-0.3-0.3-0.5-0.6-0.7-1C124.2,0,125.6,0,127,0z"/>
		<path fill="#22B573" d="M160.3,0c-0.2,0.3-0.4,0.7-0.6,0.9c-1.6,1-3.3,1.9-4.9,3c-0.5,0.3-0.9,0.8-1.1,1.3c-1,2.4-2.3,3.1-4.8,2.5
			c-1.4-0.3-2.6-1-3.6-2.1c-1.1-1.3-1.5-1.4-3.1-0.7c-1.1,0.5-1.9,0-2.6-0.8c-0.9-1-1.1-2.1-0.6-3c0.2-0.3,0.4-0.6,0.6-0.9
			c2,0,4,0,6,0c0,0.5,0,1,0,1.4c0.5,0,1.1,0.1,1.5-0.1c0.7-0.3,1.2-0.9,1.9-1.3C152.7,0,156.5,0,160.3,0z"/>
		<path fill="#22B573" d="M0,177.2c1.5,0.1,2.2,1.1,2.7,2.3c0.4,0.9,1.2,1.6,1.8,2.4c0.4,0.4,0.9,0.7,1.4,1.1c0.9,0.8,1,1.6,0.3,2.6
			c-0.5,0.7-0.4,1.3-0.2,2.1c0.3,1.3,0.3,2.7,0.3,4c0,0.3-0.3,0.6-0.5,0.8c-0.7,0.7-1.5,1.3-2.2,2c-0.7,0.6-1.4,0.4-2.1-0.1
			c-1.2-0.9-1.8-3.1-0.8-4.3c1.8-2.3,0.8-4.1-0.7-5.9C0,181.7,0,179.4,0,177.2z"/>
		<path fill="#22B573" d="M0,69.7c1.6-0.7,3.2-1.5,4.8-2.2c0.4-0.2,0.7-0.5,1.1-0.7c0.6-0.4,1.2-1.1,1.7-1c1.2,0.3,2.4,0.9,3.5,1.5
			c0.2,0.1,0.2,0.8,0.1,1.1c-0.3,1.6-0.7,3.1-1.1,4.6c-0.3,1-0.9,1.5-2,1.6c-1.2,0.2-2.3,0.4-3.4,0.7c-0.8,0.2-1.3,0-1.9-0.5
			c-0.9-0.8-1.9-1.4-2.9-2C0,71.8,0,70.7,0,69.7z"/>
		<path fill="#22B573" d="M0,82.6c1.3,0,2.3-0.5,3-1.7c0.5-0.8,1.2-1.2,2.3-0.9c0.5,0.1,1.1-0.3,1.6-0.4c0.7-0.1,1.5-0.4,2-0.1
			c0.4,0.2,0.7,1.2,0.6,1.8c-0.4,2.1-1.3,4.1-3.2,5.3c-2.1,1.3-4.2,2.4-6.4,3.6C0,87.6,0,85.1,0,82.6z"/>
		<path fill="#22B573" d="M122.8,0c0.2,0.3,0.5,0.7,0.7,1c0.5,0.5,1.2,1.1,0.7,1.9c-0.5,0.9-1.2,1.5-2.3,1.6c-0.4,0-0.8-0.1-1.1-0.2
			c-1.2-0.6-2.5-0.6-3.8-0.2c-2.4,0.8-4.3,0-5.7-2.2c-0.3-0.5-1.1-0.8-1.6-1.1c-0.4-0.3-0.8-0.5-1.2-0.7C113.3,0,118,0,122.8,0z"/>
		<path fill="#22B573" d="M0,154.7c0.6,0.8,1.1,1.6,1.7,2.3c0.3,0.4,0.7,0.7,1.2,1c0.8,0.5,1.2,1.1,1.2,2.1c0,1.3-0.5,2.7,0.2,4
			c0.1,0.1,0,0.4-0.1,0.5c-1,1.6-2.2,2.8-4.1,3.2C0,163.5,0,159.1,0,154.7z"/>
		<path fill="#22B573" d="M149,0c-0.6,0.5-1.2,1-1.9,1.3c-0.4,0.2-1,0.1-1.5,0.1c0-0.5,0-1,0-1.4C146.7,0,147.8,0,149,0z"/>
		<path fill="#22B573" d="M75.2,164.1c-0.2,2.2-0.9,3.8-2.9,4.9c-1.1,0.6-2.1,1.5-3.1,2.3c-0.8,0.6-1.7,0.9-2.8,0.7
			c-1.4-0.3-2.8,0-4.1,0.5c-2.7,0.9-5.5,1.3-8.3,1.2c-0.7,0-1.5,0.1-2.2,0.3c-1.4,0.4-2.6,0-3.7-0.9c-0.2-0.2-0.3-0.6-0.3-1
			c0.1-1.7-0.4-3.2-1.6-4.4c-0.8-0.7-0.8-1.4-0.3-2.1c0.3-0.5,0.7-1.1,1.1-1.5c2-2.2,1.9-4.9,1.4-7.5c-0.2-1-0.2-1.8,0.6-2.6
			c0.5-0.5,0.8-1.5,0.9-2.3c0.1-1,0.5-1.5,1.5-1.8c1.5-0.4,2.9-1.3,4.4-1.3c1.9-0.1,3.9,0.2,5.7,1.2c0.7,0.4,1.3,0.9,2.2,0.8
			c0.9-0.1,1.7,0.4,2.1,1.2c0.4,0.9,0.9,1.7,1,2.7c0.1,0.6-0.3,1.4-0.7,2c-1.3,1.7-1.8,1.6-3.3,1c-1.5-0.6-3.2-0.5-4.8-0.6
			c-0.8,0-1.2,0.9-0.7,1.5c0.9,1.2,0.6,2-0.4,2.9c-0.4,0.3-0.4,1.1-0.5,1.7c-0.1,0.6,0.1,1.3-0.1,2c-0.3,1.5,0.5,2.4,2.1,2.4
			c0.6,0,1.3,0.2,1.9,0.5c0.9,0.5,1.6,0.4,2.1-0.3c0.8-1.1,2-1.6,3-2.4c1.3-0.9,2.2-2.3,3.3-3.4c0.3-0.4,0.6-0.8,0.9-1.1
			c0.3-0.2,0.8-0.6,1.1-0.5c1.2,0.3,2.5,0.6,3.4,1.4C74.7,161.9,74.9,163.1,75.2,164.1z"/>
		<path fill="#22B573" d="M162.2,125.2c-0.9,0.1-1.3-0.4-1.8-1.3c-0.8-1.5-2-2.8-3.1-4.1c-0.5-0.6-1.5-0.3-1.6,0.5
			c-0.2,1.6-1.1,1.9-2.5,1.9c-0.4,0-0.9,0.4-1.3,0.8c-0.5,0.4-0.9,1-1.5,1.4c-1.3,0.9-1.4,2.1-0.3,3.1c0.5,0.4,0.9,1,1,1.6
			c0.3,1.1,0.9,1.5,1.9,1.4c1.3-0.2,2.4,0.2,3.6,0.4c1.3,0.3,2.6,0.1,4,0c0.6,0,1.1-0.1,1.6-0.2c1.5-0.2,1.8,0.1,2.3,1.5
			c0.1,0.2,0.2,0.5,0.3,0.7c0.9,1.6,0.8,2.3-0.3,3.7c-1.5,1.7-3.3,2.7-5.7,2c-1.2-0.4-2.5-0.5-3.8-0.6c-1.1-0.1-1.9-0.6-2.5-1.5
			c-0.9-1.3-2.1-2-3.4-2.7c-2.4-1.3-4.7-2.9-6.6-5c-0.5-0.5-1.1-0.9-1.7-1.2c-1.4-0.7-1.9-1.9-2-3.3c0-0.3,0.2-0.7,0.5-0.9
			c1.3-1.1,2-2.6,1.9-4.3c0-1,0.4-1.5,1.3-1.7c0.4-0.1,0.9-0.2,1.3-0.2c3.3-0.1,5.4-2,7-4.7c0.4-0.7,0.8-1.2,1.6-1.1
			c1.1,0.1,1.9-0.3,2.6-1c0.8-0.8,1.7-0.7,2.6-0.2c1.2,0.7,2.5,1.3,3.7,2c0.1,0.1,0.2,0.1,0.3,0.2c0.9,1.7,2.6,2.9,3.1,4.9
			c0.2,0.6,0.4,1.3,0.9,1.8c0.7,0.8,1,1.7,0.6,2.7c-0.3,0.7-0.6,1.5-0.9,2.2C165,124.8,164,125.2,162.2,125.2z"/>
		<path fill="#22B573" d="M79.5,130.5c1.1,0,2,0.3,2.6,1.3c1.2,2,2.4,2.4,4.7,1.8c1.5-0.4,3.4,0.6,4.2,2.1c0.3,0.6,0.8,1.2,1.3,1.6
			c1.2,1,1.2,2.5,0,3.5c-1.9,1.5-3.1,1.5-5.2,0.3c-1-0.6-2.3-0.9-3.4-1.3c-0.8-0.3-1.5-0.6-2.3-0.9c-0.5-0.2-1.1-0.2-1.7-0.3
			c0.1,0.5,0.2,1.1,0.4,1.6c0.7,1.2,1.3,2.6,2.6,3.4c0.3,0.2,0.3,1,0.2,1.4c-0.3,1,0,1.4,1,1.4c1.2,0,1.7,0.4,1.9,1.6
			c0.1,0.4,0.8,0.9,1.3,1.1c1,0.3,2,0.5,3,0.6c1.1,0.2,1.9-0.3,2.4-1.2c0.7-1.3,3.1-2.5,4.4-2c1.3,0.5,2.5,1.4,3.7,2.2
			c0.8,0.6,1.3,1.5,1.9,2.3c0.6,0.8,0.7,1.7,0,2.4c-1,1.1-2.1,2.1-3.2,3c-0.3,0.3-0.8,0.4-1.2,0.4c-1.7-0.1-3.4-0.2-5.1-0.3
			c-0.5,0-1-0.1-1.4-0.2c-0.8-0.2-1.2-0.6-1.3-1.4c-0.2-1.5-0.8-1.9-2.1-1.2c-1.6,0.8-3.1,0.9-4.8,0.7c-1.3-0.2-2.6-0.1-3.9-0.3
			c-0.6-0.1-1.2-0.5-1.6-1c-1-1.3-1.9-2.7-2.8-4.1c-0.2-0.3-0.4-0.7-0.4-1c0.1-1.2-0.7-1.6-1.6-1.9c-2.6-0.9-3.6-3.3-2.5-5.7
			c0.8-1.7,1.9-3.1,3.6-3.9c1.3-0.6,1.3-0.9,0.7-2c-0.5-0.9-0.2-1.7,0.4-2.3C76.5,131,77.9,130.5,79.5,130.5z"/>
		<path fill="#22B573" d="M181.1,120.1c0.8,0.2,1.6,0.4,2.5,0.6c0.9,0.3,1.5,0.2,1.7-0.9c0.1-1,0.9-1.4,1.8-1.5
			c1.9-0.1,3.5,0.6,4.5,2.1c0.4,0.5,0.4,1.4,0.5,2.1c0.1,0.9-0.2,1.9,0.1,2.7c0.2,0.6,0.8,1.3,1.4,1.7c2,1.2,2.7,2.9,1.9,5.2
			c-0.2,0.4-0.2,0.9-0.2,1.4c0.3,2-0.7,3-2.7,2.7c-2.1-0.3-3.2-1.4-3.7-3.4c-0.2-1-0.8-1.9-1.2-2.8c-0.4-1-0.9-2-1.4-3
			c-0.2-0.4-0.5-0.7-0.8-1.1c-0.3,0.4-0.8,0.7-0.8,1.1c-0.2,1.5-1,2.9-0.6,4.6c0.1,0.3-0.5,0.9-0.9,1.1c-1,0.5-1,1-0.3,1.7
			c0.8,0.7,1,1.4,0.3,2.4c-0.3,0.4-0.2,1.3,0.1,1.8c0.4,0.8,1,1.6,1.5,2.3c0.8,1.2,1.5,1.4,3,1.1c2.1-0.5,4.4,1.1,4.6,3.2
			c0,0.1,0,0.3,0,0.3c1.2,1.5,0.5,3.3,0.4,4.9c-0.1,1.7-0.7,2.3-2.4,2.3c-1.1,0-2.2-0.1-3.3-0.1c-0.8,0-1.4-0.4-1.9-1.1
			c-0.7-1-1.6-1.8-2.4-2.7c-0.4-0.5-0.9-0.9-1.3-1.4c-0.6-0.8-0.8-1.6,0-2.5c0.8-0.9,0.6-1.7-0.4-2c-2.6-0.7-4-2.7-5.5-4.6
			c-0.2-0.3-0.4-0.6-0.7-0.7c-1.3-0.9-1.1-2.1-0.9-3.4c0.3-1.3,0.5-2.5,0.8-3.8c0.1-0.5,0.3-1,0.6-1.4c0.6-0.6,0.6-1.2,0.3-1.9
			c-1.5-3.6,0.2-6.3,4.1-6.7c0.4,0,0.7,0,1.1-0.1C181,120.2,181,120.1,181.1,120.1z"/>
		<path fill="#22B573" d="M63.2,115.6c0.2,0,0.8-0.1,1.3-0.1c0.9,0.1,1.8,0.3,2.7,0.4c0.6,0.1,1.2,0.2,1.7,0.1
			c1.3-0.3,2.2,0.2,2.9,1.1c0.7,0.8,0.3,1.8-0.2,2.6c-0.9,1.3-1.3,2.6-0.6,4.1c0,0.1,0.1,0.2,0.1,0.3c-0.7,3-0.1,6.5-3.1,8.7
			c-0.3,0.2-0.6,0.5-0.7,0.9c-0.5,1.4-1.6,1.7-2.9,1.5c-1.1-0.1-2,0.1-3.1,0.6c-0.7,0.4-1.8,0.4-2.7,0.3c-1.4-0.1-2.5,0.4-3.4,1.4
			c-0.7,0.7-1.6,1.4-2.6,1.8c-1.1,0.5-2-0.2-2.6-1.2c-0.3-0.6-0.9-1.2-1.4-1.7c-1.4-1.3-1.6-2.9-1.7-4.6c0-0.4,0-0.8,0.1-1.2
			c0.7-2.4-0.9-4-2.7-5c-2-1-2.2-1.9-0.8-3.7c1.5-1.9,3.4-2.9,5.9-3.1c1.1-0.1,2.2-0.7,3.3-0.9c0.7-0.1,1.5-0.2,2,0.1
			c0.8,0.5,0.8,1.5,0.4,2.3c-0.3,0.7-0.9,1.3-1.5,1.9c-0.3,0.4-0.8,0.6-1.2,1c-1.6,1.4-1.5,2-0.1,3.5c0.6,0.6,0.9,1.4,1.2,2.2
			c0.7,1.8,1.9,2.5,3.8,2.1c0.4-0.1,0.9-0.1,1.3-0.1c1.5,0.2,2.6-0.5,3.2-1.9c0.3-0.7,0.7-1.4,1.2-1.9c0.9-0.8,1-1.7,0.7-2.7
			c-0.4-1.1-1.1-1.8-2.3-1.6c-1.7,0.2-2.3-1-2.9-2.2c-0.6-1.2-0.5-2.3,0.5-3.3C60.5,116,61.4,115.5,63.2,115.6z"/>
		<path fill="#22B573" d="M173.1,88.3c1.7,0,3.2,0.6,4.5,1.5c1.2,0.8,2.5,1.4,3.6,2.3c0.5,0.4,1.3,1,1.3,1.4
			c-0.1,0.7-0.7,1.5-1.2,1.9c-0.6,0.4-1.5,0.4-2.2,0.4c-0.4,0-0.8-0.1-1.2-0.1c-2.6-0.2-3,0.1-3.1,2.7c0,0.7-0.4,1.3-0.6,2
			c-0.9,2-0.5,3.2,1.3,4.3c0.3,0.2,0.6,0.5,0.9,0.8c1,1.3,2.2,1.5,3.7,0.9c0.6-0.3,1.4-0.4,2.1-0.4c1.2,0.1,2-0.5,2.4-1.6
			c0.4-1,0.4-2-0.5-2.7c-1.3-1.1-0.9-2.3-0.4-3.6c0.5-1.3,1.3-2,2.7-2c1.6,0,2.9,0.3,4,1.6c0.9,1.1,2.4,1.8,2.6,3.4
			c0,0.3,0.6,0.6,0.9,0.8c1.2,0.7,1.5,1.7,1.4,2.9c-0.1,1.1-1.1,1.5-2.1,1.7c-1.5,0.2-2.6,0.9-3.2,2.4c-0.1,0.1-0.1,0.3-0.2,0.4
			c-2.3,1.3-3.8,3.7-6.7,3.9c-1.3,0.1-2.6,0.3-3.9,0.3c-0.5,0-1.2-0.4-1.6-0.9c-0.9-1-1.7-1.9-3.1-2.1c-0.5-0.1-1-0.6-1.4-1
			c-1.2-1.6-2.7-2.3-4.7-2c-0.6,0.1-1.2-0.1-1.7-0.2c-1.5-0.5-2-1.7-1.4-3.2c0.2-0.4,0.4-1,0.3-1.4c-0.6-2.4,0.8-3.9,2.3-5.4
			c0.2-0.2,0.4-0.3,0.6-0.5c2-1.3,2.3-2.7,1.7-5.1c-0.6-2.8-0.2-3.5,2.7-3.5C172.8,88.3,173,88.3,173.1,88.3z"/>
		<path fill="#22B573" d="M130.5,132.6c0.8,0.4,1.5,0.7,2.1,1.1c0.5,0.4,0.9,0.9,1.2,1.4c0.8,1.3,1.9,1.9,3.4,2
			c1.2,0.1,2.3,0.4,3.2,1.3c0.4,0.4,1.2,0.5,1.9,0.5c1.5,0.1,2.4,0.6,3.2,2.1c0.9,1.6,1.9,3.1,2,4.8c0.1,1.8,0,3.7-0.5,5.4
			c-0.3,1.2-0.7,2.1-0.2,3.3c0.2,0.4,0.2,0.8,0.3,1.2c0.2,0.9,0,1.6-0.7,2.2c-0.9,0.6-1.8,1.1-2.8,0.4c-0.7-0.5-1.4-0.5-2.2-0.2
			c-2.4,0.8-6.8-1.2-7.7-3.5c-0.2-0.4-0.2-1,0.1-1.4c0.6-0.9,1.3-1.7,2.1-2.4c0.4-0.3,1.1-0.3,1.7-0.2c1.5,0.1,2.7-0.6,3.1-2.1
			c0.1-0.5,0-1-0.1-1.5c-0.4-1.1-1-2-1.5-3.1c-0.5-1.2-1.3-1.9-2.7-1.9c-0.9,0-1.7-0.3-2.6-0.5c-1-0.3-1.8,0-2.4,0.9
			c-0.8,1.3-1.6,2.4-3,3.2c-0.9,0.5-0.9,1.6-0.3,2.4c0.3,0.4,0.9,0.7,1.2,1.2c0.5,0.8,1.2,1.6,1.4,2.6c0.2,0.6-0.1,1.5-0.6,2
			c-0.4,0.3-1.3,0.3-1.9,0.2c-0.7-0.2-1.2-0.6-1.9-0.9c-0.7-0.3-1.3-0.7-2.1-0.8c-2.6-0.4-4.1-2.2-5.1-4.3c-0.7-1.4-0.1-2.3,1.5-2.8
			c1.1-0.3,2.1-0.9,3-1.6c0.5-0.4,0.8-1.4,0.8-2c0-1.6,0.3-3,1.1-4.3c0.5-0.9,1.1-1.7,2.2-2c0.5-0.1,0.9-0.8,1.3-1.2
			C129.4,133.5,129.9,133.1,130.5,132.6z"/>
		<path fill="#22B573" d="M95.1,47c1.6,0.2,2.9,0.4,3.9,1.5c1.2,1.3,2.7,2.3,2.9,4.3c0,0.4,0.6,0.7,1,1c1,0.6,1.2,1.5,1.1,2.6
			c-0.1,1-0.7,1.6-1.6,1.9c-0.5,0.1-1,0.3-1.5,0.4c-1,0.1-1.6,0.7-2.2,1.5c-0.4,0.6-1.1,1-1.7,1.4c-0.3,0.2-0.7,0.3-1,0.5
			c-1.7,1.9-3.9,2.2-6.3,1.9c-0.3,0-0.6-0.1-0.9,0c-1.4,0.3-2.4-0.2-3-1.4c-0.5-0.9-1.2-1.6-2.4-2c-0.7-0.3-1.3-1-1.8-1.7
			c-0.9-1.2-1.9-2-3.5-2c-0.8,0-1.6-0.2-2.4-0.6c-1.4-0.6-1.7-1.8-1.1-3.2c0.3-0.7,0.2-1.5,0.3-2.2c0.1-0.5,0-1.1,0.2-1.5
			c0.8-1.6,1.9-3.1,3.6-3.9c1.6-0.7,2-2.3,1.6-4.5c-0.1-0.3-0.1-0.5-0.2-0.7c-0.4-1.3,0-2.3,1.4-2.5c2.3-0.4,4.4,0.3,6.2,1.8
			c1,0.8,2,1.6,3,2.4c0.3,0.3,0.8,0.5,1.1,0.8c1,0.9,0.9,2.2-0.3,2.9c-1.1,0.6-2.2,0.6-3.3,0.2c-0.5-0.2-1-0.4-1.5-0.5
			c-1.2-0.2-2.2,0.5-2.2,1.6c0,1.4-0.4,2.6-1.1,3.8c-0.7,1.1-0.5,2,0.3,2.9c0.7,0.8,1.3,1.6,1.9,2.4c0.7,0.9,1.6,1,2.7,0.9
			c1.1-0.1,2.1-0.2,3.2-0.2c1,0,1.6-0.5,2-1.3c0.5-0.9,0.6-1.9-0.1-2.8c-1-1.4-0.8-3.8,0.4-5C94.3,47.2,94.9,47.1,95.1,47z"/>
		<path fill="#22B573" d="M39.5,31.2c1,0.3,2,0.7,3,0.9c0.4,0.1,1,0.2,1.4,0c1.3-0.5,2.1,0,3,0.9c0.8,0.8,0.6,1.7,0.1,2.6
			c-0.2,0.4-0.4,0.8-0.6,1.2c-0.5,0.8-0.5,1.6-0.3,2.5c0.2,0.7,0,1.6-0.1,2.3c0,0.4-0.2,0.9-0.2,1.3c0.2,2.3-0.9,4-2.4,5.5
			c-0.3,0.3-0.7,0.6-0.9,1c-0.6,1.3-1.7,1.6-3,1.3c-1.1-0.2-2.1-0.1-3.1,0.4c-0.6,0.3-1.5,0.4-2.3,0.3c-1.8-0.2-3.1,0.3-4.4,1.5
			c-0.7,0.7-1.8,1.1-2.8,1.3c-0.9,0.2-1.6-0.3-1.9-1.2c-0.3-0.9-0.8-1.7-1.8-2c-0.2-0.1-0.5-0.3-0.6-0.5c-0.7-1.6-1.3-3.2-1-5
			c0.5-2.6-0.1-3.9-2.5-5.1c-2.1-1.1-2.3-2.3-0.6-4c1.5-1.5,3.3-2.5,5.5-2.4c1.1,0,2.1-0.4,3.2-0.7c0.9-0.2,1.9-0.6,2.6,0.4
			c0.7,1,0.4,2-0.3,2.9c-0.6,0.7-1.3,1.2-2,1.7c-1.8,1.1-1.9,2.2-0.4,3.7c0.7,0.7,1.1,1.6,1.5,2.5c0.8,1.7,1.1,1.9,2.9,1.9
			c0.8,0,1.7,0,2.5,0.1c1.1,0.1,1.9-0.4,2.5-1.3c0.7-0.9,1.6-1.8,2.1-2.8c0.3-0.7,0.3-1.6,0.1-2.4c-0.3-1-1.1-1.5-2.1-1.7
			c-0.6-0.1-1.5-0.1-1.8-0.5c-0.7-1-1.3-2.1-1.7-3.2c-0.1-0.3,0.4-1,0.7-1.4c1.4-1.6,3.3-1.9,5.3-1.8C39.4,31.4,39.5,31.3,39.5,31.2
			z"/>
		<path fill="#22B573" d="M120.5,33.2c0,0.3,0,0.6,0.1,0.9c0.3,0.7,0.4,1.4-0.5,1.8c-0.9,0.3-1.8,0.7-2.8,0
			c-1.5-1.1-2.7-2.5-3.9-3.9c-0.7-0.8-1.7-1.4-2.7-1.9c-0.9-0.4-1.6,0.2-1.2,1.2c0.5,1.4,1.1,2.7,1.6,4.1c0.1,0.4,0.1,1-0.1,1.4
			c-0.3,0.7-0.1,1.2,0.5,1.6c0.9,0.5,1.2,1.1,0.7,2.1c-0.1,0.2,0,0.6,0.1,0.8c1.2,1.7,3.3,2.3,5.3,1.8c1.7-0.5,3.4-0.2,4.9,0.7
			c0.8,0.4,1.1,1.1,1,2c-0.1,0.6,0.3,1.2,0.5,1.8c0.3,0.7,0.7,1.3,0.9,2c0.3,1.2-0.2,1.8-1.3,2.2c-0.7,0.3-1.4,0.6-2.1,0.9
			c-0.3,0.1-0.7,0.3-1,0.3c-1.1-0.2-2.2-0.5-3.3-0.8c-0.3-0.1-0.7-0.3-0.9-0.6c-0.7-1.1-1.5-2.2-2-3.4c-0.4-0.9-0.9-1.4-1.8-1.5
			c-1.7-0.1-3.2-0.4-4.6-1.4c-0.6-0.4-1.5-0.5-2.2-0.7c-1.8-0.5-2.8-1.8-2.6-3.7c0.1-1,0.1-1.9-0.6-2.7c-0.2-0.3-0.3-1-0.1-1.3
			c0.4-1,0.1-1.6-0.7-2.1c-1.1-0.7-1.6-1.6-1.8-2.9c-0.5-3.1,1.6-4.5,3.8-5.2c0.8-0.2,1.6-0.3,2.4-0.5c0.9-0.3,1.4-0.8,1-1.8
			c-0.3-0.8,0-1.3,0.6-1.8c2.3-1.6,6.1-0.4,7,2.2c0.4,1.4,0.9,2.5,2.5,3.1c0.9,0.3,1.4,1.8,2,2.8c0.4,0.6,0.7,1.1,1.1,1.7
			c0.2,0.3,0.3,0.7,0.4,1.1C120.6,33.1,120.5,33.2,120.5,33.2z"/>
		<path fill="#22B573" d="M15.7,16.6c0.4-1.2,0.8-2.4,1.2-3.4c0.2-0.6,0.7-1.2,0.9-1.8c0.2-0.6,0.2-1.2-0.5-1.6
			c-1.3-0.7-1.6-1.5-1-2.9c1-2.4,3.9-3.5,6.2-2.5c1.2,0.5,2.2,0.6,3.6,0c1-0.4,2.4,0.1,3.6,0.3c0.6,0.1,1.3,0.2,1.9,0.3
			C32,5,32.3,5.1,32.6,5.3c0.4,0.2,0.7,0.6,1.1,0.7c1,0.3,1.1,1.1,0.7,1.8c-0.4,0.9-0.9,1.6-2.1,1.8C30.6,10,29.1,10,27.5,10
			c-1.2,0-2.3,0.4-3.4,0.7c-0.3,0.1-0.7,0.6-0.7,1c0,0.3,0.4,0.8,0.8,0.9c1.4,0.4,2.4,1.6,4,1.4c0.3,0,0.7,0.6,0.9,0.9
			c0.4,0.7,0.8,0.9,1.5,0.6c0.9-0.4,1.6-0.3,2,0.7c0.1,0.3,0.6,0.5,0.8,0.5c2-0.2,3.9-0.6,4.7-3c0.6-1.5,1.9-2.5,3.5-3.1
			c0.9-0.3,1.8-0.3,2.5,0.6c0.3,0.4,0.9,0.5,1.4,0.6c0.5,0.2,1.1,0.1,1.6,0.3c1.7,0.6,2,1.4,1.3,3c0,0.1-0.1,0.1-0.1,0.2
			c0.1,2.3-1.7,3.2-3.2,4.3c-0.4,0.3-1,0.6-1.5,0.6c-1.3-0.1-2.7-0.3-4-0.7c-0.8-0.2-1.4-0.3-1.9,0.3c-1.3,1.4-2.8,2.4-4.6,2.9
			c-0.5,0.2-1,0.6-1.5,1c-1.7,1.2-3.4,1.1-4.8-0.5c-0.6-0.7-1.3-1-2.2-1.1c-0.4,0-1-0.4-1.2-0.8c-0.5-0.9-1.1-1.1-2-0.8
			c-1.9,0.7-3.4-0.1-4.6-1.4C16.4,18.5,16.1,17.5,15.7,16.6z"/>
		<path fill="#22B573" d="M151.3,175.5c0.1,0.5,0.1,1,0.2,1.5c0.4,1.6,0,2.3-1.7,2.6c-0.6,0.1-1.2,0-1.7,0c-0.6,0.1-1.3,0.1-1.7,0.4
			c-0.9,0.7-1.6,0.6-2.5,0.1c-1.5-0.9-2.5-2.2-2.9-3.9c-0.4-2-2.2-3.6-4.2-3.7c-0.3,0-0.7,0.3-0.9,0.5c-0.5,0.6-1.1,0.7-1.8,0.3
			c-0.8-0.5-1.4-0.5-2,0.3c-0.3,0.4-1,0.4-1.5,0.5c-1.4,0.3-2.8,0.5-4.2,0.8c-0.7,0.2-0.8,1.2,0,1.6c1.2,0.7,2.5,1.1,3.8,1.6
			c1.6,0.5,3.3,0.7,4.7,1.5c0.6,0.3,0.9,1.6,1.1,2.5c0.1,0.8-0.6,0.9-1.3,1c-0.3,0.1-0.7,0.3-1,0.5c-0.2,0.1-0.4,0.3-0.6,0.3
			c-1.7,0-3.4-0.1-5.1-0.2c-0.3,0-0.7-0.1-0.9-0.4c-0.9-1-1.9-1-3.1-0.8c-2.6,0.6-4.3-0.3-5.5-2.7c-0.3-0.7-0.4-1.5-0.4-2.2
			c0-0.7,0.4-1.2,1.2-1.3c1.1-0.2,1.4-0.7,1.1-1.8c-0.2-0.8-0.5-1.6-0.7-2.4c-0.8-3.1,0.5-5.3,3.5-5.9c0.8-0.2,1.7,0.1,2.5,0.4
			c0.9,0.3,1.6,0.5,2.3-0.5c0.3-0.3,1-0.4,1.5-0.5c0.7-0.2,1.4-0.3,2-0.6c1.8-1.1,3.5-1.4,5,0.4c0.6,0.8,1.7,1.3,2.5,2
			c0.7,0.7,1.4,1.4,2,2.1c0.7,1,1.3,1.8,2.9,1.4c1.1-0.3,2.3-0.1,3.4,0c0.5,0.1,1,0.4,1.4,0.8c0.7,0.7,1.5,1.4,2,2.1
			c0.3,0.4,0.3,1.1,0.5,1.6C151.5,175.5,151.4,175.5,151.3,175.5z"/>
		<path fill="#22B573" d="M168.8,7.2c1.8-0.1,3.3,0.5,4.5,2c0.6,0.7,1.4,1.3,2.2,1.8c0.7,0.5,0.9,1.2,1,2.1c0.2,1.2,0.6,2.3,1.1,3.4
			c0.7,1.2,1.3,2.4,1.6,3.9c0.4,2,1.2,3.9,1.8,5.9c0.2,0.7,0.3,1.5,0.2,2.2c-0.1,0.8-0.7,1.4-1.7,1.3c-1.6-0.1-2.7,0.9-3.7,1.9
			c-0.7,0.8-1.4,0.8-2.2,0.4c-0.2-0.1-0.5-0.2-0.7-0.4c-2.6-1.8-5.5-1.8-8.4-1c-0.9,0.3-1.7,0.1-2.5-0.3c-0.7-0.4-1.7-0.6-2.5-0.7
			c-0.9-0.1-1.5-0.5-1.8-1.4c-0.5-1.2-1.1-2.5-1.7-3.7c-0.1-0.1-0.2-0.3-0.2-0.4c0.2-1.7,0.4-3.3,0.7-4.9c0.1-0.5,0.4-1,0.4-1.4
			c0-2,1.9-3.5,4-3c0.6,0.1,1.3,0.4,1.8,0.9c0.3,0.3,0.5,0.8,0.5,1.3c0.1,1.5-0.1,2.9,0,4.4c0.1,1.2,0.9,1.7,2,1.1
			c0.9-0.5,1.7-0.4,2.5,0.1c0.8,0.6,1.7,0.8,2.7,0.3c0.6-0.3,1.3-0.2,2-0.3c1.1-0.2,1.4-0.6,1.3-1.7c0-0.6,0.1-1.2,0.3-1.8
			c0.3-0.9,0.2-1.7-0.7-2.2c-2.4-1.4-4-3.8-6.7-4.8c-1.4-0.5-1.6-1.4-1.2-2.9c0.4-1.4,0.8-1.8,2.3-1.9
			C168.1,7.3,168.5,7.2,168.8,7.2z"/>
		<path fill="#22B573" d="M23.9,104.9c0-0.1,0.1-0.5,0-0.8c-0.3-1.5-0.5-2.9,0.8-4.1c0.4-0.4,0.5-1.2,0.6-1.9c0.1-1,0.7-1.5,1.6-1.8
			c1.3-0.4,2.6-0.8,3.9-1.3c0.1,0,0.3-0.1,0.4-0.1c1.6,0.4,3.2,0.8,4.8,1.2c0.7,0.2,1.3,0.6,2,0.7c0.8,0.1,1.3,0.4,1.7,1.2
			c0.7,1.8,0.6,3.4-0.7,4.6c-0.3,0.3-1,0.5-1.5,0.4c-1.5-0.1-2.9-0.3-4.4-0.4c-1.1-0.1-1.7,0.6-1.3,1.7c0.4,1.1,0.2,1.9-0.5,2.7
			c-0.6,0.7-0.8,1.4-0.5,2.4c0.2,0.7,0.1,1.4,0.1,2.1c0.1,0.9,0.4,1.6,1.6,1.5c0.5,0,1.2,0.2,1.7,0.5c1,0.6,1.8,0.3,2.6-0.5
			c0.9-0.9,1.9-1.8,2.9-2.7c0.6-0.6,1-1.3,1.5-2c0.3-0.4,0.5-0.8,0.8-1.2c1-1.3,1.5-1.5,3-0.9c1.4,0.5,1.7,0.9,1.7,2.6
			c0,2.2-0.6,4.1-2.6,5.3c-0.4,0.2-0.7,0.6-1,0.9c-1,1.3-2.2,2.1-4.1,1.8c-0.8-0.1-1.7,0.5-2.6,0.8c-1.3,0.4-2.7,0.8-4,1.1
			c-2,0.4-4,0.7-6,1.2c-1,0.2-1.9,0.2-2.7-0.4c-0.3-0.3-0.7-0.8-0.6-1.2c0.3-1.8-0.5-3.1-1.5-4.3c-0.6-0.8-0.7-1.4-0.2-2.2
			c0.4-0.5,0.7-1.1,1.1-1.6C23.6,108.8,24,107.1,23.9,104.9z"/>
		<path fill="#22B573" d="M146.4,60.7c0.5,0,1.1-0.1,1.5,0c0.4,0.1,0.9,0.5,0.9,0.8c0,1.3,0.9,1.6,1.9,1.7c1.5,0,1.9,1.1,1.5,2.3
			c-0.1,0.4-0.6,0.9-1,1.1c-1.7,0.6-3.5,1.1-5.3,0.5c-3.3-1.1-6.7-2-9.9-3.4c-2.9-1.2-4.9-3.5-6-6.5c-0.8-2.1-0.1-3.2,2.1-3.7
			c0.9-0.2,1.8-0.3,2.6-0.5c0.8-0.2,1.3-0.7,1.3-1.7c-0.1-2.4,2.5-4.7,4.9-4.5c0.5,0.1,0.9,0.2,1.4,0.2c1.2,0,2.5,0.1,3.7,0
			c0.9-0.1,1.7,0,2.5,0.6c1.3,0.9,2.6,1.8,4,2.6c2.1,1.1,4.2,2,6.3,2.9c0.7,0.3,1.6,0.3,2.3,0.5c0.5,0.2,1,0.5,1.2,0.9
			c0.5,0.9,0.8,1.9,1.1,2.9c0.3,0.8,0.1,1.3-0.8,1.7c-0.5,0.2-0.9,0.5-1.3,0.8c-1.5,1.2-3.1,1.5-5,1.4c-0.2,0-0.5-0.1-0.7-0.3
			c-0.9-0.7-1.6-1.4-2.5-2c-1-0.7-1.6-1.4-1.4-2.7c0.1-0.6-0.3-1.2-0.4-1.9c-0.1-0.3-0.4-0.6-0.3-0.9c0.1-1.2-0.7-1.6-1.6-1.9
			c-1.6-0.5-3.1-0.7-4.7-0.1c-0.7,0.3-1,0.6-0.8,1.3c0.2,0.7-0.1,1.1-0.6,1.5c-0.9,0.8-1.9,1.6-2.7,2.4c-0.3,0.3-0.5,1-0.4,1.3
			c0.2,0.4,0.8,0.7,1.2,0.7c1.1,0.1,2,0.4,2.7,1.4c0.4,0.5,1.4,0.5,2.1,0.8C146.3,60.8,146.4,60.8,146.4,60.7z"/>
		<path fill="#22B573" d="M159.9,150.4c1.8,0.6,3.7,1.2,5.7,1.8c1,0.3,2,0.7,3,0.8c1.9,0.1,3.6,0.7,5,2c1.4,1.3,2.7,2.5,3.6,4.2
			c0.6,1.2,0.4,3.4-0.5,4c-1.3,0.8-3.5,0.2-4.3-1.2c-0.2-0.3-0.2-0.8-0.5-1.1c-0.5-0.7-0.9-1.5-1.6-1.9c-1.4-0.8-2.9-1.4-3.9-2.7
			c-0.4-0.6-1-0.5-1.6-0.1c-1.8,1-2,1.6-1.2,3.5c0.7,1.5,0.7,3-0.3,4.4c-0.1,0.2-0.3,0.5-0.2,0.6c0.6,1.2,0.4,2.9,2,3.6
			c0.3,0.1,0.6,0.3,0.9,0.4c1,0.4,1.5,1.1,1.5,2.2c0,0.8,0.3,1.3,1.2,1.3c1.6,0,3-1.9,2.4-3.4c-0.4-1.1-0.8-2.1,0.3-2.9
			c1.1-0.8,2.1,0,2.9,0.6c1.2,1,2.3,2.1,3.3,3.3c0.9,1,0.6,4-0.5,4.8c-0.4,0.3-1.1,0.5-1.6,0.5c-1.2-0.1-2.4-0.5-3.7-0.7
			c-0.7-0.1-1.5-0.1-2.1,0.1c-1.3,0.5-2.7,0.7-4,0.2c-2.1-0.8-4.1-1.6-6.1-2.6c-0.5-0.2-0.7-1.1-1-1.7c-0.2-0.6-0.3-1.3-0.6-1.9
			c-0.9-1.7-1.9-3.3-2.8-5c-0.2-0.5-0.5-0.9-0.6-1.4c-0.4-1.4-0.1-2.3,1.2-3.1c0.4-0.3,0.9-0.5,1.4-0.7c1.6-0.9,1.8-2.6,0.6-3.9
			c-0.5-0.5-1.1-0.9-1.6-1.4c-0.3-0.3-0.7-0.8-0.6-1.2c0.1-0.3,0.6-0.7,1-0.8C157.7,150.7,158.7,150.6,159.9,150.4z"/>
		<path fill="#22B573" d="M114.2,61.5c1.7,0,3.5,0,5.2,0c0.6,0,1.2-0.4,1.8-0.5c0.6-0.1,1.3-0.3,1.7-0.1c2.2,1.4,4.6,2.6,6.1,4.9
			c0.5,0.7,0.7,1.7,1.1,2.5c0.4,0.8,0.6,1.6,1.1,2.3c0.7,0.9,1.6,1.7,2.3,2.6c0.9,1.1,0.7,1.8-0.2,3c-1.3,1.6-2.8,2.1-4.8,1.3
			c-1.2-0.5-2.5-0.8-3.7-1.4c-0.8-0.3-1.4-0.9-1.2-1.9c0.2-1,1-1.4,1.9-1.5c1.7-0.2,2.7-1.6,2.4-3.3c-0.2-1.1-0.9-1.5-1.8-0.9
			c-1.1,0.6-2.1,0.4-2.9-0.3c-1.4-1.4-3-0.7-4.6-0.4c-0.2,0-0.5,0.3-0.6,0.6c-0.7,1.6-2.1,2.3-3.8,2.5c-1.9,0.2-2.2,0.6-2.3,2.5
			c-0.1,0.9,0.3,1.3,1.1,1.6c1.3,0.5,2.5,1.1,3.6,1.8c1,0.6,1.9,0.9,3,0.7c0.8-0.1,1.8,0,2.5,0.4c1.2,0.6,1.8,2.1,1.5,3.1
			c-0.3,0.9-2.2,1.8-3.3,1.9c-2.1,0.2-4-0.6-5.9-1.2c-1.6-0.5-2.7-1.6-3.6-3.1c-0.5-0.9-1.4-1.6-2.2-2.3c-2-1.8-4.4-3.4-5.3-6.2
			c-0.1-0.4-0.2-0.8-0.3-1.2c-0.2-1.1,0.4-1.5,1.4-1.2c0.6,0.2,1.1,0.5,1.6,0.7c2.2,0.7,3.7-0.4,3.7-2.7c0-0.2,0-0.4,0-0.6
			c-0.1-2.2,0.6-3,2.8-3.3C113.1,61.5,113.7,61.5,114.2,61.5C114.2,61.5,114.2,61.5,114.2,61.5z"/>
		<path fill="#22B573" d="M66.8,18.8c1.2,0.4,2.3,0.9,3.5,1.3c0.6,0.2,1.2,0.5,1.9,0.5c0.8,0.1,1.5,0,2.3-0.1c1.3,0,2.7-0.3,3.4,1.2
			c0.8,1.8,0.4,3.9-1.1,4.9c-1.3,0.9-2.7,1.7-4.2,2.5c-0.8,0.4-1.7,0.5-2.3-0.3c-0.6-0.8-0.3-1.7,0.2-2.5c0.9-1.5,0.5-3-0.9-3.9
			c-1-0.6-1.7-0.4-2,0.8c-0.2,1.2-1,1.8-2,1.9c-2.1,0.1-2.5,1.9-3.4,3.2c-0.1,0.2,0,0.6,0.1,0.8c0.6,1.6,0.4,3.1-0.6,4.5
			c-1.1,1.5-0.9,2.8,0.8,3.7c0.4,0.2,1,0,1.5-0.1c1.2-0.5,2.3-1.1,3.5-1.5c1.2-0.4,2.1-0.9,2.7-2c0.4-0.7,1.3-1.3,2.1-1.6
			c1.2-0.4,2.7,0.2,3.1,0.9c0.4,0.8,0.1,2.8-0.6,3.6c-1.3,1.7-3,2.7-4.8,3.7c-1.5,0.9-3.1,0.9-4.8,0.7c-1-0.1-2.1,0-3.1,0.2
			c-2.9,0.4-5.8,1.1-8.7-0.3c-0.5-0.2-1.2-0.8-1.2-1.1c0.1-0.5,0.7-0.9,1.1-1.3c0.3-0.2,0.7-0.3,1-0.5c1.9-1,2.3-3.3,0.4-4.5
			c-0.3-0.2-0.6-0.5-0.9-0.8c-1.1-1-1.3-2-0.5-3.2c1.1-1.7,2.4-3.4,3.8-4.9c0.8-0.9,1.6-1.7,1.9-2.9c0.1-0.4,0.6-0.9,1-1.1
			C62.1,19.9,64.3,19.4,66.8,18.8z"/>
		<path fill="#22B573" d="M127.8,13.7c0.1,0,0.2,0,0.4,0c2,0.9,3.9,0.5,5.9,0.1c1.9-0.4,3.8,0,5.6,0.8c0.5,0.2,1,0.6,1.6,0.8
			c1.9,0.6,2.6,1.9,3.1,3.8c0.5,1.7,1.3,3.4,1.8,5.2c0.2,0.6,0.9,1.1,1.4,1.5c0.6,0.5,1.3,0.9,1.8,1.5c1,1.2,0.8,2.4-0.6,3.2
			c-0.5,0.3-1.1,0.7-1.3,1.1c-1,2.1-2.9,2.6-4.9,2.5c-3.3-0.1-4.3,0.4-5.2,3.5c-0.4,1.2-1.3,1.8-2.5,1.2c-2.1-0.9-3.4-2.6-4.2-4.8
			c-0.4-1.2-0.8-2.4-1.4-3.6c-0.3-0.8-0.9-1.6-0.2-2.2c0.5-0.4,1.5-0.6,2.2-0.4c0.7,0.1,1.4,0.8,2,1.2c0.5,0.3,0.8,0.8,1.3,1.2
			c1,0.7,1.9,0.6,2.8-0.3c0.7-0.7,1.5-1.3,2.4-1.8c1.5-0.9,1.9-1.7,1.6-3.5c-0.1-0.5-0.2-1.1-0.3-1.6c-0.2-1.5-1-2.4-2.5-2.7
			c-0.6-0.1-1.2-0.4-1.7-0.8c-0.9-0.6-1.7-0.8-2.7-0.4c-1,0.5-1.6,1.3-1.6,2.5c0,0.9-0.2,1.6-1,2.1c-2,1.5-3.6,1.2-4.9-0.9
			c-0.9-1.6-1.4-3.3-1.1-5.2c0.2-0.7,0.1-1.5,0-2.3C125.8,14.4,126.5,13.7,127.8,13.7z"/>
		<path fill="#22B573" d="M36.3,65.5c0.9,0.2,1.6,0.3,2.3,0.5c0.6,0.1,1.2,0.3,1.8,0.3c1.2,0,2,0.7,1.9,1.9c0,0.1,0,0.2,0,0.2
			c-1.2,2.2-1,4.5-0.9,6.9c0.1,2.3-0.9,4.2-2.1,6.1c-0.3,0.4-0.6,0.8-0.8,1.2c-0.5,1.3-1.6,1.6-2.8,1.7c-0.8,0.1-1.6,0.5-2.4,0.7
			c-0.7,0.2-1.4,0.4-2,0.4c-1.5,0-2.6,0.5-3.6,1.6c-0.5,0.6-1,1.1-1.6,1.5c-0.9,0.6-2.5,0.5-3-0.9c-0.3-0.7-1-1.3-1.6-1.9
			C20.1,84.3,20,82.7,20,81c0-0.3,0.1-0.5,0.2-0.8c0.8-2.4-0.5-4.1-2.6-4.8c-1.9-0.7-2-2.3-0.8-3.7c1.5-1.6,3.2-2.8,5.6-2.8
			c1,0,1.9-0.7,2.9-0.9c0.7-0.2,1.7-0.3,2,0c0.4,0.4,0.5,1.4,0.4,2.1c-0.1,0.7-0.7,1.2-1.2,1.8c-0.4,0.4-0.9,0.7-1.4,1.1
			c-1.1,1.1-1.1,2-0.2,3.2c0.6,0.8,1.1,1.7,1.5,2.6c0.7,1.5,1.5,2,3.1,1.9c0.5,0,1-0.1,1.4-0.1c1.7,0,2.9-0.7,3.4-2.4
			c0.1-0.5,0.6-0.9,0.9-1.4c1.5-1.7,0.7-4-1.5-4.5c-0.9-0.2-1.6-0.4-2.1-1.2c-1.2-2.1-0.8-3.7,1.4-4.7C34.1,66,35.3,65.8,36.3,65.5z
			"/>
		<path fill="#22B573" d="M125,105.2c-0.5,0.1-1,0.2-1.6,0.2c-1.4,0.2-2.6,0.6-2.8,2.2c-0.2,1.8-0.2,4,1.5,4.7
			c1.8,0.8,3.3,1.9,4.9,2.9c0.8,0.5,1.5,0.2,1.6-0.8c0.1-1,0.4-1.9,1-2.8c0.3-0.6,0.2-1.4,0.2-2.1c-0.1-1,0-1.7,0.9-2.3
			c0.5-0.3,0.6-1,0.9-1.5c0.4-0.5,0.8-1.3,1.3-1.4c0.5-0.1,1.4,0.4,1.7,0.8c1.3,2,2.1,4.2,1.4,6.6c-0.6,2.2-1.2,4.4-2,6.6
			c-0.8,2.6-2.6,4.3-5,5.5c-1.6,0.7-2.5,0.5-3.5-1c-0.4-0.6-0.8-1.3-1.1-2c-0.4-0.8-1.1-1.3-2.1-1.5c-2.4-0.4-4.2-2.8-4.2-5.2
			c0-1-0.2-2.1-0.5-3.1c-0.4-1.2-0.3-2.3,0.2-3.4c1.2-2.8,2.4-5.6,3.5-8.4c0.3-0.7,0.2-1.6,0.4-2.4c0.1-0.4,0.2-1.1,0.5-1.2
			c1-0.6,2.1-1,3.2-1.4c0.3-0.1,0.8,0.1,1,0.4c1,1.5,2,3,2.9,4.6c0.5,0.9,0.1,1.8-0.5,2.5c-0.6,0.7-1.2,1.4-1.5,2.3
			C126.8,104.9,126.2,105.5,125,105.2z"/>
		<path fill="#22B573" d="M152.5,90.3c1,0,1.7,0,2.4,0c1.6,0,2.8-0.5,3.5-2.1c0.7-1.6,2.6-2.4,4.3-1.9c1.2,0.4,1.5,1.1,1.2,2.3
			c-0.2,0.7-0.3,1.4-0.4,2c-0.1,0.4-0.1,1-0.4,1.2c-1.2,0.7-2.4,1.4-3.7,1.8c-0.7,0.2-1.3,0.4-1.6,1.1c-0.6,1.2-1.3,1.4-2.6,1
			c-0.5-0.2-1-0.5-1.5-0.6c-1.1-0.2-2.2-0.5-3.2-0.4c-1.4,0.1-2.4-0.1-3.1-1.3c-0.6-1.1-1.5-1.4-2.7-1.4c-0.8,0-1.6-0.2-2.4-0.3
			c-0.6-0.1-1.2,0-1.7-0.2c-1.2-0.4-2.4-0.8-3.5-1.4c-0.9-0.5-0.7-1.4-0.2-2.2c0.5-0.8,1.2-1.6,1.8-2.4c0.5-0.7,0.9-1.4,0.6-2.4
			c-0.2-0.8,0.2-1.2,0.9-1.5c0.7-0.3,1.4-0.8,2-1.2c0.4-0.3,0.8-0.6,1.3-0.9c1.1-0.7,2.2-1.5,3.3-2.1c0.6-0.3,1.3-0.5,2-0.7
			c1.3-0.5,2.6-1,3.9-1.5c1.3-0.5,2.5-0.5,3.8,0.2c1,0.5,1.6,1.2,1.8,2.4c0.1,0.6,0.3,1.3,0.6,1.9c0.4,1,0.1,1.4-0.9,1.5
			c-0.3,0-0.5,0.1-0.8,0c-2-0.5-3.9-0.3-5.9-0.2c-1.4,0.1-4.4,2.8-4.5,4.2c0,0.5-0.1,1.1-0.3,1.6c-0.5,0.9-0.3,1.4,0.5,1.9
			C148.5,90.4,150.6,90.4,152.5,90.3z"/>
		<path fill="#22B573" d="M96.1,24.6c-1.5-0.6-2.4,0.6-3.6,1.7c-1.5,1.4-2.8,3.1-4.9,3.8c-1.6,0.5-2.4,0.2-2.8-1.4
			c-0.2-0.6-0.3-1.2-0.4-1.8c-0.2-1.1-0.5-2.2-1.7-2.8c-0.7-0.3-0.6-1-0.4-1.6c0.2-0.7,0.3-1.5,0.4-2.3c0.1-0.6,0.1-1.2,0.2-1.7
			c0.2-1.2,0.3-2.4,0.5-3.6c0-0.2,0-0.4,0.1-0.5C84.3,12.1,85,10,86,8.1c0.4-0.9,1.5-1.5,2.4-2c0.9-0.5,1.9-0.4,2.8,0.3
			c0.5,0.4,1.1,0.5,1.7,0.7c1,0.4,1.2,0.9,0.6,1.8c-0.2,0.2-0.3,0.5-0.6,0.7c-1.7,1.1-2.7,2.8-4,4.4c-0.7,0.9-0.5,5.1,0.2,5.9
			c0.5,0.5,0.9,1.1,1.2,1.7c0.3,0.7,0.8,0.8,1.4,0.7c1.5-0.3,2.9-1,3.9-2.2c1.1-1.2,2.1-2.5,3.1-3.7c0.9-1,1-2.1,0.4-3.3
			c-0.7-1.6-0.4-3.2,0.8-4.4c1.2-1.1,2.2-0.9,3,0.5c0.3,0.5,0.9,0.9,1.1,1.5c0.3,0.6,0.7,1.4,0.5,1.8c-0.5,1.3-0.1,2.8-1.2,3.8
			c-0.2,0.2,0,0.9,0.1,1.4c0.4,1.2,0.2,1.9-0.8,2.6c-0.2,0.2-0.5,0.3-0.8,0.4c-1.5,0.6-2.7,1.5-3.5,2.9
			C98.1,24.2,97.4,24.7,96.1,24.6z"/>
		<path fill="#22B573" d="M105.9,117.1c0,0.7-0.2,1.7-1.3,2.4c-0.3,0.2-0.6,0.6-0.9,0.9c-1.1,1.3-2.3,1.7-3.9,0.9
			c-1-0.5-1.7-0.2-2.1,0.9c-0.7,2.1-2.8,2.6-4,4.1c-0.2,0.3-0.9,0.3-1.4,0.2c-1.8-0.5-3.5-1.2-5.2-1.7c-0.8-0.3-1.7-0.5-2.5-0.5
			c-2,0.2-3.6-0.5-4.4-2.4c-0.5-1.1-0.8-2.4-0.9-3.6c-0.1-1.1-0.4-1.9-1.3-2.5c-0.9-0.5-1.1-1.3-1-2.3c0.1-1.4,1.1-2.3,2.5-2.1
			c0.4,0.1,0.9,0.1,1.3,0.2c1,0.2,1.8-0.3,2.3-1.1c1-1.5,1.4-1.6,3.2-1.1c0.9,0.2,1.9,0.4,2.8,0.6c0.9,0.2,1.6,0.4,1.7,1.5
			c0,1.3-0.5,2.5-1.5,2.5c-2.1,0-3.6,1.6-5.6,1.9c-0.4,0.1-0.9,0.6-0.9,0.9c0,0.4,0.5,0.9,0.8,1c1,0.4,2.1,0.7,3.2,0.8
			c0.9,0.1,1.6,0.3,2.2,1.1c0.4,0.7,1,0.6,1.8,0.4c0.5-0.2,1.1-0.2,1.6-0.1c2,0.6,3.7-0.3,4.1-2.3c0.1-0.5,0.2-1,0.2-1.5
			c0.4-2.3,1.1-3.1,3.4-3.5c0.4-0.1,0.8-0.1,1.2-0.1C104.7,112.3,105.8,113.4,105.9,117.1z"/>
		<path fill="#22B573" d="M185.9,64.8c-0.4,0-0.7,0-1.1,0c-1.4,0.1-2.3-0.5-2.8-1.8c-0.5-1.4-1.1-1.5-2.5-1.1
			c-0.9,0.2-1.9,0.2-2.8,0.3c-0.5,0-1-0.2-1.5-0.1c-1.3,0.2-2.1-0.3-2.6-1.4c-0.7-1.4-1.5-2.7-2-4.2c-0.4-1-0.8-1.8-1.6-2.4
			c-1.7-1.3-2.2-2.9-1.3-4.9c0.4-1,1-2,1.7-2.8c0.8-1,1.3-1.9,1-3.2c-0.2-1.1,0.6-2.2,1.7-2.6c1.1-0.4,1.9-0.2,2.7,1.1
			c0.9,1.4,1.9,2,3.6,1.5c0.9-0.3,1.6,0.2,2.1,0.9c0.7,1.1,1.5,2.2,2.2,3.3c0.5,0.8,0.4,1.5-0.2,2.1c-0.8,0.8-1.9,1-2.8,0.6
			c-1.8-0.9-3.5-1.8-5.3-2.6c-0.4-0.2-1.1-0.2-1.2,0c-0.2,0.4-0.4,1-0.2,1.4c0.5,1.1,1.2,2,1.8,3c0.3,0.6,0.6,1.3,0.6,2
			c0,0.8,0.2,1.3,1,1.5c0.7,0.2,1,0.5,1.3,1.2c0.8,1.9,2.8,2.4,4.5,1.3c0.3-0.2,0.6-0.4,0.9-0.7c2.2-1.7,3.6-1.7,5.8,0
			c0.1,0.1,0.3,0.2,0.4,0.3c2.7,2.4,2.3,5.5-0.9,7.1C187.5,65,186.6,64.8,185.9,64.8C185.9,64.9,185.9,64.8,185.9,64.8z"/>
		<path fill="#22B573" d="M15.8,94.3c-0.2,1.4,0.3,2.3,1.6,3c1.2,0.6,1.4,1.3,1.2,2.7c-0.2,1-0.3,2-0.4,3c0,1-0.2,1.8-1.3,2
			c-1.1,0.2-2.3-0.3-2.6-1.2c-0.8-1.8-1.6-3.6-2.4-5.4c-0.2-0.4-0.7-1-1-1c-0.4,0-0.9,0.6-1,1c-0.3,1.1-0.3,2.2-0.5,3.3
			c-0.2,0.7-0.4,1.5-0.9,2.1c-0.5,0.7-0.5,1.2-0.2,1.9c0.2,0.4,0.3,1,0.2,1.4c-0.5,2.2,0.5,3.8,2.7,4c0.5,0.1,1,0.1,1.4,0.1
			c2.2,0.1,3.3,0.9,3.8,3c0.4,1.5,0.6,2.9,0,4.3c-0.2,0.5-0.8,1-1.3,1.3c-0.5,0.3-1.2,0.4-1.8,0.4c-1.3,0.2-2.5,0.2-3.4-1
			c-0.3-0.4-0.7-0.6-1.1-0.9c-1.1-0.9-1.5-1.9-1-3.3c0.5-1.4,0.1-1.9-1.2-2.4c-0.8-0.3-1.5-1-2.2-1.5c-0.4-0.3-0.7-0.8-1.1-1.1
			c-1.1-0.6-1.4-1.6-1.2-2.7c0.3-1.6,0.6-3.1,1.1-4.6c0.4-1,0.5-1.9,0.3-2.9c-0.4-2,0.3-3.7,2.1-4.6c1.1-0.6,2.4-1,3.7-1.2
			c0.9-0.2,1.5-0.5,1.9-1.2c0.3-0.5,0.8-1,1.3-1.2C14.2,90.8,16.2,91.6,15.8,94.3z"/>
		<path fill="#22B573" d="M88.8,162.9c1,0.4,1.9,0.7,2.8,1.1c1.3,0.6,2.6,1.2,4.1,1.1c1.3,0,1.9,1,1.2,2.1c-0.6,1-0.9,1.8-0.4,2.9
			c0.1,0.2,0.1,0.4,0,0.5c-0.4,1.2,0.1,1.9,1.1,2.4c0.6,0.4,0.7,0.9,0.5,1.6c-1.1,3.2-4.6,5.1-7.9,4.4c-1.1-0.2-2.3-0.2-3.4-0.3
			c-0.6-0.1-1.3-0.1-1.7-0.5c-2.1-1.9-4.9-2.4-7.2-3.8c-0.5-0.3-1-0.5-1.4-0.9c-0.7-0.5-0.8-1.2-0.1-1.8c2.9-2.5,5.9-5,8.9-7.3
			C86.4,163.7,87.7,163.4,88.8,162.9z"/>
		<path fill="#22B573" d="M197.5,10.7c0,0.3,0,0.5-0.1,0.6c-1.3,2.9-0.9,6-1.6,9c-0.5,1.9-1.1,2.1-2.7,1.1c-2-1.3-4.1-2.4-6-3.7
			c-1.2-0.8-2.4-1.6-3.5-2.5c-1.8-1.4-2.2-3.2-1.9-5.4c0.2-1.3,0-2.7-0.2-4c-0.2-1.2,0.3-2.1,1.5-1.9c1.2,0.3,2.2,0.2,3.2-0.7
			c0.2-0.1,0.4-0.2,0.6-0.2c0.9,0.1,1.3-0.5,1.5-1.3c0.4-1.4,0.9-1.7,2.3-1.3c2.1,0.6,4.1,1.4,5.2,3.5c0.3,0.6,0.5,1.4,0.6,2.1
			c0.2,0.9,0.4,1.7,0.6,2.6C197.2,9.4,197.4,10.2,197.5,10.7z"/>
		<path fill="#22B573" d="M32.8,198.9c-1.1,0.1-1.9-0.4-2.4-1.6c-0.4-1.1-1.2-1.4-2.2-0.7c-1,0.7-2.1,0.9-3.3,0.7
			c-0.6-0.1-1.2,0-1.8,0.1c-1.1,0.2-1.8-0.2-2.3-1.1c-0.7-1.6-1.4-3.3-2.2-4.9c-0.2-0.4-0.7-0.8-1.2-1.1c-2.1-1.2-2.7-2.6-1.9-4.9
			c0.5-1.4,1.2-2.6,2.5-3.4c1.2-0.7,1.7-1.7,1.1-3.1c-0.4-1,0.1-1.9,1.3-2.5c1.1-0.7,2.2-0.7,3.1,0c0.5,0.4,0.9,0.9,1.3,1.4
			c0.7,0.8,1.5,1.2,2.6,0.8c1.1-0.3,1.9,0,2.5,0.9c0.5,0.8,1,1.5,1.5,2.4c0.5,1,0.3,1.9-0.5,2.7c-0.8,0.8-1.7,0.7-2.6,0.2
			c-1.6-0.8-3.3-1.5-5-2.2c-0.3-0.1-0.8-0.1-0.9,0.1c-0.2,0.3-0.4,0.8-0.2,1.1c0.5,1.1,1.1,2.2,1.7,3.3c0.1,0.3,0.5,0.5,0.4,0.7
			c-0.2,2.2,1.9,3,2.8,4.7c0.6,1.2,3,1.1,4,0.1c0.4-0.4,0.8-0.9,1.2-1.3c1-1,2.2-1.1,3.4-0.4c1.7,1,2.6,2.9,2.2,4.2
			C37.1,197.5,35.3,198.9,32.8,198.9z"/>
		<path fill="#22B573" d="M63.1,103.7c-1.2,0.1-2-0.4-2.5-1.6c-0.5-1.3-1.2-1.5-2.3-0.7c-0.9,0.6-1.9,0.8-2.9,0.6
			c-0.7-0.1-1.5,0-2.2,0.1c-0.9,0.1-1.5-0.2-1.9-1c-0.8-1.7-1.4-3.4-2.2-5c-0.2-0.5-0.7-0.9-1.1-1.1c-2.3-1.3-2.8-2.6-2-5
			c0.5-1.4,1.3-2.6,2.6-3.4c1-0.6,1.5-1.5,1-2.7c-0.4-1.1,0-1.9,1.1-2.7c1.2-0.8,2.3-0.8,3.2-0.1c0.5,0.4,0.9,1,1.3,1.5
			c0.7,0.8,1.5,1.1,2.5,0.8c1.1-0.3,1.9,0,2.5,0.9c0.5,0.7,1,1.5,1.4,2.2c0.6,1,0.4,2-0.4,2.8c-0.8,0.8-1.7,0.7-2.6,0.2
			c-1.7-0.8-3.4-1.5-5.1-2.2c-0.8-0.3-1.4,0.3-1.1,1.2c0.5,1.2,1.2,2.2,1.7,3.3c0.3,0.5,0.6,1.1,0.7,1.7c0.1,0.7,0.3,1.3,1,1.7
			c0.5,0.3,0.9,0.8,1.1,1.3c1,1.8,3.2,2.1,4.6,0.5c0.1-0.1,0.2-0.2,0.3-0.3c0.9-1.1,1.8-2,3.4-1.5c1.5,0.5,3.1,2.5,3.1,3.9
			c0.1,1.8-2.3,4.3-4.4,4.5C63.5,103.7,63.3,103.7,63.1,103.7z"/>
		<path fill="#22B573" d="M65.2,186.1c-1.4-0.5-2.2-0.2-2.6,1.1c-0.2,0.5-1,0.9-1.5,0.9c-2.6,0.2-5.3,0.2-7.4-1.8
			c-0.5-0.5-1.2-0.8-1.8-1c-0.5-0.1-1.3,0-1.7,0.4c-0.3,0.3-0.4,1.1-0.3,1.7c0.7,4-1.6,6.3-4.8,5.9c-1.7-0.2-2.4-0.9-2.3-2.7
			c0-0.1,0.1-0.3,0-0.4c-1.1-1.7-0.4-3.7-0.8-5.6c-0.1-0.3-0.3-0.6-0.5-0.9c-0.9-1.4-0.2-2.9,1.5-3c1.5-0.1,2.9,0.1,4.1,1.2
			c1.1,0.9,2.4,1.6,3.7,2.2c0.3,0.2,0.8,0.1,1.1,0c0.2-0.1,0.2-0.7,0.1-1c-0.3-0.7-0.1-1,0.4-1.5c0.6-0.6,1-1.3,1.5-2
			c0.6-0.9,1.4-1.3,2.6-1.3c0.8,0,1.6-0.4,2.4-0.6c0.6-0.1,1.2-0.4,1.7-0.3c1.3,0.3,2.5,0.8,3.7,1.3c0.3,0.1,0.6,0.4,0.7,0.6
			c0.8,1,1.6,2,2.2,3.2c0.3,0.7,0.3,1.7,0,2.4C66.7,185.6,65.8,185.8,65.2,186.1z"/>
		<path fill="#22B573" d="M104.8,106.8c-3.4,0-4.8-1.1-5.8-4.1c-0.5-1.5-1-2.9-1.7-4.3c-0.9-2,0.1-5.8,1.8-7.1
			c0.9-0.7,1.8-0.6,2.4,0.4c0.4,0.7,0.7,1.5,0.8,2.3c0.4,2.2,2.2,3.3,3.8,4.4c0.5,0.3,1.7-0.2,2.5-0.6c0.2-0.1,0.1-1.2-0.1-1.7
			c-0.6-1.6-1.3-3.1-2.4-4.4c-1.3-1.5-0.8-3.5-0.5-5.3c0.1-0.3,0.2-0.6,0.3-0.9c0.5-1.4,0.9-1.5,2.2-0.9c1.3,0.5,2.2,1.3,2.9,2.6
			c0.3,0.5,1.1,0.9,1.7,1c1.6,0.3,2.4,0.9,2.1,2.5c-0.5,2.9-0.8,6-3.7,7.9c-0.8,0.5-1.3,1.7-1.8,2.7c-0.6,1.2-1.1,2.5-1.6,3.8
			C107.2,106.3,106.2,107,104.8,106.8z"/>
		<path fill="#22B573" d="M89.6,192.1c0.3-1.4,0.8-3.3,0.9-5.2c0.2-2.8,1.9-4.5,4.2-5.6c0.6-0.3,1.8-0.4,2.2,0
			c0.5,0.4,0.4,1.4,0.6,2.2c0,0.2-0.1,0.5-0.2,0.7c-1,2.2-0.2,4.2,0.7,6.2c0.5,1,1.6,1.1,2.5,1c0.9,0,0.9-0.9,1-1.6
			c0.2-1.7,0.5-3.3,0.1-5c-0.4-1.6,2.2-5.4,3.9-6c0.3-0.1,0.9,0,1.1,0.2c0.8,1.1,1.9,2.2,1.7,3.8c-0.1,1,0.3,1.8,1.1,2.4
			c1.1,0.8,1.5,2,0.5,3.1c-1.3,1.6-2.9,3-4.5,4.3c-0.5,0.4-1.5,0.3-2.2,0.6c-1.1,0.4-2.2,0.7-3.1,1.3c-1.2,0.7-2.2,1.7-3.4,2.5
			c-1.8,1.2-2.8,1.2-4.5,0C90.6,195.9,89.4,194.6,89.6,192.1z"/>
		<path fill="#22B573" d="M64.6,52.4c0,1.9-1.9,4.2-3.7,4.6c-0.9,0.2-1.3-0.1-1.2-1.1c0.1-0.5,0.3-1,0.4-1.5
			c0.3-1.2,0.1-2.4-0.9-3.3c-0.8-0.8-1.8-0.5-2,0.5c-0.2,1-0.8,1.6-1.8,1.9c-1.6,0.6-2.8,2.8-2.5,4.5c0.3,1.7,0.4,3.2-0.6,4.8
			c-0.6,0.9,0.1,2.7,1.1,3.1c0.4,0.2,0.9,0.1,1.3,0c0.3-0.1,0.5-0.5,0.8-0.6c2.1-0.8,3.7-1.9,4.7-4c0.4-0.9,1.8-0.6,2.2,0.4
			c0.4,1,0.4,2.1-0.2,3c-1,1.3-2.2,2.6-3.4,3.7c-0.6,0.5-1.6,0.4-2.4,0.6c-1.1,0.2-2.3,0.2-3.5,0.4c-1.3,0.2-2.6,0.5-3.9,0.6
			c-0.3,0-0.8,0-1.1-0.2c-0.7-0.4-1.3-0.9-2-1.3c0.5-0.5,0.9-1.2,1.5-1.6c1.3-0.9,1.7-2.4,1-3.8c-0.2-0.4-0.5-0.7-0.8-1.1
			c-1.6-2-1.4-3.9,0.2-6c1.3-1.7,2.8-3.2,3.3-5.4c0.1-0.5,0.7-1,1.2-1.3c1-0.5,2-0.8,3-1.1c1.3-0.5,2.4-0.2,3.5,0.5
			c1,0.6,2.1,0.9,3.3,0.8C64.1,49.6,64.6,50.2,64.6,52.4z"/>
		<path fill="#22B573" d="M41.1,150.2c0,1.9-2,4.2-3.8,4.6c-0.8,0.2-1.2-0.2-1.1-0.9c0-0.5,0.2-1,0.3-1.5c0.3-1.2,0.2-2.3-0.6-3.2
			c-0.3-0.4-1-0.6-1.4-0.6c-0.3,0-0.7,0.6-0.8,1c-0.2,0.9-0.8,1.4-1.6,1.8c-1.8,0.7-3,3-2.6,4.9c0.3,1.5,0.3,2.9-0.6,4.3
			c-0.7,1.1-0.1,2.7,1.1,3.3c0.3,0.2,0.8,0.1,1.2,0c0.3-0.1,0.5-0.5,0.8-0.6c2.1-0.8,3.7-1.9,4.7-4c0.4-0.9,1.7-0.6,2.1,0.3
			c0.5,1,0.5,2.2-0.2,3.1c-1,1.3-2.1,2.7-3.4,3.7c-0.7,0.5-1.9,0.4-2.9,0.5c-0.9,0.1-1.8,0.2-2.7,0.3c-1.5,0.2-2.9,0.5-4.4,0.7
			c-0.3,0-0.8,0-1.1-0.2c-0.6-0.4-1.2-0.9-1.8-1.4c0.5-0.5,0.9-1.1,1.4-1.4c1.5-1,1.9-2.5,0.9-4c-0.2-0.3-0.5-0.7-0.8-1
			c-1.8-1.8-1-3.9,0.1-5.7c1.2-1.8,2.9-3.4,3.5-5.7c0.1-0.5,0.7-0.9,1.2-1.2c0.7-0.4,1.6-0.6,2.4-0.9c1.5-0.7,2.9-0.4,4.3,0.3
			c0.9,0.4,1.9,0.7,2.9,0.7C40.6,147.5,41.1,148,41.1,150.2z"/>
		<path fill="#22B573" d="M199.8,183.6c-0.5-0.8-0.8-1.4-1.1-1.9c-0.8-1.4-2-2.4-3.5-2.9c-0.6-0.2-1-0.2-1.4,0.4
			c-0.2,0.4-0.6,0.8-1,1.1c-2.4,1.3-2.1,3.7-2,5.7c0,1.4,1.3,2.9,2.1,4.2c0.4,0.6,0.9,1.2,1.3,1.8c0.6,1.2,0.3,1.7-1,1.8
			c-0.5,0-1,0.1-1.4,0.3c-2,0.7-4-0.1-4.8-2.1c-0.4-1.1-0.6-2.4-0.8-3.6c-0.2-1-0.4-2-0.5-2.9c-0.1-0.4-0.1-0.7-0.1-1.1
			c0.1-1.2,0.1-2.5,0.2-3.7c0-0.6,0.1-1.2,0.2-1.8c0-0.8,0.1-1.5,0-2.3c-0.1-0.8-0.1-1.4,0.8-1.6c1.1-0.3,1.5-1.1,1.9-2
			c0.3-0.8,0.7-1.7,1.1-2.4c0.6-1.1,1.4-1.3,2.5-0.7c0.6,0.4,1.3,0.7,1.8,1.3c1.2,1.4,2.2,2.9,3.2,4.4c0.5,0.7,0.9,1.3,1.8,1.4
			c0.2,0,0.6,0.4,0.6,0.6C199.8,179.6,199.8,181.4,199.8,183.6z"/>
		<path fill="#22B573" d="M103.2,130.4c0-2.4,0.5-3,2.7-3.5c0.9-0.2,1.7-0.6,2.5-1c0.8-0.4,1.3-0.2,1.9,0.4c1.1,1.1,2.2,2.2,3.4,3.2
			c0.3,0.3,1,0.4,1.4,0.4c1.5-0.1,2.4,0.7,2.9,2c0.6,1.4,0.6,2.8-0.5,3.9c-0.8,0.9-1.8,1.6-2.8,2.3c-0.2,0.2-0.5,0.3-0.8,0.3
			c-1.9,0.4-3.8,0.7-5.7,1.1c-0.6,0.1-1.2,0.3-1.7,0.1c-0.5-0.1-1.2-0.6-1.3-1c-0.7-2.4-1.2-4.8-1.8-7.3
			C103.2,130.9,103.2,130.5,103.2,130.4z"/>
		<path fill="#22B573" d="M177.2,82.9c-1.8,0-3.4-0.4-4.8-1.8c-0.8-0.9-2.1-1.3-3.1-1.9c-0.6-0.3-1.1-0.8-1.6-1.2
			c-0.7-0.6-0.7-1.3-0.2-2.2c0.9-1.4,1.6-2.8,2.5-4.1c0.8-1.2,1.6-2.4,2.6-3.4c1.1-1.1,1.9-1,3.2-0.2c1,0.6,2,1,3.1,1.4
			c0.8,0.3,0.8,0.9,0.8,1.5c0,1.6,0,3.1,0.2,4.7c0,0.4,0.3,0.9,0.7,1.2c1.2,1.1,1.2,2.3,0.6,3.6c-0.6,1.4-1.6,2.4-3.3,2.3
			C177.6,82.9,177.4,82.9,177.2,82.9z"/>
		<path fill="#22B573" d="M171,196c-2.3,0.1-4.3-2.4-3.8-4.6c0-0.1,0.1-0.3,0.2-0.4c1.9-1.3,1.2-3.5,1.7-5.2
			c0.2-0.5-0.1-1.2-0.1-1.7c-0.1-0.8,0.3-1.2,1-1.5c0.9-0.3,1.8-0.7,2.6-1.2c1.6-1,2.5-1.1,3.7,0.3c1.1,1.1,1.8,2.5,2.7,3.8
			c0.7,1.1,1.4,2.3,2.2,3.5c0.6,0.9,0.6,1.6-0.3,2.3c-0.8,0.6-1.6,1.1-2.5,1.7c-1.1,0.8-2.1,1.6-3.3,2.3c-0.5,0.3-1,0.5-1.6,0.6
			C172.7,195.9,171.8,195.9,171,196z"/>
		<path fill="#22B573" d="M199.7,72.6c-2.2,0.1-4.4,2.4-4.5,4.5c0,0.3,0,0.6,0.1,0.7c1.1,1.4,1,3.1,1.3,4.7c0.1,0.6,0.3,1.4,1.2,1.3
			c0.3,0,0.6-0.3,0.9-0.5c0.3-0.2,0.5-0.4,0.9-0.7c0,2.5,0,4.8,0,7c0,0.2-0.3,0.6-0.6,0.7c-2.5,1.1-5,0.9-7.5-0.1
			c-1.1-0.5-1.4-1.4-1.2-2.4c0.2-1,0.6-2,0.7-3c0.1-0.6,0-1.4-0.4-2c-1.5-2.4-1.2-5.1,0.8-7c0.7-0.7,1.3-1.7,1.8-2.6
			c0.5-1,1.2-1.7,2.3-2c1.3-0.4,2.6-0.8,4-1.3C199.7,70.8,199.7,71.6,199.7,72.6z"/>
		<path fill="#22B573" d="M62.2,199.8c-2.2,0-4.2,0-6.7,0c0.6-0.6,0.9-1,1.4-1.3c1.4-1,2.5-2.1,3.3-3.7c0.3-0.5,1.1-0.9,1.7-1.2
			c1.5-0.5,3.1-0.8,4.6-1.4c2.2-0.9,4.3-1.9,6.3-2.9c0.6-0.3,1.1-0.8,1.6-1.3c0.6-0.6,1.2-0.8,1.9-0.5c0.9,0.3,1.8,0.7,2.7,1
			c0.8,0.3,1.1,0.8,0.8,1.6c-0.2,0.5-0.2,1.1-0.3,1.6c-0.1,1.8-0.9,3.3-2.2,4.6c-0.2,0.2-0.5,0.3-0.8,0.3c-1,0.2-2,0.2-2.9,0.6
			c-1.3,0.5-2.4,0.4-3.4-0.7c-0.3-0.4-1-0.5-1.5-0.8c-0.3-0.1-0.6-0.1-0.8-0.3c-1.1-1-2-0.5-3,0.2C63.6,196.7,62.7,198,62.2,199.8z"
			/>
		<path fill="#22B573" d="M30.6,138.6c-0.3,0-0.3,0-0.4,0c-2.3-1.2-4.6-2.3-6.9-3.5c-0.2-0.1-0.3-0.8-0.2-1.2c0.4-1.6,0.4-2.9-1-4.1
			c-1-0.9-0.6-2.2,0.7-2.7c1.2-0.4,2.3-0.8,3.5-1.3c0.1,0,0.2-0.1,0.3-0.1c1.3,0.4,2.8,0.7,4,1.3c1.2,0.7,2.3,1.7,3.4,2.6
			c0.6,0.5,1.2,1.2,1.6,1.9c0.6,0.9,0.7,1.8-0.2,2.7c-0.1,0.1-0.3,0.3-0.3,0.5c-0.1,1.5-1.1,2-2.4,2.3c-0.5,0.1-0.9,0.6-1.3,0.9
			C31.2,138.2,30.8,138.4,30.6,138.6z"/>
		<path fill="#22B573" d="M93.4,79.7c-0.3,0.6-0.5,1.2-0.9,1.7c-0.3,0.4-0.7,0.7-1.1,1.1c-0.9,1-0.8,1.2,0.3,1.8
			c1.1,0.7,2.3,1.5,2.4,3c0.1,1.6-0.5,2.9-2,3.7c-1.1,0.7-2.2,1.4-3.4,1.9c-0.6,0.2-1.4,0.3-1.9,0c-0.8-0.4-0.7-1.3-0.4-2.1
			c0.5-1.3,1.1-2.5,1.7-3.7c0.2-0.5,0.4-1.1,0.5-1.7c0.1-0.9-0.3-1.6-1.2-1.8c-0.3-0.1-0.6-0.1-0.9-0.2c-1.7-0.6-2.4-1.8-1.9-3.6
			c0.3-0.9,0.6-1.8,0.9-2.7c0.8-2.1,2.9-3.4,5-3.1c1,0.1,1.7,0.5,1.8,1.7C92.6,77.1,93,78.3,93.4,79.7z"/>
		<path fill="#22B573" d="M8.9,18.9c0.7,0.3,1.5,0.5,2.2,0.9c0.7,0.4,0.9,0.9,0.8,1.8c-0.2,0.9-0.1,1.8-0.1,2.6
			c0,1.4-0.5,2.5-1.9,3.1c-0.2,0.1-0.5,0.2-0.7,0.3c-1.5,0.8-1.5,0.9-0.4,2.1c2.2,2.4,1.3,5.6-1.9,6.3c-1.3,0.3-2.7,0.6-4,0.8
			c-0.5,0.1-1.4-0.2-1.6-0.6c-0.2-0.5-0.1-1.4,0.1-1.9c0.3-0.6,0.9-1.1,1.4-1.6c0.8-1,1.7-1.9,2.4-2.9c0.6-0.9,0.4-1.6-0.5-2.3
			c-0.5-0.4-1.2-0.7-1.5-1.3c-0.3-0.6-0.7-1.5-0.4-2c0.9-1.9,2-3.7,4-4.7C7.4,19.2,8.1,19.1,8.9,18.9z"/>
		<path fill="#22B573" d="M84.8,93.5c0,1.4-0.5,2.6-1.7,3.6c-0.7,0.6-1.2,1.3-1.9,1.9c-0.4,0.4-1.1,0.8-1.6,0.7
			c-0.4,0-0.8-0.8-1-1.3c-0.4-1.2-1-2.1-2.2-2.8c-1.6-0.8-1.9-1.6-1.7-3.3c0-0.3,0.2-0.6,0.1-0.9c-0.3-2.3,1.2-3.9,2.4-5.5
			c0.7-0.9,2.1-1.2,3-0.8c1.1,0.4,1.5,1.3,1.4,2.4c0,1.1,0.3,1.8,1.3,2.4C84.3,90.7,84.8,91.9,84.8,93.5z"/>
		<path fill="#22B573" d="M190.8,38.9c0.3-1.2,0-2.2-0.8-3c-1.4-1.2-1.5-2.6-0.6-4.2c0.1-0.3,0.3-0.5,0.4-0.8
			c0.5-2.3,2.4-3.2,4.2-4.3c1-0.6,2.1-0.4,3,0.4c0.8,0.7,0.9,1.7,0.5,2.7c-0.3,0.9-0.3,1.7,0.4,2.5c1.7,2.1,0.8,5.6-1.7,6.7
			c-0.9,0.4-1.7,1-2.7,1.3c-0.6,0.2-1.3,0.4-1.8,0.2C191.2,40.2,191.1,39.4,190.8,38.9z"/>
		<path fill="#22B573" d="M160.2,199.7c-3.6,0-7.1,0-10.6,0c-0.1-0.1-0.1-0.2-0.2-0.3c0.7-0.4,1.3-0.8,2-1.1
			c0.2-0.1,0.5-0.1,0.8-0.2c0.3-0.1,0.6-0.3,0.6-0.5c0.4-1.7,2.9-1.9,2.7-4.1c-0.1-1-0.4-1.7-1.2-2.2c-0.5-0.4-1.1-0.7-1.5-1.1
			c-0.3-0.3-0.6-0.7-0.7-1.1c-0.4-1.6,0.5-2.7,1.5-3.7c0.9-0.9,2-1.4,3.3-0.9c2,0.8,3.5,2,3.7,4.4c0.1,1.1-0.2,1.9-1.2,2.5
			c-1.3,0.7-1.3,1.3-0.5,2.6c0.5,0.7,0.7,1.7,0.9,2.5C160,197.5,160.1,198.6,160.2,199.7z"/>
		<path fill="#22B573" d="M7.9,135.1c-1.9,0-3.6-1.7-3.8-3.6c-0.1-0.8-0.4-1.6-0.8-2.4c-0.5-1-0.6-1.9-0.2-3c0.2-0.5,0.4-1,0.5-1.6
			c0.4-1.8,2.1-2.6,3.7-1.7c2.1,1.2,3.4,4.1,3.1,6.5c-0.1,0.8-0.2,1.7,0.1,2.5C11.2,134,10.9,135,7.9,135.1z"/>
		<path fill="#22B573" d="M106.4,162.3c1.2,0.4,2.7,0.8,4.1,1.3c0.3,0.1,0.7,0.8,0.7,1.2c-0.3,2.2-1.2,4-3.4,4.9
			c-0.5,0.2-1,0.5-1.5,0.7c-1,0.6-1.9,0.6-3,0.2c-1-0.4-2.1-0.6-3.2-1c-1.4-0.5-1.7-1.5-0.8-2.7c0-0.1,0.1-0.1,0.1-0.2
			c0.8-2.5,3.3-2.9,5.2-4.1C105.1,162.5,105.7,162.5,106.4,162.3z"/>
		<path fill="#22B573" d="M11.8,171.8c0.9,0.1,1.8,0.4,2.1,1.5c0.2,0.6,0.5,1.2,1,1.7c0.7,0.9,0.7,1.7,0.2,2.6
			c-0.9,1.5-2.3,2.5-3.8,3.2c-0.3,0.1-0.7,0-1-0.1c-2-1.1-4-2.3-5.9-3.5c-0.6-0.4-0.7-0.9-0.3-1.5c0.1-0.1,0.1-0.2,0.2-0.3
			C5.2,174.2,10,171.8,11.8,171.8z"/>
		<path fill="#22B573" d="M12.5,7.8c0.3,1.5-0.6,2.1-1.7,2.6c-1.6,0.7-3.2,1.5-4.8,2.2c-1.2,0.6-1.8,0.4-2-0.9C3.5,9,4,6.4,5,3.8
			c0.5-1.2,1.5-1.5,2.8-1.2c0.6,0.1,1.3,0.2,2,0.1c0.9-0.1,1.7,0.3,2,1.1c0.4,1.3,0.7,2.6,1.1,3.9C12.7,7.8,12.6,7.8,12.5,7.8z"/>
		<path fill="#22B573" d="M199.7,167.8c-2.6,1.4-2.5,1.5-3.9-1c-0.2-0.3-0.5-0.7-0.7-1c-0.5-0.6-0.4-1.2-0.1-2
			c0.6-1.4,1.3-2.8,1.5-4.3c0.5-3.2,1.4-6.4,1.1-9.8c-0.1-1.4,1.2-1.9,2.1-2.8C199.7,153.9,199.7,160.8,199.7,167.8z"/>
		<path fill="#22B573" d="M70.4,72.4c0.2,1.1,0.4,2.2,0.7,3.2c0.8,2.4,0.4,3.6-1.6,5.1c-0.7,0.5-1.3,1-2,1.5
			c-0.7,0.5-1.2,0.4-1.3-0.5c-0.2-1.5-0.5-2.9-1.5-4.1c-0.2-0.3-0.3-0.9-0.2-1.3c0.8-2.2,1.3-4.6,3.5-6c0.7-0.4,1.4-1,2.1-0.5
			c0.4,0.3,0.5,1.2,0.7,1.8c0.1,0.2,0,0.4,0,0.7C70.5,72.4,70.5,72.4,70.4,72.4z"/>
		<path fill="#22B573" d="M199.7,44.3c0,5.6,0,10.8,0,16.1c-2.9-0.7-4.6-3.3-4.1-6.3c0.3-1.8,0.6-3.6,0.9-5.4
			C196.8,46.8,198.3,45.7,199.7,44.3z"/>
		<path fill="#22B573" d="M140.1,199.8c1.1-1.2,1.3-2.3,0.7-3.8c-0.2-0.5,0.1-1.3,0.5-1.7c0.8-0.8,1.7-1.5,2.6-2.2
			c0.9-0.6,1.8-0.4,2.5,0.2c0.8,0.7,1,1.5,0.6,2.5c-0.4,1.2-0.8,2.5-1.1,3.8c-0.2,0.8-0.5,1.2-1.5,1.2
			C143.1,199.7,141.6,199.8,140.1,199.8z"/>
		<path fill="#22B573" d="M108.4,199.7c-0.6,0-1.2,0-2,0c1-1.6,0.8-3.2,0.6-4.8c-0.1-0.9,0.4-1.4,1.2-1.7c2.4-0.8,5.2,0.5,6.2,2.8
			c0.4,1,0,1.6-1.1,1.5c-0.6,0-1.2-0.2-1.8-0.2C109.9,197.3,108.8,198.1,108.4,199.7z"/>
		<path fill="#22B573" d="M127,199.8c-1.3,0-2.5,0-3.8,0c-0.2,0-0.6-0.2-0.6-0.5c-0.4-1.3-1.4-1.9-2.6-2.3c-0.8-0.3-1.7-0.6-1.6-1.7
			c0.1-1.1,1.1-1.3,2-1.4c2.1-0.3,6.3,2.7,6.6,4.7C127,198.9,127,199.3,127,199.8z"/>
		<path fill="#22B573" d="M79.8,65.5c0,1.8-0.5,3.3-1.9,4.5c-0.5,0.5-1.1,0.6-1.7,0.2c-1.1-0.7-1.7-2.4-1.2-3.6
			c0.4-0.9,0.9-1.7,1.5-2.6c0.5-0.8,1.3-1.3,2.2-1.1c1,0.3,0.9,1.2,1.1,2C79.9,65.1,79.8,65.3,79.8,65.5z"/>
		<path fill="#22B573" d="M78.4,74.2c-0.2,2.1-2,4.1-3.9,4.1c-0.8,0-1.3-0.3-0.9-1c1-1.8,2.1-3.4,3.2-5.1c0.1-0.1,0.7,0,0.8,0.1
			C77.9,72.9,78.2,73.5,78.4,74.2z"/>
	</g>
</g>
</svg>
