<?xml version="1.0" encoding="utf-8"?>
<!-- Generator: Adobe Illustrator 19.2.0, SVG Export Plug-In . SVG Version: 6.00 Build 0)  -->
<svg version="1.1" xmlns="http://www.w3.org/2000/svg" xmlns:xlink="http://www.w3.org/1999/xlink" x="0px" y="0px"
	 viewBox="0 0 200 200" enable-background="new 0 0 200 200" xml:space="preserve">
<g id="Layer_1">
</g>
<g id="Layer_2">
	<g>
		<defs>
			<rect id="SVGID_1_" x="-465" y="-226" width="400.6" height="400.6"/>
		</defs>
		<clipPath id="SVGID_2_">
			<use xlink:href="#SVGID_1_"  overflow="visible"/>
		</clipPath>
		<g clip-path="url(#SVGID_2_)">
			<g>
				<line fill="none" stroke="#4D4D4D" stroke-miterlimit="10" x1="-405" y1="-334" x2="51" y2="122"/>
				<line fill="none" stroke="#4D4D4D" stroke-miterlimit="10" x1="-381" y1="-366" x2="75" y2="90"/>
				<line fill="none" stroke="#4D4D4D" stroke-miterlimit="10" x1="-352" y1="-394" x2="104" y2="62"/>
				<line fill="none" stroke="#4D4D4D" stroke-miterlimit="10" x1="-328" y1="-429" x2="128" y2="27"/>
				<line fill="none" stroke="#4D4D4D" stroke-miterlimit="10" x1="-437" y1="-310" x2="19" y2="146"/>
				<line fill="none" stroke="#4D4D4D" stroke-miterlimit="10" x1="-317.8" y1="370.8" x2="138.2" y2="-85.2"/>
				<line fill="none" stroke="#4D4D4D" stroke-miterlimit="10" x1="-349.8" y1="346.8" x2="106.2" y2="-109.2"/>
				<line fill="none" stroke="#4D4D4D" stroke-miterlimit="10" x1="-293.8" y1="402.8" x2="162.2" y2="-53.2"/>
				<line fill="none" stroke="#4D4D4D" stroke-miterlimit="10" x1="-401.8" y1="286.8" x2="54.2" y2="-169.2"/>
				<line fill="none" stroke="#4D4D4D" stroke-miterlimit="10" x1="-433.8" y1="262.8" x2="22.2" y2="-193.2"/>
				<line fill="none" stroke="#4D4D4D" stroke-miterlimit="10" x1="-377.8" y1="318.8" x2="78.2" y2="-137.2"/>
			</g>
			<g>
				<g>
					<g>
						<path fill="#FB6188" d="M-73.1,81.8c4.9-11.2,7.6-21.5,14.2-31.4c-1.4,2.1,0.9-0.7-0.4,0.3c-1.5,1.1,1.7-1,1.7-1
							c-1.9,1-0.5,0.3,0.7-0.1c0.9-0.2,3.4-0.2,0.6-0.2c1.1,0,2.2-0.1,3.4-0.1c0.8,0,3.7,0.5,0.6-0.1c2.8,0.5,5.5,1.2,8.2,2
							c10.5,3.2,20.2,8.4,30.2,14.1C-2.6,71.9,8.9,77.7,20.8,83c7.4,3.3,16.1,2.1,20.5-5.4c3.8-6.4,2-17.2-5.4-20.5
							C22.7,51.2,10,44.4-2.6,37.3C-15.2,30.2-28.8,23.4-43,20.6c-13.3-2.6-28.2-0.9-37.9,9.5c-4.6,4.9-7.5,11.4-10.1,17.4
							c-1.7,3.9-3.3,7.7-4.9,11.6c-1.2,2.9-2.4,5.8-3.1,7.5c-3.3,7.4-2.2,16.1,5.4,20.5C-87.3,90.9-76.4,89.2-73.1,81.8L-73.1,81.8z
							"/>
					</g>
				</g>
			</g>
		</g>
	</g>
</g>
<g id="Layer_3">
	<g>
		<defs>
			<rect id="SVGID_3_" x="0" y="-226" width="200" height="200"/>
		</defs>
		<clipPath id="SVGID_4_">
			<use xlink:href="#SVGID_3_"  overflow="visible"/>
		</clipPath>
		<g clip-path="url(#SVGID_4_)">
			<line fill="none" stroke="#000000" stroke-width="19" stroke-miterlimit="10" x1="0" y1="30.9" x2="249" y2="-218"/>
			<line fill="none" stroke="#000000" stroke-width="19" stroke-miterlimit="10" x1="35" y1="63.1" x2="284" y2="-185.9"/>
			<line fill="none" stroke="#000000" stroke-width="19" stroke-miterlimit="10" x1="55" y1="110.1" x2="304" y2="-138.8"/>
		</g>
	</g>
	<g>
		<defs>
			<rect id="SVGID_5_" x="0" y="0" width="200" height="200"/>
		</defs>
		<clipPath id="SVGID_6_">
			<use xlink:href="#SVGID_5_"  overflow="visible"/>
		</clipPath>
		<rect x="0" y="0" clip-path="url(#SVGID_6_)" fill="#4193AF" width="200" height="200"/>
		<g clip-path="url(#SVGID_6_)">
			<defs>
				<polygon id="SVGID_7_" points="10.5,11.2 41.7,25.1 14.1,45.2 				"/>
			</defs>
			<clipPath id="SVGID_8_">
				<use xlink:href="#SVGID_7_"  overflow="visible"/>
			</clipPath>
			
				<line clip-path="url(#SVGID_8_)" fill="none" stroke="#FFFFFF" stroke-width="2" stroke-miterlimit="10" x1="-5.2" y1="24" x2="27.7" y2="0"/>
			
				<line clip-path="url(#SVGID_8_)" fill="none" stroke="#FFFFFF" stroke-width="2" stroke-miterlimit="10" x1="-1" y1="29.8" x2="31.9" y2="5.8"/>
			
				<line clip-path="url(#SVGID_8_)" fill="none" stroke="#FFFFFF" stroke-width="2" stroke-miterlimit="10" x1="3.3" y1="35.7" x2="36.2" y2="11.8"/>
			
				<line clip-path="url(#SVGID_8_)" fill="none" stroke="#FFFFFF" stroke-width="2" stroke-miterlimit="10" x1="7.9" y1="41.7" x2="40.8" y2="17.8"/>
			
				<line clip-path="url(#SVGID_8_)" fill="none" stroke="#FFFFFF" stroke-width="2" stroke-miterlimit="10" x1="11.7" y1="46.9" x2="44.6" y2="23"/>
			
				<line clip-path="url(#SVGID_8_)" fill="none" stroke="#FFFFFF" stroke-width="2" stroke-miterlimit="10" x1="15.9" y1="53.2" x2="48.8" y2="29.3"/>
		</g>
		<g clip-path="url(#SVGID_6_)">
			<defs>
				<polygon id="SVGID_9_" points="42.3,87.5 72.9,72.2 70.8,106.3 				"/>
			</defs>
			<clipPath id="SVGID_10_">
				<use xlink:href="#SVGID_9_"  overflow="visible"/>
			</clipPath>
			
				<line clip-path="url(#SVGID_10_)" fill="none" stroke="#FFFFFF" stroke-width="2" stroke-miterlimit="10" x1="42.1" y1="107.7" x2="44.6" y2="67.1"/>
			
				<line clip-path="url(#SVGID_10_)" fill="none" stroke="#FFFFFF" stroke-width="2" stroke-miterlimit="10" x1="49.3" y1="108.1" x2="51.7" y2="67.5"/>
			
				<line clip-path="url(#SVGID_10_)" fill="none" stroke="#FFFFFF" stroke-width="2" stroke-miterlimit="10" x1="56.6" y1="108.6" x2="59.1" y2="68"/>
			
				<line clip-path="url(#SVGID_10_)" fill="none" stroke="#FFFFFF" stroke-width="2" stroke-miterlimit="10" x1="64.2" y1="108.8" x2="66.7" y2="68.3"/>
			
				<line clip-path="url(#SVGID_10_)" fill="none" stroke="#FFFFFF" stroke-width="2" stroke-miterlimit="10" x1="70.6" y1="109.2" x2="73.1" y2="68.6"/>
			
				<line clip-path="url(#SVGID_10_)" fill="none" stroke="#FFFFFF" stroke-width="2" stroke-miterlimit="10" x1="78.1" y1="110" x2="80.6" y2="69.4"/>
		</g>
		<g clip-path="url(#SVGID_6_)">
			<defs>
				<polygon id="SVGID_11_" points="87.6,162.1 118.2,146.9 116.1,181 				"/>
			</defs>
			<clipPath id="SVGID_12_">
				<use xlink:href="#SVGID_11_"  overflow="visible"/>
			</clipPath>
			
				<line clip-path="url(#SVGID_12_)" fill="none" stroke="#FFFFFF" stroke-width="2" stroke-miterlimit="10" x1="87.4" y1="182.3" x2="89.9" y2="141.8"/>
			
				<line clip-path="url(#SVGID_12_)" fill="none" stroke="#FFFFFF" stroke-width="2" stroke-miterlimit="10" x1="94.6" y1="182.8" x2="97.1" y2="142.2"/>
			
				<line clip-path="url(#SVGID_12_)" fill="none" stroke="#FFFFFF" stroke-width="2" stroke-miterlimit="10" x1="101.9" y1="183.2" x2="104.4" y2="142.6"/>
			
				<line clip-path="url(#SVGID_12_)" fill="none" stroke="#FFFFFF" stroke-width="2" stroke-miterlimit="10" x1="109.5" y1="183.5" x2="112" y2="142.9"/>
			
				<line clip-path="url(#SVGID_12_)" fill="none" stroke="#FFFFFF" stroke-width="2" stroke-miterlimit="10" x1="115.9" y1="183.9" x2="118.4" y2="143.3"/>
			
				<line clip-path="url(#SVGID_12_)" fill="none" stroke="#FFFFFF" stroke-width="2" stroke-miterlimit="10" x1="123.4" y1="184.7" x2="125.9" y2="144.1"/>
		</g>
		<g clip-path="url(#SVGID_6_)">
			<defs>
				<polygon id="SVGID_13_" points="92,19.8 125.8,24.7 104.6,51.6 				"/>
			</defs>
			<clipPath id="SVGID_14_">
				<use xlink:href="#SVGID_13_"  overflow="visible"/>
			</clipPath>
			
				<line clip-path="url(#SVGID_14_)" fill="none" stroke="#FFFFFF" stroke-width="2" stroke-miterlimit="10" x1="80.3" y1="36.3" x2="105.5" y2="4.4"/>
			
				<line clip-path="url(#SVGID_14_)" fill="none" stroke="#FFFFFF" stroke-width="2" stroke-miterlimit="10" x1="85.9" y1="40.8" x2="111.1" y2="8.8"/>
			
				<line clip-path="url(#SVGID_14_)" fill="none" stroke="#FFFFFF" stroke-width="2" stroke-miterlimit="10" x1="91.7" y1="45.3" x2="116.9" y2="13.4"/>
			
				<line clip-path="url(#SVGID_14_)" fill="none" stroke="#FFFFFF" stroke-width="2" stroke-miterlimit="10" x1="97.8" y1="49.9" x2="123" y2="17.9"/>
			
				<line clip-path="url(#SVGID_14_)" fill="none" stroke="#FFFFFF" stroke-width="2" stroke-miterlimit="10" x1="102.8" y1="53.9" x2="128" y2="21.9"/>
			
				<line clip-path="url(#SVGID_14_)" fill="none" stroke="#FFFFFF" stroke-width="2" stroke-miterlimit="10" x1="108.5" y1="58.8" x2="133.7" y2="26.8"/>
		</g>
		<g clip-path="url(#SVGID_6_)">
			<defs>
				<polygon id="SVGID_15_" points="156.6,163.8 190.5,168.7 169.3,195.6 				"/>
			</defs>
			<clipPath id="SVGID_16_">
				<use xlink:href="#SVGID_15_"  overflow="visible"/>
			</clipPath>
			
				<line clip-path="url(#SVGID_16_)" fill="none" stroke="#FFFFFF" stroke-width="2" stroke-miterlimit="10" x1="145" y1="180.3" x2="170.2" y2="148.4"/>
			
				<line clip-path="url(#SVGID_16_)" fill="none" stroke="#FFFFFF" stroke-width="2" stroke-miterlimit="10" x1="150.6" y1="184.8" x2="175.8" y2="152.8"/>
			
				<line clip-path="url(#SVGID_16_)" fill="none" stroke="#FFFFFF" stroke-width="2" stroke-miterlimit="10" x1="156.4" y1="189.3" x2="181.6" y2="157.4"/>
			
				<line clip-path="url(#SVGID_16_)" fill="none" stroke="#FFFFFF" stroke-width="2" stroke-miterlimit="10" x1="162.4" y1="193.9" x2="187.6" y2="161.9"/>
			
				<line clip-path="url(#SVGID_16_)" fill="none" stroke="#FFFFFF" stroke-width="2" stroke-miterlimit="10" x1="167.5" y1="197.9" x2="192.7" y2="165.9"/>
			
				<line clip-path="url(#SVGID_16_)" fill="none" stroke="#FFFFFF" stroke-width="2" stroke-miterlimit="10" x1="173.2" y1="202.8" x2="198.4" y2="170.8"/>
		</g>
		<g clip-path="url(#SVGID_6_)">
			<defs>
				<polygon id="SVGID_17_" points="141.4,129.2 153.1,97.1 175.1,123.2 				"/>
			</defs>
			<clipPath id="SVGID_18_">
				<use xlink:href="#SVGID_17_"  overflow="visible"/>
			</clipPath>
			
				<line clip-path="url(#SVGID_18_)" fill="none" stroke="#FFFFFF" stroke-width="2" stroke-miterlimit="10" x1="155.3" y1="144" x2="129.1" y2="112.9"/>
			
				<line clip-path="url(#SVGID_18_)" fill="none" stroke="#FFFFFF" stroke-width="2" stroke-miterlimit="10" x1="160.8" y1="139.4" x2="134.5" y2="108.3"/>
			
				<line clip-path="url(#SVGID_18_)" fill="none" stroke="#FFFFFF" stroke-width="2" stroke-miterlimit="10" x1="166.4" y1="134.6" x2="140.2" y2="103.5"/>
			
				<line clip-path="url(#SVGID_18_)" fill="none" stroke="#FFFFFF" stroke-width="2" stroke-miterlimit="10" x1="172.1" y1="129.6" x2="145.9" y2="98.5"/>
			
				<line clip-path="url(#SVGID_18_)" fill="none" stroke="#FFFFFF" stroke-width="2" stroke-miterlimit="10" x1="177" y1="125.5" x2="150.8" y2="94.4"/>
			
				<line clip-path="url(#SVGID_18_)" fill="none" stroke="#FFFFFF" stroke-width="2" stroke-miterlimit="10" x1="183" y1="120.9" x2="156.7" y2="89.8"/>
		</g>
		<g clip-path="url(#SVGID_6_)">
			<defs>
				<polygon id="SVGID_19_" points="22.4,174 34.1,141.9 56.1,168 				"/>
			</defs>
			<clipPath id="SVGID_20_">
				<use xlink:href="#SVGID_19_"  overflow="visible"/>
			</clipPath>
			
				<line clip-path="url(#SVGID_20_)" fill="none" stroke="#FFFFFF" stroke-width="2" stroke-miterlimit="10" x1="36.3" y1="188.7" x2="10.1" y2="157.7"/>
			
				<line clip-path="url(#SVGID_20_)" fill="none" stroke="#FFFFFF" stroke-width="2" stroke-miterlimit="10" x1="41.8" y1="184.1" x2="15.5" y2="153"/>
			
				<line clip-path="url(#SVGID_20_)" fill="none" stroke="#FFFFFF" stroke-width="2" stroke-miterlimit="10" x1="47.4" y1="179.4" x2="21.2" y2="148.3"/>
			
				<line clip-path="url(#SVGID_20_)" fill="none" stroke="#FFFFFF" stroke-width="2" stroke-miterlimit="10" x1="53.1" y1="174.4" x2="26.9" y2="143.3"/>
			
				<line clip-path="url(#SVGID_20_)" fill="none" stroke="#FFFFFF" stroke-width="2" stroke-miterlimit="10" x1="58" y1="170.2" x2="31.8" y2="139.1"/>
			
				<line clip-path="url(#SVGID_20_)" fill="none" stroke="#FFFFFF" stroke-width="2" stroke-miterlimit="10" x1="64" y1="165.6" x2="37.7" y2="134.5"/>
		</g>
		<g clip-path="url(#SVGID_6_)">
			<defs>
				<polygon id="SVGID_21_" points="191.7,43 182.5,75.9 158.6,51.6 				"/>
			</defs>
			<clipPath id="SVGID_22_">
				<use xlink:href="#SVGID_21_"  overflow="visible"/>
			</clipPath>
			
				<line clip-path="url(#SVGID_22_)" fill="none" stroke="#FFFFFF" stroke-width="2" stroke-miterlimit="10" x1="176.7" y1="29.4" x2="205.2" y2="58.3"/>
			
				<line clip-path="url(#SVGID_22_)" fill="none" stroke="#FFFFFF" stroke-width="2" stroke-miterlimit="10" x1="171.6" y1="34.4" x2="200.2" y2="63.4"/>
			
				<line clip-path="url(#SVGID_22_)" fill="none" stroke="#FFFFFF" stroke-width="2" stroke-miterlimit="10" x1="166.4" y1="39.5" x2="194.9" y2="68.5"/>
			
				<line clip-path="url(#SVGID_22_)" fill="none" stroke="#FFFFFF" stroke-width="2" stroke-miterlimit="10" x1="161.1" y1="45" x2="189.6" y2="74"/>
			
				<line clip-path="url(#SVGID_22_)" fill="none" stroke="#FFFFFF" stroke-width="2" stroke-miterlimit="10" x1="156.5" y1="49.5" x2="185" y2="78.5"/>
			
				<line clip-path="url(#SVGID_22_)" fill="none" stroke="#FFFFFF" stroke-width="2" stroke-miterlimit="10" x1="150.9" y1="54.5" x2="179.4" y2="83.5"/>
		</g>
		
			<line clip-path="url(#SVGID_6_)" fill="none" stroke="#DD4E92" stroke-width="7" stroke-miterlimit="10" x1="111.3" y1="68.3" x2="139.3" y2="68.3"/>
		
			<line clip-path="url(#SVGID_6_)" fill="none" stroke="#DD4E92" stroke-width="7" stroke-miterlimit="10" x1="164.3" y1="32.8" x2="177" y2="7.9"/>
		
			<line clip-path="url(#SVGID_6_)" fill="none" stroke="#DD4E92" stroke-width="7" stroke-miterlimit="10" x1="65.8" y1="115.1" x2="62.2" y2="142.9"/>
		
			<line clip-path="url(#SVGID_6_)" fill="none" stroke="#DD4E92" stroke-width="7" stroke-miterlimit="10" x1="29.2" y1="168.9" x2="54.8" y2="180.3"/>
		
			<line clip-path="url(#SVGID_6_)" fill="none" stroke="#DD4E92" stroke-width="7" stroke-miterlimit="10" x1="67.7" y1="81" x2="49.6" y2="59.6"/>
		
			<line clip-path="url(#SVGID_6_)" fill="none" stroke="#DD4E92" stroke-width="7" stroke-miterlimit="10" x1="11.2" y1="116.2" x2="18.6" y2="89.2"/>
		
			<line clip-path="url(#SVGID_6_)" fill="none" stroke="#DD4E92" stroke-width="7" stroke-miterlimit="10" x1="80.9" y1="18.8" x2="53.8" y2="25.9"/>
		
			<line clip-path="url(#SVGID_6_)" fill="none" stroke="#DD4E92" stroke-width="7" stroke-miterlimit="10" x1="126.9" y1="117.9" x2="145.4" y2="96.8"/>
		
			<line clip-path="url(#SVGID_6_)" fill="none" stroke="#DD4E92" stroke-width="7" stroke-miterlimit="10" x1="112.5" y1="174.8" x2="129" y2="152.2"/>
		
			<line clip-path="url(#SVGID_6_)" fill="none" stroke="#DD4E92" stroke-width="7" stroke-miterlimit="10" x1="151" y1="158.8" x2="178.9" y2="161.2"/>
	</g>
</g>
<g id="Layer_4">
</g>
</svg>
