<?xml version="1.0" encoding="utf-8"?>
<!-- Generator: Adobe Illustrator 19.2.0, SVG Export Plug-In . SVG Version: 6.00 Build 0)  -->
<svg version="1.1" xmlns="http://www.w3.org/2000/svg" xmlns:xlink="http://www.w3.org/1999/xlink" x="0px" y="0px"
	 viewBox="0 0 200 200" enable-background="new 0 0 200 200" xml:space="preserve">
<g id="Layer_1">
</g>
<g id="Layer_2">
</g>
<g id="Layer_3">
	<g>
		<defs>
			<rect id="SVGID_3_" x="-265" y="-226" width="200" height="200"/>
		</defs>
		<clipPath id="SVGID_2_">
			<use xlink:href="#SVGID_3_"  overflow="visible"/>
		</clipPath>
		<g clip-path="url(#SVGID_2_)">
			<line fill="none" stroke="#000000" stroke-width="19" stroke-miterlimit="10" x1="-229.9" y1="63.1" x2="19" y2="-185.9"/>
			<line fill="none" stroke="#000000" stroke-width="19" stroke-miterlimit="10" x1="-210" y1="110.1" x2="39" y2="-138.8"/>
		</g>
	</g>
	<g>
		<rect x="0" y="0" fill="#C981C0" width="200" height="200"/>
	</g>
	<g id="Xjo2g3.tif">
		<g>
			<path fill="#D3C648" d="M86.2,93.8c-0.2,0-0.4,0-0.5-0.1c-0.7-0.7-1.5-1-2.4-1.3c-0.8-0.3-1.7-0.7-2.6-0.9
				c-0.6-0.1-1.2-0.1-1.9-0.1c-3.4,0.4-6.7,1.1-10,2c-3.2,0.9-6.3,2-9.3,3.5c-2.1,1.1-4,2.5-5.8,4c-2.9,2.5-5.5,5.4-8.1,8.3
				c-0.8,0.9-0.8,0.9-1.9,0.4c-0.2-0.1-0.5-0.2-0.7-0.3c-0.2-0.1-0.4-0.2-0.5-0.4c-0.3-0.6-0.6-1.2-0.8-1.8
				c-0.9-1.9-0.9-3.9-0.3-5.9c0.8-2.8,2.4-5.2,4.4-7.3c2.9-3.1,6.3-5.5,9.9-7.6c3-1.7,6.1-3.1,9.4-3.9c2.9-0.7,5.7-1,8.7-0.5
				c1.8,0.4,3.5,1.1,5,2.2c1.2,0.9,2.1,2,2.3,3.5c0,0.1,0.1,0.2,0.2,0.2c1.1,0.5,2.2,1,3.5,1.1c0.3,0,0.6,0,0.9,0
				c0.5,0,0.9,0,1.4,0.1c0.1,0.2,0.2,0.3,0.3,0.5c0,0.1,0.1,0.3,0.1,0.4c0.5,1.1,0.3,2.1-0.5,3.1c-0.1,0.1-0.2,0.2-0.3,0.4
				C86.7,93.4,86.4,93.6,86.2,93.8z M85.8,89.5c-0.4,0-0.7,0-1,0c-1.3-0.1-2.5-0.7-3.8-1.2c-0.3-0.1-0.5-0.3-0.5-0.7
				c0-0.6-0.1-1.1-0.8-1.5c-1.5-0.8-3.2-1.1-4.9-1.3c-3-0.2-5.9,0.3-8.7,1.1C66,86,66,86,65.9,86c-0.3,0.4-0.7,0.4-1.1,0.4
				c-0.3,0-0.6,0-0.6,0.5c0,0.2-0.2,0.2-0.3,0.2c-0.8,0.1-1.6,0.1-2.3,0.4c-3.3,1.3-6.5,2.9-9.4,4.9c-1.6,1.1-3.1,2.3-4.6,3.6
				c-2,1.7-3.7,3.6-4.9,5.8c-0.5,1-1.1,2-0.8,3.2c0.4,1.4,0.6,2.9,2.3,3.6c0.9,0.3,0.8,0.4,1.4-0.3c2.7-3,5.4-6,8.5-8.5
				c2.1-1.7,4.3-3.2,6.8-4.2c5.5-2.4,11.2-3.9,17.2-4.7c0.9-0.1,1.9-0.3,2.8,0c1.2,0.4,2.4,0.8,3.5,1.3c0.4,0.2,0.8,0.4,1.2,0.6
				c0.3-0.6,0.2-1-0.3-1.2c-0.6-0.2-1.2-0.4-1.8-0.6c-0.2,0-0.3-0.1-0.5-0.1c0,0,0-0.1,0-0.1c0.5-0.1,1-0.3,1.5-0.4
				C85,90.3,85.5,90,85.8,89.5z"/>
			<path fill="#FCEE21" d="M85.8,89.5c-0.3,0.5-0.7,0.8-1.3,0.9c-0.5,0.1-1,0.3-1.5,0.4c0,0,0,0.1,0,0.1c0.2,0,0.3,0,0.5,0.1
				c0.6,0.2,1.2,0.3,1.8,0.6c0.6,0.2,0.7,0.6,0.3,1.2c-0.4-0.2-0.8-0.5-1.2-0.6c-1.2-0.5-2.4-0.9-3.5-1.3c-0.9-0.3-1.9-0.1-2.8,0
				c-5.9,0.8-11.7,2.4-17.2,4.7c-2.5,1.1-4.7,2.5-6.8,4.2c-3.1,2.6-5.9,5.5-8.5,8.5c-0.6,0.7-0.6,0.6-1.4,0.3
				c-1.6-0.7-1.9-2.1-2.3-3.6c-0.3-1.2,0.3-2.2,0.8-3.2c1.2-2.3,2.9-4.2,4.9-5.8c1.5-1.3,3-2.5,4.6-3.6c2.9-2,6.1-3.7,9.4-4.9
				c0.7-0.3,1.5-0.3,2.3-0.4c0.2,0,0.4,0,0.3-0.2c-0.1-0.5,0.3-0.5,0.6-0.5c0.4,0,0.8,0,1.1-0.4c0,0,0.1-0.1,0.2-0.1
				c2.9-0.8,5.8-1.3,8.7-1.1c1.7,0.1,3.4,0.5,4.9,1.3c0.6,0.3,0.8,0.9,0.8,1.5c0,0.4,0.1,0.5,0.5,0.7c1.2,0.5,2.4,1,3.8,1.2
				C85.1,89.5,85.4,89.5,85.8,89.5z M42.9,104.7c-0.1-0.2-0.1-0.4-0.2-0.6c0,0-0.3,0-0.3,0.1C42.4,104.5,42.5,104.6,42.9,104.7z"/>
		</g>
	</g>
	<g id="Xjo2g3.tif_5_">
		<g>
			<path fill="#D3C648" d="M125.4,39.1c0.2,0,0.4-0.2,0.5-0.1c0.8,0.4,1.8,0.4,2.7,0.4c0.9,0,1.8,0,2.7-0.1c0.6-0.1,1.2-0.3,1.8-0.6
				c3.1-1.5,5.9-3.3,8.7-5.3c2.7-2,5.3-4.1,7.6-6.5c1.6-1.7,2.9-3.7,4-5.7c1.9-3.4,3.3-6.9,4.8-10.5c0.4-1.1,0.5-1.1,1.6-1
				c0.3,0,0.5,0,0.8,0c0.2,0,0.4,0.1,0.6,0.2c0.5,0.4,0.9,0.9,1.4,1.4c1.5,1.5,2.2,3.4,2.4,5.5c0.2,2.9-0.4,5.7-1.6,8.3
				c-1.7,3.9-4,7.3-6.7,10.5c-2.2,2.6-4.7,5-7.5,6.9c-2.4,1.7-5,2.9-8,3.4c-1.8,0.3-3.7,0.2-5.5-0.3c-1.4-0.4-2.7-1.1-3.4-2.6
				c0-0.1-0.2-0.1-0.3-0.1c-1.2-0.1-2.4-0.1-3.6,0.2c-0.3,0.1-0.6,0.2-0.9,0.3c-0.4,0.1-0.9,0.3-1.3,0.4c-0.2-0.1-0.3-0.2-0.5-0.3
				c-0.1-0.1-0.2-0.3-0.3-0.4c-0.9-0.9-1.1-1.9-0.6-3c0.1-0.1,0.1-0.3,0.1-0.4C125.1,39.6,125.3,39.3,125.4,39.1z M127.3,43
				c0.3-0.1,0.6-0.2,1-0.3c1.3-0.3,2.6-0.3,3.9-0.2c0.4,0,0.5,0.1,0.7,0.5c0.2,0.6,0.5,1,1.3,1.1c1.7,0.2,3.4,0,5-0.5
				c2.9-0.8,5.4-2.3,7.8-4c0.1,0,0.1-0.1,0.2-0.1c0.1-0.5,0.5-0.6,0.9-0.8c0.3-0.1,0.6-0.3,0.4-0.7c-0.1-0.2,0.1-0.3,0.2-0.3
				c0.7-0.4,1.4-0.6,2-1.1c2.7-2.3,5.1-5,7.1-7.9c1.1-1.6,2.1-3.2,3.1-4.9c1.3-2.2,2.2-4.6,2.6-7.2c0.2-1.1,0.4-2.2-0.3-3.3
				c-0.8-1.2-1.6-2.5-3.4-2.6c-0.9,0-0.9-0.1-1.3,0.8c-1.5,3.8-3,7.5-5.1,11c-1.4,2.3-3,4.5-4.9,6.3c-4.4,4.1-9.2,7.5-14.5,10.3
				c-0.8,0.4-1.7,0.9-2.7,1c-1.3,0-2.5,0-3.8,0c-0.5,0-0.9-0.1-1.4-0.2c-0.1,0.7,0.1,1,0.7,1c0.6,0,1.2-0.1,1.9-0.1
				c0.2,0,0.3-0.1,0.5-0.1c0,0,0,0.1,0,0.1c-0.4,0.3-0.8,0.6-1.2,0.9C127.7,42,127.4,42.4,127.3,43z"/>
			<path fill="#FCEE21" d="M127.3,43c0.1-0.6,0.4-1,0.9-1.3c0.4-0.3,0.8-0.6,1.2-0.9c0,0,0-0.1,0-0.1c-0.2,0-0.3,0.1-0.5,0.1
				c-0.6,0-1.2,0.1-1.9,0.1c-0.6,0-0.8-0.3-0.7-1c0.5,0.1,0.9,0.2,1.4,0.2c1.3,0,2.5,0,3.8,0c1,0,1.8-0.5,2.7-1
				c5.3-2.8,10.1-6.2,14.5-10.3c2-1.8,3.6-4,4.9-6.3c2.1-3.5,3.6-7.2,5.1-11c0.3-0.9,0.3-0.8,1.3-0.8c1.8,0.1,2.5,1.4,3.4,2.6
				c0.7,1,0.5,2.2,0.3,3.3c-0.4,2.6-1.3,4.9-2.6,7.2c-1,1.7-2,3.3-3.1,4.9c-2.1,2.9-4.4,5.5-7.1,7.9c-0.6,0.5-1.3,0.8-2,1.1
				c-0.2,0.1-0.4,0.1-0.2,0.3c0.2,0.4-0.1,0.6-0.4,0.7c-0.4,0.1-0.8,0.3-0.9,0.8c0,0.1-0.1,0.1-0.2,0.1c-2.4,1.7-5,3.2-7.8,4
				c-1.6,0.5-3.3,0.7-5,0.5c-0.7-0.1-1-0.6-1.3-1.1c-0.1-0.3-0.3-0.5-0.7-0.5c-1.3-0.1-2.6-0.1-3.9,0.2
				C127.9,42.7,127.6,42.8,127.3,43z M162.4,14c0.1,0.2,0.2,0.3,0.3,0.5c0,0,0.2-0.1,0.2-0.1C162.9,14,162.8,13.9,162.4,14z"/>
		</g>
	</g>
	<g id="Xjo2g3.tif_4_">
		<g>
			<path fill="#D3C648" d="M14.7,172.4c0.2-0.1,0.4-0.2,0.5-0.2c0.9,0.2,1.8,0,2.7-0.1c0.9-0.2,1.8-0.4,2.6-0.6
				c0.6-0.2,1.1-0.6,1.6-0.9c2.7-2.1,5.1-4.5,7.4-7.1c2.2-2.5,4.3-5.1,6-8c1.2-2,2-4.2,2.7-6.4c1.1-3.7,1.8-7.5,2.4-11.3
				c0.2-1.2,0.2-1.2,1.4-1.3c0.3,0,0.5-0.1,0.8-0.1c0.2,0,0.4,0,0.6,0.1c0.6,0.3,1.1,0.7,1.6,1c1.8,1.2,2.9,2.8,3.5,4.8
				c0.9,2.8,0.8,5.6,0.2,8.5c-0.8,4.1-2.3,8-4.3,11.7c-1.6,3-3.5,5.9-5.8,8.4c-2,2.2-4.3,4-7.1,5c-1.7,0.7-3.5,1-5.4,0.8
				c-1.5-0.1-2.8-0.6-3.8-1.8c-0.1-0.1-0.2-0.1-0.3-0.1c-1.2,0.2-2.4,0.4-3.5,1c-0.3,0.1-0.5,0.4-0.8,0.5c-0.4,0.2-0.8,0.5-1.2,0.7
				c-0.2-0.1-0.4-0.1-0.6-0.2c-0.1-0.1-0.2-0.2-0.3-0.3c-1.1-0.7-1.4-1.6-1.2-2.8c0-0.1,0-0.3,0-0.5
				C14.5,172.9,14.6,172.6,14.7,172.4z M17.3,175.7c0.3-0.2,0.6-0.4,0.9-0.5c1.2-0.6,2.5-0.8,3.8-1c0.4-0.1,0.6,0,0.8,0.3
				c0.3,0.5,0.7,0.9,1.5,0.8c1.7-0.2,3.3-0.8,4.8-1.6c2.6-1.4,4.8-3.4,6.8-5.6c0-0.1,0.1-0.1,0.1-0.2c0-0.5,0.4-0.7,0.8-0.9
				c0.3-0.2,0.5-0.4,0.2-0.7c-0.2-0.2,0-0.3,0.2-0.4c0.6-0.5,1.3-0.9,1.7-1.6c2.1-2.9,3.9-5.9,5.3-9.2c0.8-1.8,1.4-3.6,2-5.5
				c0.8-2.4,1.2-5,1-7.5c-0.1-1.1-0.1-2.3-1-3.1c-1.1-1-2.1-2.1-3.8-1.8c-0.9,0.2-0.9,0.1-1.1,1c-0.6,4-1.3,7.9-2.6,11.8
				c-0.8,2.6-1.9,5-3.5,7.2c-3.4,4.9-7.4,9.3-12,13.2c-0.7,0.6-1.4,1.3-2.4,1.5c-1.2,0.3-2.5,0.6-3.7,0.8c-0.5,0.1-0.9,0.1-1.4,0.1
				c0,0.7,0.3,1,0.9,0.8c0.6-0.1,1.2-0.3,1.8-0.5c0.2,0,0.3-0.1,0.5-0.2c0,0,0,0.1,0.1,0.1c-0.3,0.4-0.7,0.8-1,1.1
				C17.6,174.7,17.3,175.1,17.3,175.7z"/>
			<path fill="#FCEE21" d="M17.3,175.7c0-0.6,0.2-1.1,0.6-1.5c0.3-0.4,0.7-0.7,1-1.1c0,0,0-0.1-0.1-0.1c-0.2,0.1-0.3,0.1-0.5,0.2
				c-0.6,0.2-1.2,0.4-1.8,0.5c-0.6,0.1-0.9-0.1-0.9-0.8c0.5,0,0.9,0,1.4-0.1c1.2-0.2,2.5-0.5,3.7-0.8c0.9-0.2,1.7-0.9,2.4-1.5
				c4.6-3.9,8.6-8.2,12-13.2c1.5-2.2,2.6-4.7,3.5-7.2c1.3-3.8,2-7.8,2.6-11.8c0.1-0.9,0.2-0.8,1.1-1c1.7-0.3,2.7,0.8,3.8,1.8
				c0.9,0.9,0.9,2,1,3.1c0.2,2.6-0.2,5.1-1,7.5c-0.6,1.9-1.2,3.7-2,5.5c-1.4,3.3-3.2,6.3-5.3,9.2c-0.4,0.6-1.1,1.1-1.7,1.6
				c-0.1,0.1-0.3,0.2-0.2,0.4c0.3,0.4,0.1,0.6-0.2,0.7c-0.4,0.2-0.7,0.4-0.8,0.9c0,0.1-0.1,0.1-0.1,0.2c-2,2.2-4.2,4.2-6.8,5.6
				c-1.5,0.8-3.1,1.4-4.8,1.6c-0.7,0.1-1.1-0.3-1.5-0.8c-0.2-0.3-0.4-0.4-0.8-0.3c-1.3,0.2-2.6,0.4-3.8,1
				C17.9,175.4,17.6,175.6,17.3,175.7z M45.4,139.9c0.2,0.2,0.3,0.3,0.4,0.4c0,0,0.2-0.1,0.2-0.2C45.9,139.9,45.8,139.8,45.4,139.9z
				"/>
		</g>
	</g>
	<g id="Xjo2g3.tif_3_">
		<g>
			<path fill="#D3C648" d="M153.4,75.6c0,0.2,0.1,0.4,0,0.6c-0.5,0.8-0.6,1.7-0.7,2.6c-0.1,0.9-0.2,1.8-0.2,2.7
				c0,0.6,0.2,1.2,0.4,1.8c1.2,3.2,2.8,6.2,4.5,9.2c1.7,2.9,3.6,5.6,5.8,8.1c1.6,1.8,3.4,3.2,5.3,4.5c3.2,2.2,6.6,3.9,10.1,5.7
				c1.1,0.5,1.1,0.5,0.8,1.7c-0.1,0.2,0,0.5-0.1,0.8c-0.1,0.2-0.1,0.4-0.3,0.5c-0.5,0.4-1,0.8-1.5,1.2c-1.7,1.3-3.6,1.9-5.7,1.9
				c-2.9,0-5.6-0.9-8.2-2.3c-3.7-2-6.9-4.6-9.9-7.6c-2.4-2.4-4.5-5.1-6.2-8.1c-1.4-2.6-2.5-5.3-2.7-8.3c-0.1-1.9,0.1-3.7,0.8-5.4
				c0.6-1.4,1.4-2.5,2.8-3.1c0.1,0,0.2-0.2,0.2-0.2c0.2-1.2,0.4-2.4,0.1-3.6c-0.1-0.3-0.2-0.6-0.3-0.9c-0.1-0.4-0.2-0.9-0.3-1.3
				c0.1-0.2,0.3-0.3,0.4-0.5c0.1-0.1,0.3-0.1,0.4-0.2c1-0.8,2-0.9,3.1-0.3c0.1,0.1,0.3,0.1,0.4,0.1C153,75.2,153.2,75.4,153.4,75.6z
				 M149.4,77.1c0.1,0.4,0.2,0.7,0.2,1c0.2,1.3,0,2.6-0.2,3.9c0,0.4-0.2,0.5-0.5,0.6c-0.6,0.2-1.1,0.4-1.2,1.1
				c-0.4,1.7-0.3,3.4,0,5.1c0.6,2.9,1.8,5.6,3.3,8.2c0,0.1,0.1,0.1,0.1,0.2c0.5,0.2,0.6,0.6,0.7,1c0.1,0.3,0.2,0.6,0.6,0.4
				c0.2-0.1,0.2,0.1,0.3,0.3c0.3,0.7,0.5,1.5,1,2.1c2.1,2.9,4.5,5.5,7.2,7.8c1.5,1.3,3,2.4,4.6,3.5c2.1,1.5,4.4,2.6,6.9,3.2
				c1.1,0.3,2.2,0.6,3.3,0c1.3-0.7,2.7-1.4,2.9-3.1c0.1-0.9,0.2-0.9-0.6-1.3c-3.6-1.8-7.2-3.7-10.5-6c-2.2-1.6-4.2-3.3-5.8-5.5
				c-3.7-4.7-6.7-9.9-9-15.4c-0.4-0.9-0.8-1.8-0.7-2.7c0.1-1.3,0.2-2.5,0.3-3.8c0.1-0.5,0.2-0.9,0.3-1.4c-0.7-0.2-1,0-1.1,0.6
				c-0.1,0.6-0.1,1.2-0.1,1.9c0,0.2,0,0.3,0,0.5c0,0-0.1,0-0.1,0c-0.3-0.4-0.5-0.9-0.8-1.3C150.4,77.6,150,77.3,149.4,77.1z"/>
			<path fill="#FCEE21" d="M149.4,77.1c0.6,0.2,0.9,0.5,1.2,1c0.3,0.4,0.5,0.9,0.8,1.3c0,0,0.1,0,0.1,0c0-0.2,0-0.3,0-0.5
				c0-0.6,0-1.2,0.1-1.9c0.1-0.6,0.4-0.8,1.1-0.6c-0.1,0.5-0.2,0.9-0.3,1.4c-0.1,1.3-0.3,2.5-0.3,3.8c-0.1,1,0.3,1.9,0.7,2.7
				c2.3,5.5,5.3,10.7,9,15.4c1.7,2.1,3.6,3.9,5.8,5.5c3.3,2.4,6.8,4.2,10.5,6c0.8,0.4,0.8,0.4,0.6,1.3c-0.2,1.8-1.6,2.4-2.9,3.1
				c-1.1,0.6-2.2,0.3-3.3,0c-2.5-0.6-4.8-1.8-6.9-3.2c-1.6-1.1-3.2-2.3-4.6-3.5c-2.7-2.3-5.1-4.9-7.2-7.8c-0.4-0.6-0.7-1.4-1-2.1
				c-0.1-0.2-0.1-0.4-0.3-0.3c-0.4,0.2-0.6-0.1-0.6-0.4c-0.1-0.4-0.2-0.8-0.7-1c-0.1,0-0.1-0.1-0.1-0.2c-1.5-2.6-2.7-5.2-3.3-8.2
				c-0.3-1.7-0.4-3.4,0-5.1c0.1-0.7,0.6-1,1.2-1.1c0.4-0.1,0.5-0.3,0.5-0.6c0.2-1.3,0.4-2.6,0.2-3.9
				C149.6,77.8,149.5,77.5,149.4,77.1z M175.2,114.6c-0.2,0.1-0.4,0.2-0.5,0.3c0,0,0.1,0.2,0.1,0.2
				C175,115.2,175.2,115.1,175.2,114.6z"/>
		</g>
	</g>
	<g id="Xjo2g3.tif_2_">
		<g>
			<path fill="#D3C648" d="M113.3,24.2c-0.1,0.1-0.3,0.3-0.4,0.3c-0.9,0-1.8,0.4-2.6,0.8c-0.8,0.4-1.6,0.8-2.4,1.3
				c-0.5,0.3-0.9,0.8-1.3,1.3c-2.1,2.7-3.8,5.7-5.3,8.7c-1.5,3-2.9,6-3.8,9.2c-0.7,2.3-0.9,4.6-1,6.9c-0.2,3.9,0.2,7.7,0.5,11.5
				c0.1,1.2,0.1,1.2-1,1.6c-0.2,0.1-0.5,0.2-0.7,0.3c-0.2,0.1-0.4,0.1-0.6,0.1c-0.6-0.2-1.2-0.4-1.8-0.6c-2-0.7-3.5-2-4.6-3.8
				c-1.5-2.5-2.2-5.3-2.4-8.2c-0.3-4.2,0.2-8.3,1.2-12.4c0.8-3.3,1.9-6.6,3.5-9.6c1.4-2.6,3.2-4.9,5.6-6.7c1.5-1.1,3.2-1.9,5-2.2
				c1.5-0.2,2.9-0.2,4.1,0.8c0.1,0.1,0.2,0.1,0.3,0c1.1-0.5,2.2-1,3.2-1.8c0.2-0.2,0.4-0.5,0.6-0.7c0.3-0.3,0.7-0.6,1-1
				c0.2,0,0.4,0.1,0.6,0.1c0.1,0.1,0.3,0.2,0.4,0.2c1.2,0.4,1.8,1.2,1.9,2.4c0,0.1,0.1,0.3,0.1,0.4C113.3,23.7,113.3,24,113.3,24.2z
				 M109.9,21.7c-0.3,0.3-0.5,0.5-0.7,0.7c-1,0.9-2.2,1.4-3.4,2c-0.3,0.1-0.5,0.1-0.8-0.1c-0.5-0.4-0.9-0.7-1.6-0.4
				c-1.6,0.6-3,1.6-4.3,2.7c-2.2,2-3.8,4.5-5.2,7.1c0,0.1-0.1,0.1-0.1,0.2c0.1,0.5-0.2,0.8-0.5,1.1c-0.2,0.2-0.4,0.5,0,0.8
				c0.2,0.1,0,0.3-0.1,0.4c-0.4,0.6-1,1.2-1.3,1.9c-1.3,3.3-2.2,6.7-2.8,10.2c-0.3,1.9-0.4,3.9-0.5,5.8c-0.1,2.6,0.1,5.1,0.9,7.6
				c0.3,1,0.7,2.2,1.8,2.8c1.3,0.7,2.6,1.5,4.2,0.8c0.8-0.4,0.9-0.3,0.8-1.2c-0.4-4-0.7-8-0.4-12.1c0.2-2.7,0.6-5.3,1.5-7.8
				c2-5.6,4.8-10.9,8.2-15.8c0.5-0.8,1.1-1.6,1.9-2.1c1.1-0.6,2.2-1.2,3.4-1.7c0.4-0.2,0.9-0.3,1.3-0.5c-0.2-0.7-0.5-0.8-1.1-0.6
				c-0.6,0.3-1.1,0.6-1.6,0.9c-0.1,0.1-0.3,0.2-0.4,0.3c0,0-0.1-0.1-0.1-0.1c0.2-0.4,0.5-0.9,0.7-1.3
				C109.9,22.7,110,22.2,109.9,21.7z"/>
			<path fill="#FCEE21" d="M109.9,21.7c0.2,0.6,0.1,1.1-0.2,1.6c-0.2,0.4-0.5,0.9-0.7,1.3c0,0,0.1,0.1,0.1,0.1
				c0.1-0.1,0.3-0.2,0.4-0.3c0.5-0.3,1.1-0.7,1.6-0.9c0.6-0.3,0.9-0.1,1.1,0.6c-0.4,0.2-0.9,0.3-1.3,0.5c-1.1,0.5-2.3,1.1-3.4,1.7
				c-0.9,0.5-1.4,1.3-1.9,2.1c-3.4,4.9-6.2,10.1-8.2,15.8c-0.9,2.5-1.4,5.2-1.5,7.8c-0.3,4,0.1,8.1,0.4,12.1
				c0.1,0.9,0.1,0.9-0.8,1.2c-1.6,0.8-2.9-0.1-4.2-0.8c-1.1-0.6-1.4-1.7-1.8-2.8c-0.8-2.4-1.1-5-0.9-7.6c0.1-1.9,0.2-3.9,0.5-5.8
				c0.5-3.5,1.5-6.9,2.8-10.2c0.3-0.7,0.8-1.3,1.3-1.9c0.1-0.1,0.3-0.3,0.1-0.4c-0.4-0.3-0.2-0.6,0-0.8c0.3-0.3,0.6-0.6,0.5-1.1
				c0-0.1,0-0.1,0.1-0.2c1.4-2.6,3-5.1,5.2-7.1c1.3-1.2,2.6-2.1,4.3-2.7c0.7-0.3,1.2,0,1.6,0.4c0.3,0.2,0.5,0.3,0.8,0.1
				c1.2-0.5,2.4-1.1,3.4-2C109.4,22.2,109.6,21.9,109.9,21.7z M91.8,63.4c-0.2-0.1-0.4-0.2-0.5-0.3c0,0-0.2,0.2-0.1,0.2
				C91.2,63.6,91.4,63.6,91.8,63.4z"/>
		</g>
	</g>
	<g id="Xjo2g3.tif_6_">
		<g>
			<path fill="#D3C648" d="M106.5,130.3c0.1,0.1,0.4,0.2,0.4,0.4c0.2,0.9,0.9,1.6,1.4,2.3c0.6,0.7,1.2,1.4,1.8,2
				c0.5,0.4,1,0.7,1.6,1c3.2,1.3,6.4,2.3,9.8,3c3.2,0.8,6.5,1.3,9.9,1.4c2.4,0.1,4.7-0.3,7-0.7c3.8-0.8,7.4-2.1,11-3.3
				c1.1-0.4,1.1-0.4,1.8,0.6c0.1,0.2,0.3,0.4,0.5,0.6c0.1,0.2,0.2,0.4,0.2,0.6c0,0.6-0.1,1.3-0.1,1.9c-0.2,2.1-1.1,3.9-2.6,5.4
				c-2,2.1-4.6,3.4-7.3,4.3c-4,1.3-8.1,1.8-12.4,1.9c-3.4,0.1-6.8-0.2-10.1-1.1c-2.9-0.7-5.5-1.9-7.8-3.8c-1.4-1.2-2.6-2.6-3.3-4.3
				c-0.6-1.4-0.9-2.8-0.3-4.2c0-0.1,0-0.2-0.1-0.3c-0.8-1-1.5-1.9-2.5-2.6c-0.3-0.2-0.6-0.3-0.8-0.4c-0.4-0.2-0.8-0.5-1.2-0.7
				c0-0.2,0-0.4-0.1-0.6c0-0.1,0.1-0.3,0.1-0.4c0.1-1.2,0.7-2,1.9-2.5c0.1-0.1,0.3-0.1,0.4-0.2C105.9,130.4,106.2,130.4,106.5,130.3
				z M104.8,134.3c0.3,0.2,0.6,0.3,0.9,0.5c1.1,0.8,1.9,1.8,2.7,2.8c0.2,0.3,0.3,0.5,0.1,0.8c-0.3,0.5-0.4,1.1,0,1.7
				c1,1.4,2.3,2.5,3.7,3.5c2.5,1.6,5.3,2.6,8.2,3.3c0.1,0,0.2,0.1,0.2,0c0.4-0.2,0.8,0,1.2,0.2c0.3,0.2,0.6,0.3,0.7-0.2
				c0.1-0.2,0.2-0.1,0.4,0c0.7,0.3,1.4,0.7,2.2,0.8c3.5,0.5,7.1,0.5,10.6,0.2c1.9-0.2,3.8-0.5,5.7-0.9c2.5-0.5,4.9-1.4,7.1-2.8
				c0.9-0.6,1.9-1.2,2.2-2.4c0.4-1.4,0.9-2.9-0.3-4.2c-0.6-0.7-0.5-0.8-1.4-0.4c-3.8,1.4-7.6,2.6-11.6,3.4c-2.6,0.5-5.3,0.7-8,0.4
				c-6-0.6-11.7-2-17.3-4.1c-0.9-0.3-1.8-0.7-2.5-1.4c-0.9-0.9-1.7-1.9-2.5-2.9c-0.3-0.4-0.5-0.8-0.8-1.1c-0.6,0.4-0.7,0.7-0.3,1.2
				c0.4,0.5,0.9,0.9,1.3,1.3c0.1,0.1,0.3,0.2,0.4,0.3c0,0,0,0.1-0.1,0.1c-0.5-0.1-1-0.2-1.5-0.3C105.8,133.9,105.3,134,104.8,134.3z
				"/>
			<path fill="#FCEE21" d="M104.8,134.3c0.5-0.3,1-0.3,1.6-0.2c0.5,0.1,1,0.2,1.5,0.3c0,0,0-0.1,0.1-0.1c-0.1-0.1-0.3-0.2-0.4-0.3
				c-0.4-0.4-0.9-0.9-1.3-1.3c-0.4-0.5-0.3-0.9,0.3-1.2c0.3,0.4,0.5,0.8,0.8,1.1c0.8,1,1.6,1.9,2.5,2.9c0.7,0.7,1.6,1,2.5,1.4
				c5.6,2.1,11.4,3.6,17.3,4.1c2.7,0.3,5.3,0.1,8-0.4c4-0.7,7.8-2,11.6-3.4c0.9-0.3,0.8-0.3,1.4,0.4c1.1,1.4,0.6,2.8,0.3,4.2
				c-0.3,1.2-1.3,1.8-2.2,2.4c-2.2,1.4-4.6,2.2-7.1,2.8c-1.9,0.4-3.8,0.7-5.7,0.9c-3.5,0.4-7.1,0.3-10.6-0.2
				c-0.8-0.1-1.5-0.5-2.2-0.8c-0.2-0.1-0.3-0.2-0.4,0c-0.2,0.5-0.5,0.3-0.7,0.2c-0.4-0.2-0.7-0.4-1.2-0.2c-0.1,0-0.1,0-0.2,0
				c-2.9-0.7-5.7-1.7-8.2-3.3c-1.4-0.9-2.7-2-3.7-3.5c-0.4-0.6-0.3-1.1,0-1.7c0.2-0.3,0.1-0.5-0.1-0.8c-0.8-1-1.6-2.1-2.7-2.8
				C105.4,134.6,105.1,134.4,104.8,134.3z M149.7,141.6c-0.1,0.2-0.1,0.4-0.1,0.6c0,0,0.2,0.1,0.3,0.1
				C150,142.1,150,141.9,149.7,141.6z"/>
		</g>
	</g>
	<g id="Xjo2g3.tif_7_">
		<g>
			<path fill="#D3C648" d="M134.7,179.7c0.2,0,0.4,0,0.5,0.1c0.7,0.7,1.5,0.9,2.4,1.3c0.8,0.3,1.7,0.6,2.6,0.8
				c0.6,0.1,1.2,0.1,1.9,0c3.4-0.4,6.7-1.3,10-2.3c3.2-1,6.3-2.2,9.2-3.7c2.1-1.1,3.9-2.6,5.6-4.1c2.9-2.6,5.4-5.5,7.8-8.5
				c0.8-0.9,0.8-0.9,1.9-0.4c0.2,0.1,0.5,0.2,0.7,0.3c0.2,0.1,0.4,0.2,0.5,0.4c0.3,0.6,0.6,1.2,0.9,1.7c0.9,1.9,1,3.9,0.5,5.9
				c-0.7,2.8-2.2,5.2-4.2,7.4c-2.8,3.1-6.1,5.7-9.7,7.9c-2.9,1.8-6,3.2-9.3,4.2c-2.8,0.8-5.7,1.2-8.7,0.7c-1.8-0.3-3.6-1-5.1-2.1
				c-1.2-0.9-2.2-1.9-2.4-3.5c0-0.1-0.1-0.2-0.2-0.2c-1.1-0.4-2.3-0.9-3.5-1c-0.3,0-0.6,0-0.9,0c-0.5,0-0.9,0-1.4,0
				c-0.1-0.2-0.2-0.3-0.4-0.5c0-0.1-0.1-0.3-0.1-0.4c-0.6-1.1-0.4-2.1,0.4-3.1c0.1-0.1,0.2-0.3,0.2-0.4
				C134.3,180,134.5,179.8,134.7,179.7z M135.3,183.9c0.4,0,0.7,0,1,0c1.3,0.1,2.6,0.6,3.8,1.1c0.3,0.1,0.5,0.3,0.5,0.7
				c0,0.6,0.2,1.1,0.8,1.4c1.6,0.7,3.2,1.1,4.9,1.1c3,0.1,5.9-0.4,8.7-1.3c0.1,0,0.2,0,0.2-0.1c0.3-0.4,0.7-0.4,1.1-0.4
				c0.3,0,0.6-0.1,0.5-0.5c0-0.2,0.2-0.2,0.3-0.2c0.8-0.1,1.6-0.2,2.3-0.4c3.3-1.4,6.4-3.1,9.2-5.2c1.6-1.1,3.1-2.4,4.5-3.7
				c1.9-1.7,3.6-3.7,4.7-6c0.5-1,1.1-2,0.7-3.2c-0.4-1.4-0.7-2.9-2.4-3.5c-0.9-0.3-0.8-0.4-1.4,0.3c-2.6,3.1-5.2,6.1-8.3,8.8
				c-2,1.8-4.2,3.3-6.7,4.4c-5.4,2.5-11.1,4.2-17,5.2c-0.9,0.2-1.9,0.3-2.8,0.1c-1.2-0.4-2.4-0.8-3.6-1.2c-0.4-0.2-0.8-0.4-1.3-0.6
				c-0.3,0.6-0.2,1,0.4,1.2c0.6,0.2,1.2,0.3,1.8,0.5c0.2,0,0.3,0.1,0.5,0.1c0,0,0,0.1,0,0.1c-0.5,0.1-1,0.3-1.4,0.4
				C136,183.1,135.5,183.4,135.3,183.9z"/>
			<path fill="#FCEE21" d="M135.3,183.9c0.3-0.5,0.7-0.8,1.2-0.9c0.5-0.1,1-0.3,1.4-0.4c0,0,0-0.1,0-0.1c-0.2,0-0.3,0-0.5-0.1
				c-0.6-0.2-1.2-0.3-1.8-0.5c-0.6-0.2-0.7-0.6-0.4-1.2c0.4,0.2,0.8,0.4,1.3,0.6c1.2,0.4,2.4,0.8,3.6,1.2c0.9,0.3,1.9,0.1,2.8-0.1
				c5.9-1,11.6-2.7,17-5.2c2.4-1.1,4.6-2.6,6.7-4.4c3.1-2.6,5.7-5.7,8.3-8.8c0.6-0.7,0.6-0.6,1.4-0.3c1.7,0.6,2,2.1,2.4,3.5
				c0.3,1.2-0.2,2.2-0.7,3.2c-1.2,2.3-2.8,4.2-4.7,6c-1.4,1.3-2.9,2.5-4.5,3.7c-2.9,2.1-6,3.8-9.2,5.2c-0.7,0.3-1.5,0.3-2.3,0.4
				c-0.2,0-0.4,0-0.3,0.2c0.1,0.5-0.2,0.5-0.5,0.5c-0.4,0-0.8,0-1.1,0.4c0,0-0.1,0.1-0.2,0.1c-2.8,0.9-5.7,1.4-8.7,1.3
				c-1.7-0.1-3.4-0.4-4.9-1.1c-0.7-0.3-0.8-0.9-0.8-1.4c0-0.4-0.2-0.5-0.5-0.7c-1.2-0.5-2.5-1-3.8-1.1
				C135.9,183.9,135.6,183.9,135.3,183.9z M177.7,167.6c0.1,0.2,0.1,0.4,0.2,0.6c0,0,0.3,0,0.3-0.1
				C178.2,167.8,178.1,167.6,177.7,167.6z"/>
		</g>
	</g>
	<g id="Xjo2g3.tif_1_">
		<g>
			<path fill="#D3C648" d="M23.7,10.4c0,0.2,0.2,0.4,0.1,0.5c-0.4,0.9-0.3,1.8-0.3,2.7c0,0.9,0.1,1.8,0.2,2.7
				c0.1,0.6,0.4,1.2,0.7,1.7c1.7,3,3.7,5.7,5.9,8.4c2.1,2.6,4.4,5,6.9,7.1c1.8,1.5,3.9,2.6,6,3.7c3.5,1.7,7.1,2.9,10.8,4.1
				c1.1,0.4,1.1,0.4,1.1,1.6c0,0.3,0,0.5,0,0.8c0,0.2-0.1,0.4-0.2,0.6c-0.4,0.5-0.8,1-1.3,1.4c-1.4,1.6-3.2,2.4-5.3,2.7
				c-2.9,0.4-5.7-0.1-8.4-1.1c-4-1.4-7.6-3.5-10.9-6c-2.8-2-5.3-4.3-7.4-7c-1.8-2.3-3.2-4.8-3.9-7.8c-0.4-1.8-0.5-3.7,0-5.5
				c0.4-1.4,1-2.7,2.3-3.5c0.1,0,0.1-0.2,0.1-0.3c0-1.2,0-2.4-0.4-3.6c-0.1-0.3-0.3-0.6-0.4-0.8c-0.2-0.4-0.3-0.9-0.5-1.3
				c0.1-0.2,0.2-0.3,0.3-0.5c0.1-0.1,0.2-0.2,0.3-0.3c0.8-0.9,1.8-1.2,3-0.8c0.1,0,0.3,0.1,0.4,0.1C23.2,10.1,23.5,10.3,23.7,10.4z
				 M20,12.5c0.1,0.3,0.3,0.6,0.4,0.9c0.4,1.3,0.4,2.6,0.4,3.9c0,0.4-0.1,0.5-0.4,0.7c-0.5,0.3-1,0.6-1,1.3c-0.1,1.7,0.2,3.4,0.8,5
				c1,2.8,2.6,5.3,4.5,7.6c0,0.1,0.1,0.1,0.1,0.1c0.5,0.1,0.7,0.5,0.8,0.9c0.1,0.3,0.3,0.6,0.7,0.3c0.2-0.1,0.3,0.1,0.4,0.2
				c0.4,0.7,0.7,1.4,1.3,1.9c2.5,2.5,5.3,4.7,8.3,6.6c1.6,1,3.4,1.9,5.1,2.8c2.3,1.1,4.7,1.9,7.3,2.1c1.1,0.1,2.2,0.3,3.2-0.5
				c1.2-0.9,2.4-1.7,2.4-3.5c0-0.9,0-0.9-0.8-1.2c-3.8-1.2-7.6-2.5-11.2-4.4c-2.4-1.2-4.6-2.7-6.6-4.5c-4.4-4.1-8.1-8.7-11.2-13.8
				c-0.5-0.8-1-1.6-1.1-2.6c-0.1-1.3-0.2-2.5-0.2-3.8c0-0.5,0.1-0.9,0.1-1.4c-0.7-0.1-1,0.2-1,0.8c0,0.6,0.1,1.2,0.2,1.8
				c0,0.2,0.1,0.3,0.1,0.5c0,0-0.1,0-0.1,0.1c-0.3-0.4-0.6-0.8-1-1.2C21,12.9,20.6,12.6,20,12.5z"/>
			<path fill="#FCEE21" d="M20,12.5c0.6,0.1,1,0.4,1.3,0.8c0.3,0.4,0.6,0.8,1,1.2c0,0,0.1,0,0.1-0.1c0-0.2-0.1-0.3-0.1-0.5
				c-0.1-0.6-0.2-1.2-0.2-1.8c0-0.6,0.3-0.9,1-0.8c0,0.5-0.1,0.9-0.1,1.4c0.1,1.3,0.1,2.5,0.2,3.8c0.1,1,0.6,1.8,1.1,2.6
				c3.1,5.1,6.8,9.7,11.2,13.8c2,1.8,4.2,3.3,6.6,4.5c3.6,1.8,7.4,3.1,11.2,4.4c0.9,0.3,0.8,0.3,0.8,1.2c0.1,1.8-1.2,2.6-2.4,3.5
				c-1,0.8-2.1,0.6-3.2,0.5c-2.6-0.2-5-1-7.3-2.1c-1.7-0.8-3.5-1.8-5.1-2.8c-3-1.9-5.8-4.1-8.3-6.6c-0.5-0.5-0.9-1.3-1.3-1.9
				c-0.1-0.2-0.1-0.4-0.4-0.2c-0.4,0.3-0.6,0-0.7-0.3c-0.2-0.4-0.3-0.8-0.8-0.9c-0.1,0-0.1-0.1-0.1-0.1c-1.9-2.3-3.5-4.8-4.5-7.6
				c-0.6-1.6-0.9-3.3-0.8-5c0-0.7,0.5-1.1,1-1.3c0.3-0.2,0.4-0.3,0.4-0.7c0-1.3,0-2.6-0.4-3.9C20.3,13.1,20.1,12.8,20,12.5z
				 M51.1,45.7c-0.2,0.2-0.3,0.3-0.5,0.4c0,0,0.1,0.2,0.2,0.2C51.1,46.2,51.2,46.1,51.1,45.7z"/>
		</g>
	</g>
</g>
<g id="Layer_4">
</g>
</svg>
